%TF.GenerationSoftware,KiCad,Pcbnew,8.0.6*%
%TF.CreationDate,2024-10-31T21:18:19+01:00*%
%TF.ProjectId,keyboard,6b657962-6f61-4726-942e-6b696361645f,rev?*%
%TF.SameCoordinates,Original*%
%TF.FileFunction,Paste,Top*%
%TF.FilePolarity,Positive*%
%FSLAX46Y46*%
G04 Gerber Fmt 4.6, Leading zero omitted, Abs format (unit mm)*
G04 Created by KiCad (PCBNEW 8.0.6) date 2024-10-31 21:18:19*
%MOMM*%
%LPD*%
G01*
G04 APERTURE LIST*
G04 Aperture macros list*
%AMRoundRect*
0 Rectangle with rounded corners*
0 $1 Rounding radius*
0 $2 $3 $4 $5 $6 $7 $8 $9 X,Y pos of 4 corners*
0 Add a 4 corners polygon primitive as box body*
4,1,4,$2,$3,$4,$5,$6,$7,$8,$9,$2,$3,0*
0 Add four circle primitives for the rounded corners*
1,1,$1+$1,$2,$3*
1,1,$1+$1,$4,$5*
1,1,$1+$1,$6,$7*
1,1,$1+$1,$8,$9*
0 Add four rect primitives between the rounded corners*
20,1,$1+$1,$2,$3,$4,$5,0*
20,1,$1+$1,$4,$5,$6,$7,0*
20,1,$1+$1,$6,$7,$8,$9,0*
20,1,$1+$1,$8,$9,$2,$3,0*%
G04 Aperture macros list end*
%ADD10RoundRect,0.225000X-0.225000X-0.250000X0.225000X-0.250000X0.225000X0.250000X-0.225000X0.250000X0*%
%ADD11RoundRect,0.225000X-0.250000X0.225000X-0.250000X-0.225000X0.250000X-0.225000X0.250000X0.225000X0*%
%ADD12R,2.800000X2.600000*%
%ADD13R,2.800000X2.200000*%
%ADD14R,2.800000X2.800000*%
%ADD15RoundRect,0.200000X0.275000X-0.200000X0.275000X0.200000X-0.275000X0.200000X-0.275000X-0.200000X0*%
%ADD16R,1.250000X1.000000*%
%ADD17R,0.300000X0.700000*%
%ADD18R,1.000000X0.700000*%
%ADD19R,1.600000X0.550000*%
%ADD20R,0.550000X1.600000*%
%ADD21RoundRect,0.225000X0.250000X-0.225000X0.250000X0.225000X-0.250000X0.225000X-0.250000X-0.225000X0*%
G04 APERTURE END LIST*
D10*
%TO.C,C6*%
X109200000Y-37250000D03*
X110750000Y-37250000D03*
%TD*%
D11*
%TO.C,C4*%
X106500000Y-44725000D03*
X106500000Y-46275000D03*
%TD*%
D12*
%TO.C,J2*%
X214500000Y-71650000D03*
D13*
X210050000Y-58250000D03*
X217450000Y-60250000D03*
D14*
X210050000Y-67650000D03*
%TD*%
D15*
%TO.C,R2*%
X74700000Y-49225000D03*
X74700000Y-47575000D03*
%TD*%
D16*
%TO.C,SW36*%
X114625000Y-34500000D03*
X122375000Y-34500000D03*
%TD*%
D17*
%TO.C,J1*%
X71570000Y-48270000D03*
X71070000Y-48270000D03*
X70570000Y-48270000D03*
X70070000Y-48270000D03*
X69570000Y-48270000D03*
X69070000Y-48270000D03*
X68070000Y-48270000D03*
X67570000Y-48270000D03*
X67070000Y-48270000D03*
X66570000Y-48270000D03*
X66070000Y-48270000D03*
X65570000Y-48270000D03*
D18*
X65470000Y-46970000D03*
D17*
X66320000Y-46970000D03*
X66820000Y-46970000D03*
X67320000Y-46970000D03*
X67820000Y-46970000D03*
X68320000Y-46970000D03*
X68820000Y-46970000D03*
X69320000Y-46970000D03*
X69820000Y-46970000D03*
X70320000Y-46970000D03*
X70820000Y-46970000D03*
D18*
X71670000Y-46970000D03*
%TD*%
D10*
%TO.C,C5*%
X99225000Y-36500000D03*
X100775000Y-36500000D03*
%TD*%
D15*
%TO.C,R3*%
X62320000Y-49225000D03*
X62320000Y-47575000D03*
%TD*%
D10*
%TO.C,C3*%
X92225000Y-43000000D03*
X93775000Y-43000000D03*
%TD*%
D19*
%TO.C,U1*%
X95800000Y-39950000D03*
X95800000Y-40750000D03*
X95800000Y-41550000D03*
X95800000Y-42350000D03*
X95800000Y-43150000D03*
X95800000Y-43950000D03*
X95800000Y-44750000D03*
X95800000Y-45550000D03*
D20*
X97250000Y-47000000D03*
X98050000Y-47000000D03*
X98850000Y-47000000D03*
X99650000Y-47000000D03*
X100450000Y-47000000D03*
X101250000Y-47000000D03*
X102050000Y-47000000D03*
X102850000Y-47000000D03*
D19*
X104300000Y-45550000D03*
X104300000Y-44750000D03*
X104300000Y-43950000D03*
X104300000Y-43150000D03*
X104300000Y-42350000D03*
X104300000Y-41550000D03*
X104300000Y-40750000D03*
X104300000Y-39950000D03*
D20*
X102850000Y-38500000D03*
X102050000Y-38500000D03*
X101250000Y-38500000D03*
X100450000Y-38500000D03*
X99650000Y-38500000D03*
X98850000Y-38500000D03*
X98050000Y-38500000D03*
X97250000Y-38500000D03*
%TD*%
D21*
%TO.C,C7*%
X78250000Y-45275000D03*
X78250000Y-43725000D03*
%TD*%
M02*
