%TF.GenerationSoftware,KiCad,Pcbnew,8.0.6*%
%TF.CreationDate,2024-10-31T21:18:19+01:00*%
%TF.ProjectId,keyboard,6b657962-6f61-4726-942e-6b696361645f,rev?*%
%TF.SameCoordinates,Original*%
%TF.FileFunction,Legend,Top*%
%TF.FilePolarity,Positive*%
%FSLAX46Y46*%
G04 Gerber Fmt 4.6, Leading zero omitted, Abs format (unit mm)*
G04 Created by KiCad (PCBNEW 8.0.6) date 2024-10-31 21:18:19*
%MOMM*%
%LPD*%
G01*
G04 APERTURE LIST*
%ADD10C,0.100000*%
%ADD11C,0.150000*%
%ADD12C,0.120000*%
G04 APERTURE END LIST*
D10*
X209196741Y-85792419D02*
X209101503Y-85744800D01*
X209101503Y-85744800D02*
X209053884Y-85649561D01*
X209053884Y-85649561D02*
X209053884Y-84792419D01*
X209958646Y-85744800D02*
X209863408Y-85792419D01*
X209863408Y-85792419D02*
X209672932Y-85792419D01*
X209672932Y-85792419D02*
X209577694Y-85744800D01*
X209577694Y-85744800D02*
X209530075Y-85649561D01*
X209530075Y-85649561D02*
X209530075Y-85268609D01*
X209530075Y-85268609D02*
X209577694Y-85173371D01*
X209577694Y-85173371D02*
X209672932Y-85125752D01*
X209672932Y-85125752D02*
X209863408Y-85125752D01*
X209863408Y-85125752D02*
X209958646Y-85173371D01*
X209958646Y-85173371D02*
X210006265Y-85268609D01*
X210006265Y-85268609D02*
X210006265Y-85363847D01*
X210006265Y-85363847D02*
X209530075Y-85459085D01*
X210291980Y-85125752D02*
X210672932Y-85125752D01*
X210434837Y-84792419D02*
X210434837Y-85649561D01*
X210434837Y-85649561D02*
X210482456Y-85744800D01*
X210482456Y-85744800D02*
X210577694Y-85792419D01*
X210577694Y-85792419D02*
X210672932Y-85792419D01*
X211053885Y-84792419D02*
X210958647Y-84982895D01*
X211434837Y-85744800D02*
X211530075Y-85792419D01*
X211530075Y-85792419D02*
X211720551Y-85792419D01*
X211720551Y-85792419D02*
X211815789Y-85744800D01*
X211815789Y-85744800D02*
X211863408Y-85649561D01*
X211863408Y-85649561D02*
X211863408Y-85601942D01*
X211863408Y-85601942D02*
X211815789Y-85506704D01*
X211815789Y-85506704D02*
X211720551Y-85459085D01*
X211720551Y-85459085D02*
X211577694Y-85459085D01*
X211577694Y-85459085D02*
X211482456Y-85411466D01*
X211482456Y-85411466D02*
X211434837Y-85316228D01*
X211434837Y-85316228D02*
X211434837Y-85268609D01*
X211434837Y-85268609D02*
X211482456Y-85173371D01*
X211482456Y-85173371D02*
X211577694Y-85125752D01*
X211577694Y-85125752D02*
X211720551Y-85125752D01*
X211720551Y-85125752D02*
X211815789Y-85173371D01*
X213053885Y-85792419D02*
X213053885Y-84792419D01*
X213482456Y-85792419D02*
X213482456Y-85268609D01*
X213482456Y-85268609D02*
X213434837Y-85173371D01*
X213434837Y-85173371D02*
X213339599Y-85125752D01*
X213339599Y-85125752D02*
X213196742Y-85125752D01*
X213196742Y-85125752D02*
X213101504Y-85173371D01*
X213101504Y-85173371D02*
X213053885Y-85220990D01*
X214101504Y-85792419D02*
X214006266Y-85744800D01*
X214006266Y-85744800D02*
X213958647Y-85697180D01*
X213958647Y-85697180D02*
X213911028Y-85601942D01*
X213911028Y-85601942D02*
X213911028Y-85316228D01*
X213911028Y-85316228D02*
X213958647Y-85220990D01*
X213958647Y-85220990D02*
X214006266Y-85173371D01*
X214006266Y-85173371D02*
X214101504Y-85125752D01*
X214101504Y-85125752D02*
X214244361Y-85125752D01*
X214244361Y-85125752D02*
X214339599Y-85173371D01*
X214339599Y-85173371D02*
X214387218Y-85220990D01*
X214387218Y-85220990D02*
X214434837Y-85316228D01*
X214434837Y-85316228D02*
X214434837Y-85601942D01*
X214434837Y-85601942D02*
X214387218Y-85697180D01*
X214387218Y-85697180D02*
X214339599Y-85744800D01*
X214339599Y-85744800D02*
X214244361Y-85792419D01*
X214244361Y-85792419D02*
X214101504Y-85792419D01*
X214863409Y-85125752D02*
X214863409Y-86125752D01*
X214863409Y-85173371D02*
X214958647Y-85125752D01*
X214958647Y-85125752D02*
X215149123Y-85125752D01*
X215149123Y-85125752D02*
X215244361Y-85173371D01*
X215244361Y-85173371D02*
X215291980Y-85220990D01*
X215291980Y-85220990D02*
X215339599Y-85316228D01*
X215339599Y-85316228D02*
X215339599Y-85601942D01*
X215339599Y-85601942D02*
X215291980Y-85697180D01*
X215291980Y-85697180D02*
X215244361Y-85744800D01*
X215244361Y-85744800D02*
X215149123Y-85792419D01*
X215149123Y-85792419D02*
X214958647Y-85792419D01*
X214958647Y-85792419D02*
X214863409Y-85744800D01*
X216149123Y-85744800D02*
X216053885Y-85792419D01*
X216053885Y-85792419D02*
X215863409Y-85792419D01*
X215863409Y-85792419D02*
X215768171Y-85744800D01*
X215768171Y-85744800D02*
X215720552Y-85649561D01*
X215720552Y-85649561D02*
X215720552Y-85268609D01*
X215720552Y-85268609D02*
X215768171Y-85173371D01*
X215768171Y-85173371D02*
X215863409Y-85125752D01*
X215863409Y-85125752D02*
X216053885Y-85125752D01*
X216053885Y-85125752D02*
X216149123Y-85173371D01*
X216149123Y-85173371D02*
X216196742Y-85268609D01*
X216196742Y-85268609D02*
X216196742Y-85363847D01*
X216196742Y-85363847D02*
X215720552Y-85459085D01*
X217244362Y-85125752D02*
X217625314Y-85125752D01*
X217387219Y-84792419D02*
X217387219Y-85649561D01*
X217387219Y-85649561D02*
X217434838Y-85744800D01*
X217434838Y-85744800D02*
X217530076Y-85792419D01*
X217530076Y-85792419D02*
X217625314Y-85792419D01*
X217958648Y-85792419D02*
X217958648Y-84792419D01*
X218387219Y-85792419D02*
X218387219Y-85268609D01*
X218387219Y-85268609D02*
X218339600Y-85173371D01*
X218339600Y-85173371D02*
X218244362Y-85125752D01*
X218244362Y-85125752D02*
X218101505Y-85125752D01*
X218101505Y-85125752D02*
X218006267Y-85173371D01*
X218006267Y-85173371D02*
X217958648Y-85220990D01*
X218863410Y-85792419D02*
X218863410Y-85125752D01*
X218863410Y-84792419D02*
X218815791Y-84840038D01*
X218815791Y-84840038D02*
X218863410Y-84887657D01*
X218863410Y-84887657D02*
X218911029Y-84840038D01*
X218911029Y-84840038D02*
X218863410Y-84792419D01*
X218863410Y-84792419D02*
X218863410Y-84887657D01*
X219291981Y-85744800D02*
X219387219Y-85792419D01*
X219387219Y-85792419D02*
X219577695Y-85792419D01*
X219577695Y-85792419D02*
X219672933Y-85744800D01*
X219672933Y-85744800D02*
X219720552Y-85649561D01*
X219720552Y-85649561D02*
X219720552Y-85601942D01*
X219720552Y-85601942D02*
X219672933Y-85506704D01*
X219672933Y-85506704D02*
X219577695Y-85459085D01*
X219577695Y-85459085D02*
X219434838Y-85459085D01*
X219434838Y-85459085D02*
X219339600Y-85411466D01*
X219339600Y-85411466D02*
X219291981Y-85316228D01*
X219291981Y-85316228D02*
X219291981Y-85268609D01*
X219291981Y-85268609D02*
X219339600Y-85173371D01*
X219339600Y-85173371D02*
X219434838Y-85125752D01*
X219434838Y-85125752D02*
X219577695Y-85125752D01*
X219577695Y-85125752D02*
X219672933Y-85173371D01*
X208958646Y-86735696D02*
X209149122Y-87402363D01*
X209149122Y-87402363D02*
X209339598Y-86926172D01*
X209339598Y-86926172D02*
X209530074Y-87402363D01*
X209530074Y-87402363D02*
X209720550Y-86735696D01*
X210244360Y-87402363D02*
X210149122Y-87354744D01*
X210149122Y-87354744D02*
X210101503Y-87307124D01*
X210101503Y-87307124D02*
X210053884Y-87211886D01*
X210053884Y-87211886D02*
X210053884Y-86926172D01*
X210053884Y-86926172D02*
X210101503Y-86830934D01*
X210101503Y-86830934D02*
X210149122Y-86783315D01*
X210149122Y-86783315D02*
X210244360Y-86735696D01*
X210244360Y-86735696D02*
X210387217Y-86735696D01*
X210387217Y-86735696D02*
X210482455Y-86783315D01*
X210482455Y-86783315D02*
X210530074Y-86830934D01*
X210530074Y-86830934D02*
X210577693Y-86926172D01*
X210577693Y-86926172D02*
X210577693Y-87211886D01*
X210577693Y-87211886D02*
X210530074Y-87307124D01*
X210530074Y-87307124D02*
X210482455Y-87354744D01*
X210482455Y-87354744D02*
X210387217Y-87402363D01*
X210387217Y-87402363D02*
X210244360Y-87402363D01*
X211006265Y-87402363D02*
X211006265Y-86735696D01*
X211006265Y-86926172D02*
X211053884Y-86830934D01*
X211053884Y-86830934D02*
X211101503Y-86783315D01*
X211101503Y-86783315D02*
X211196741Y-86735696D01*
X211196741Y-86735696D02*
X211291979Y-86735696D01*
X211625313Y-87402363D02*
X211625313Y-86402363D01*
X211720551Y-87021410D02*
X212006265Y-87402363D01*
X212006265Y-86735696D02*
X211625313Y-87116648D01*
X212387218Y-87354744D02*
X212482456Y-87402363D01*
X212482456Y-87402363D02*
X212672932Y-87402363D01*
X212672932Y-87402363D02*
X212768170Y-87354744D01*
X212768170Y-87354744D02*
X212815789Y-87259505D01*
X212815789Y-87259505D02*
X212815789Y-87211886D01*
X212815789Y-87211886D02*
X212768170Y-87116648D01*
X212768170Y-87116648D02*
X212672932Y-87069029D01*
X212672932Y-87069029D02*
X212530075Y-87069029D01*
X212530075Y-87069029D02*
X212434837Y-87021410D01*
X212434837Y-87021410D02*
X212387218Y-86926172D01*
X212387218Y-86926172D02*
X212387218Y-86878553D01*
X212387218Y-86878553D02*
X212434837Y-86783315D01*
X212434837Y-86783315D02*
X212530075Y-86735696D01*
X212530075Y-86735696D02*
X212672932Y-86735696D01*
X212672932Y-86735696D02*
X212768170Y-86783315D01*
X208000000Y-84000000D02*
X222000000Y-84000000D01*
X222000000Y-90000000D01*
X208000000Y-90000000D01*
X208000000Y-84000000D01*
G36*
X220428995Y-103968332D02*
G01*
X220465631Y-104029881D01*
X220519120Y-104070914D01*
X220717690Y-104149316D01*
X220717690Y-104290000D01*
X219724110Y-104290000D01*
X219724110Y-104149316D01*
X220039183Y-104036475D01*
X219768806Y-103316936D01*
X218776692Y-103316936D01*
X218521702Y-104026950D01*
X218840439Y-104149316D01*
X218840439Y-104290000D01*
X217997801Y-104290000D01*
X217997801Y-104149316D01*
X218189776Y-104065052D01*
X218248394Y-104021821D01*
X218285031Y-103962470D01*
X218634874Y-103070739D01*
X218868283Y-103070739D01*
X219677215Y-103070739D01*
X219367271Y-102318960D01*
X219293998Y-102069832D01*
X219262491Y-102069832D01*
X218868283Y-103070739D01*
X218634874Y-103070739D01*
X219048534Y-102016343D01*
X219269818Y-101570111D01*
X219481577Y-101570111D01*
X220428995Y-103968332D01*
G37*
G36*
X218208094Y-109189316D02*
G01*
X218496789Y-109085268D01*
X218547348Y-109053761D01*
X218568597Y-108993677D01*
X218568597Y-106983803D01*
X218547348Y-106924452D01*
X218496789Y-106894410D01*
X218197103Y-106797690D01*
X218197103Y-106657006D01*
X218967934Y-106657006D01*
X220269993Y-108500551D01*
X220414340Y-108740886D01*
X220444382Y-108740886D01*
X220444382Y-106991130D01*
X220421667Y-106934710D01*
X220368911Y-106905401D01*
X220083879Y-106797690D01*
X220083879Y-106657006D01*
X221054012Y-106657006D01*
X221054012Y-106797690D01*
X220766782Y-106904668D01*
X220716957Y-106933977D01*
X220693510Y-106989665D01*
X220693510Y-108901353D01*
X220637090Y-109330000D01*
X220414340Y-109330000D01*
X218997976Y-107347969D01*
X218853628Y-107106168D01*
X218823586Y-107106168D01*
X218823586Y-108993677D01*
X218845568Y-109055226D01*
X218894661Y-109085268D01*
X219178227Y-109189316D01*
X219178227Y-109330000D01*
X218208094Y-109330000D01*
X218208094Y-109189316D01*
G37*
G36*
X219594308Y-111705120D02*
G01*
X219723377Y-111722651D01*
X219875235Y-111756540D01*
X220016604Y-111804615D01*
X220025994Y-111808381D01*
X220164078Y-111873403D01*
X220296688Y-111955814D01*
X220313956Y-111968115D01*
X220428179Y-112064987D01*
X220529779Y-112181213D01*
X220556489Y-112217976D01*
X220635084Y-112348970D01*
X220694967Y-112485772D01*
X220724284Y-112572616D01*
X220760161Y-112720278D01*
X220779853Y-112867740D01*
X220787237Y-113027795D01*
X220787299Y-113044494D01*
X220780659Y-113210136D01*
X220760737Y-113364146D01*
X220722452Y-113523504D01*
X220681053Y-113637271D01*
X220615443Y-113770978D01*
X220527859Y-113903499D01*
X220424819Y-114019133D01*
X220390893Y-114050530D01*
X220269406Y-114143967D01*
X220135754Y-114220946D01*
X219989939Y-114281468D01*
X219959316Y-114291598D01*
X219817694Y-114329497D01*
X219670623Y-114354993D01*
X219518105Y-114368085D01*
X219431018Y-114370000D01*
X218208094Y-114370000D01*
X218208094Y-114229316D01*
X218496789Y-114138457D01*
X218520864Y-114123803D01*
X218962072Y-114123803D01*
X219440544Y-114123803D01*
X219595550Y-114115751D01*
X219747070Y-114088600D01*
X219848674Y-114055659D01*
X219987199Y-113983611D01*
X220102724Y-113888002D01*
X220131507Y-113856357D01*
X220218381Y-113730734D01*
X220278957Y-113593489D01*
X220297103Y-113535422D01*
X220329698Y-113384468D01*
X220346362Y-113232879D01*
X220350593Y-113099448D01*
X220343509Y-112937833D01*
X220322257Y-112786378D01*
X220282515Y-112631514D01*
X220278053Y-112618046D01*
X220221239Y-112478152D01*
X220142276Y-112343119D01*
X220071423Y-112253879D01*
X219962922Y-112151114D01*
X219838553Y-112068133D01*
X219746824Y-112023803D01*
X219598412Y-111974687D01*
X219451687Y-111949578D01*
X219324040Y-111943203D01*
X218962072Y-111943203D01*
X218962072Y-114123803D01*
X218520864Y-114123803D01*
X218547348Y-114107683D01*
X218568597Y-114045401D01*
X218568597Y-112021605D01*
X218547348Y-111962254D01*
X218496789Y-111932212D01*
X218208094Y-111837690D01*
X218208094Y-111697006D01*
X219439078Y-111697006D01*
X219594308Y-111705120D01*
G37*
G36*
X218208094Y-119269316D02*
G01*
X218496789Y-119178457D01*
X218547348Y-119147683D01*
X218568597Y-119085401D01*
X218568597Y-117061605D01*
X218547348Y-117002254D01*
X218496789Y-116972212D01*
X218208094Y-116877690D01*
X218208094Y-116737006D01*
X220295638Y-116737006D01*
X220295638Y-117405254D01*
X220074354Y-117405254D01*
X220001814Y-117049881D01*
X219973237Y-117000788D01*
X219920481Y-116983203D01*
X218962072Y-116983203D01*
X218962072Y-117909371D01*
X219537997Y-117909371D01*
X219592219Y-117891786D01*
X219618597Y-117839762D01*
X219686008Y-117534214D01*
X219866259Y-117534214D01*
X219866259Y-118530725D01*
X219686008Y-118530725D01*
X219618597Y-118228841D01*
X219592219Y-118173886D01*
X219537997Y-118155568D01*
X218962072Y-118155568D01*
X218962072Y-119163803D01*
X220067027Y-119163803D01*
X220116852Y-119145484D01*
X220143963Y-119094926D01*
X220218702Y-118694856D01*
X220438520Y-118694856D01*
X220438520Y-119410000D01*
X218208094Y-119410000D01*
X218208094Y-119269316D01*
G37*
G36*
X219464823Y-121781601D02*
G01*
X219615650Y-121796828D01*
X219664759Y-121804849D01*
X219815063Y-121840017D01*
X219927076Y-121880321D01*
X220059845Y-121953427D01*
X220108060Y-121991695D01*
X220204914Y-122102540D01*
X220221632Y-122130181D01*
X220276395Y-122270458D01*
X220279518Y-122285519D01*
X220295496Y-122431483D01*
X220295638Y-122446720D01*
X220281350Y-122600043D01*
X220238485Y-122734682D01*
X220163987Y-122864744D01*
X220091939Y-122950837D01*
X219980456Y-123046237D01*
X219897034Y-123098115D01*
X219761072Y-123157982D01*
X219691870Y-123177250D01*
X220382100Y-124098290D01*
X220409944Y-124131263D01*
X220449511Y-124170097D01*
X220492742Y-124203803D01*
X220535973Y-124224319D01*
X220824668Y-124309316D01*
X220824668Y-124450000D01*
X220371109Y-124450000D01*
X220224462Y-124439685D01*
X220220900Y-124439009D01*
X220124912Y-124398709D01*
X220052372Y-124322505D01*
X219967376Y-124203070D01*
X219310851Y-123277634D01*
X218962072Y-123206559D01*
X218962072Y-124119539D01*
X218981856Y-124184019D01*
X219033879Y-124215526D01*
X219329902Y-124309316D01*
X219329902Y-124450000D01*
X218208094Y-124450000D01*
X218208094Y-124309316D01*
X218496789Y-124218457D01*
X218548813Y-124187683D01*
X218568597Y-124125401D01*
X218568597Y-123021912D01*
X218962072Y-123021912D01*
X219025087Y-123030704D01*
X219114480Y-123037299D01*
X219206071Y-123041695D01*
X219280809Y-123043161D01*
X219431161Y-123031580D01*
X219544591Y-123002128D01*
X219679722Y-122931193D01*
X219729239Y-122890020D01*
X219818540Y-122771868D01*
X219839148Y-122727355D01*
X219873495Y-122584610D01*
X219875785Y-122534647D01*
X219861061Y-122388590D01*
X219834019Y-122303838D01*
X219750625Y-122177030D01*
X219713119Y-122143370D01*
X219578922Y-122070577D01*
X219515282Y-122051779D01*
X219362019Y-122027919D01*
X219241974Y-122023203D01*
X218962072Y-122023203D01*
X218962072Y-123021912D01*
X218568597Y-123021912D01*
X218568597Y-122101605D01*
X218547348Y-122042254D01*
X218496789Y-122012212D01*
X218208094Y-121917690D01*
X218208094Y-121777006D01*
X219307187Y-121777006D01*
X219464823Y-121781601D01*
G37*
G36*
X218236671Y-128645896D02*
G01*
X218457955Y-128645896D01*
X218536357Y-129038639D01*
X218570062Y-129093593D01*
X218620621Y-129133893D01*
X218734926Y-129202037D01*
X218863886Y-129259190D01*
X219002372Y-129299490D01*
X219149651Y-129314145D01*
X219303463Y-129303944D01*
X219411235Y-129281905D01*
X219549330Y-129227283D01*
X219609071Y-129188848D01*
X219712451Y-129077025D01*
X219732903Y-129040104D01*
X219773432Y-128896947D01*
X219776133Y-128843733D01*
X219751221Y-128695355D01*
X219676482Y-128574089D01*
X219560528Y-128475720D01*
X219431119Y-128406177D01*
X219410502Y-128397501D01*
X219270013Y-128344848D01*
X219250034Y-128338150D01*
X219110827Y-128291267D01*
X219091032Y-128284661D01*
X218950132Y-128236726D01*
X218935694Y-128231905D01*
X218795302Y-128179869D01*
X218786217Y-128176217D01*
X218653768Y-128111216D01*
X218530058Y-128022855D01*
X218429378Y-127916831D01*
X218350793Y-127781093D01*
X218310619Y-127639287D01*
X218300418Y-127510900D01*
X218318004Y-127358126D01*
X218370760Y-127216343D01*
X218454108Y-127089214D01*
X218563468Y-126980404D01*
X218688210Y-126896802D01*
X218831629Y-126832842D01*
X218852163Y-126825799D01*
X219002469Y-126787731D01*
X219150579Y-126771471D01*
X219209734Y-126770111D01*
X219356920Y-126774529D01*
X219431751Y-126780369D01*
X219582718Y-126798901D01*
X219639113Y-126808213D01*
X219784880Y-126837064D01*
X219831821Y-126847780D01*
X219978201Y-126882533D01*
X220010607Y-126890279D01*
X220010607Y-127567320D01*
X219791521Y-127567320D01*
X219716050Y-127217808D01*
X219683077Y-127168715D01*
X219631786Y-127130614D01*
X219554849Y-127086650D01*
X219458862Y-127050013D01*
X219346755Y-127025101D01*
X219221458Y-127016308D01*
X219073430Y-127026124D01*
X218984054Y-127044152D01*
X218845706Y-127097870D01*
X218807466Y-127121088D01*
X218702451Y-127227949D01*
X218697557Y-127236127D01*
X218660188Y-127378276D01*
X218677773Y-127518227D01*
X218740055Y-127647187D01*
X218844413Y-127750797D01*
X218858025Y-127760760D01*
X218991702Y-127832888D01*
X219046336Y-127853817D01*
X219185912Y-127901258D01*
X219195080Y-127904375D01*
X219337734Y-127954019D01*
X219342358Y-127955666D01*
X219483695Y-128006327D01*
X219493300Y-128009888D01*
X219634671Y-128064385D01*
X219655966Y-128072903D01*
X219788895Y-128137433D01*
X219839881Y-128167424D01*
X219959973Y-128259670D01*
X220001814Y-128302979D01*
X220087703Y-128425957D01*
X220117585Y-128490558D01*
X220154737Y-128640080D01*
X220160816Y-128744082D01*
X220145978Y-128893009D01*
X220101465Y-129037906D01*
X220025811Y-129172728D01*
X219923941Y-129284483D01*
X219916085Y-129291430D01*
X219791143Y-129379967D01*
X219650010Y-129447362D01*
X219589288Y-129469483D01*
X219443003Y-129507863D01*
X219293939Y-129528929D01*
X219146688Y-129536631D01*
X219112281Y-129536894D01*
X218961156Y-129528239D01*
X218908583Y-129521507D01*
X218761078Y-129496855D01*
X218692428Y-129482672D01*
X218546579Y-129447450D01*
X218469678Y-129426985D01*
X218323815Y-129386909D01*
X218247662Y-129366168D01*
X218236671Y-128645896D01*
G37*
D11*
X176410476Y-51863200D02*
X176553333Y-51910819D01*
X176553333Y-51910819D02*
X176791428Y-51910819D01*
X176791428Y-51910819D02*
X176886666Y-51863200D01*
X176886666Y-51863200D02*
X176934285Y-51815580D01*
X176934285Y-51815580D02*
X176981904Y-51720342D01*
X176981904Y-51720342D02*
X176981904Y-51625104D01*
X176981904Y-51625104D02*
X176934285Y-51529866D01*
X176934285Y-51529866D02*
X176886666Y-51482247D01*
X176886666Y-51482247D02*
X176791428Y-51434628D01*
X176791428Y-51434628D02*
X176600952Y-51387009D01*
X176600952Y-51387009D02*
X176505714Y-51339390D01*
X176505714Y-51339390D02*
X176458095Y-51291771D01*
X176458095Y-51291771D02*
X176410476Y-51196533D01*
X176410476Y-51196533D02*
X176410476Y-51101295D01*
X176410476Y-51101295D02*
X176458095Y-51006057D01*
X176458095Y-51006057D02*
X176505714Y-50958438D01*
X176505714Y-50958438D02*
X176600952Y-50910819D01*
X176600952Y-50910819D02*
X176839047Y-50910819D01*
X176839047Y-50910819D02*
X176981904Y-50958438D01*
X177315238Y-50910819D02*
X177553333Y-51910819D01*
X177553333Y-51910819D02*
X177743809Y-51196533D01*
X177743809Y-51196533D02*
X177934285Y-51910819D01*
X177934285Y-51910819D02*
X178172381Y-50910819D01*
X178505714Y-51006057D02*
X178553333Y-50958438D01*
X178553333Y-50958438D02*
X178648571Y-50910819D01*
X178648571Y-50910819D02*
X178886666Y-50910819D01*
X178886666Y-50910819D02*
X178981904Y-50958438D01*
X178981904Y-50958438D02*
X179029523Y-51006057D01*
X179029523Y-51006057D02*
X179077142Y-51101295D01*
X179077142Y-51101295D02*
X179077142Y-51196533D01*
X179077142Y-51196533D02*
X179029523Y-51339390D01*
X179029523Y-51339390D02*
X178458095Y-51910819D01*
X178458095Y-51910819D02*
X179077142Y-51910819D01*
X179934285Y-50910819D02*
X179743809Y-50910819D01*
X179743809Y-50910819D02*
X179648571Y-50958438D01*
X179648571Y-50958438D02*
X179600952Y-51006057D01*
X179600952Y-51006057D02*
X179505714Y-51148914D01*
X179505714Y-51148914D02*
X179458095Y-51339390D01*
X179458095Y-51339390D02*
X179458095Y-51720342D01*
X179458095Y-51720342D02*
X179505714Y-51815580D01*
X179505714Y-51815580D02*
X179553333Y-51863200D01*
X179553333Y-51863200D02*
X179648571Y-51910819D01*
X179648571Y-51910819D02*
X179839047Y-51910819D01*
X179839047Y-51910819D02*
X179934285Y-51863200D01*
X179934285Y-51863200D02*
X179981904Y-51815580D01*
X179981904Y-51815580D02*
X180029523Y-51720342D01*
X180029523Y-51720342D02*
X180029523Y-51482247D01*
X180029523Y-51482247D02*
X179981904Y-51387009D01*
X179981904Y-51387009D02*
X179934285Y-51339390D01*
X179934285Y-51339390D02*
X179839047Y-51291771D01*
X179839047Y-51291771D02*
X179648571Y-51291771D01*
X179648571Y-51291771D02*
X179553333Y-51339390D01*
X179553333Y-51339390D02*
X179505714Y-51387009D01*
X179505714Y-51387009D02*
X179458095Y-51482247D01*
X109808333Y-36179580D02*
X109760714Y-36227200D01*
X109760714Y-36227200D02*
X109617857Y-36274819D01*
X109617857Y-36274819D02*
X109522619Y-36274819D01*
X109522619Y-36274819D02*
X109379762Y-36227200D01*
X109379762Y-36227200D02*
X109284524Y-36131961D01*
X109284524Y-36131961D02*
X109236905Y-36036723D01*
X109236905Y-36036723D02*
X109189286Y-35846247D01*
X109189286Y-35846247D02*
X109189286Y-35703390D01*
X109189286Y-35703390D02*
X109236905Y-35512914D01*
X109236905Y-35512914D02*
X109284524Y-35417676D01*
X109284524Y-35417676D02*
X109379762Y-35322438D01*
X109379762Y-35322438D02*
X109522619Y-35274819D01*
X109522619Y-35274819D02*
X109617857Y-35274819D01*
X109617857Y-35274819D02*
X109760714Y-35322438D01*
X109760714Y-35322438D02*
X109808333Y-35370057D01*
X110665476Y-35274819D02*
X110475000Y-35274819D01*
X110475000Y-35274819D02*
X110379762Y-35322438D01*
X110379762Y-35322438D02*
X110332143Y-35370057D01*
X110332143Y-35370057D02*
X110236905Y-35512914D01*
X110236905Y-35512914D02*
X110189286Y-35703390D01*
X110189286Y-35703390D02*
X110189286Y-36084342D01*
X110189286Y-36084342D02*
X110236905Y-36179580D01*
X110236905Y-36179580D02*
X110284524Y-36227200D01*
X110284524Y-36227200D02*
X110379762Y-36274819D01*
X110379762Y-36274819D02*
X110570238Y-36274819D01*
X110570238Y-36274819D02*
X110665476Y-36227200D01*
X110665476Y-36227200D02*
X110713095Y-36179580D01*
X110713095Y-36179580D02*
X110760714Y-36084342D01*
X110760714Y-36084342D02*
X110760714Y-35846247D01*
X110760714Y-35846247D02*
X110713095Y-35751009D01*
X110713095Y-35751009D02*
X110665476Y-35703390D01*
X110665476Y-35703390D02*
X110570238Y-35655771D01*
X110570238Y-35655771D02*
X110379762Y-35655771D01*
X110379762Y-35655771D02*
X110284524Y-35703390D01*
X110284524Y-35703390D02*
X110236905Y-35751009D01*
X110236905Y-35751009D02*
X110189286Y-35846247D01*
X108289580Y-45666666D02*
X108337200Y-45714285D01*
X108337200Y-45714285D02*
X108384819Y-45857142D01*
X108384819Y-45857142D02*
X108384819Y-45952380D01*
X108384819Y-45952380D02*
X108337200Y-46095237D01*
X108337200Y-46095237D02*
X108241961Y-46190475D01*
X108241961Y-46190475D02*
X108146723Y-46238094D01*
X108146723Y-46238094D02*
X107956247Y-46285713D01*
X107956247Y-46285713D02*
X107813390Y-46285713D01*
X107813390Y-46285713D02*
X107622914Y-46238094D01*
X107622914Y-46238094D02*
X107527676Y-46190475D01*
X107527676Y-46190475D02*
X107432438Y-46095237D01*
X107432438Y-46095237D02*
X107384819Y-45952380D01*
X107384819Y-45952380D02*
X107384819Y-45857142D01*
X107384819Y-45857142D02*
X107432438Y-45714285D01*
X107432438Y-45714285D02*
X107480057Y-45666666D01*
X107718152Y-44809523D02*
X108384819Y-44809523D01*
X107337200Y-45047618D02*
X108051485Y-45285713D01*
X108051485Y-45285713D02*
X108051485Y-44666666D01*
X118543333Y-40124819D02*
X118210000Y-39648628D01*
X117971905Y-40124819D02*
X117971905Y-39124819D01*
X117971905Y-39124819D02*
X118352857Y-39124819D01*
X118352857Y-39124819D02*
X118448095Y-39172438D01*
X118448095Y-39172438D02*
X118495714Y-39220057D01*
X118495714Y-39220057D02*
X118543333Y-39315295D01*
X118543333Y-39315295D02*
X118543333Y-39458152D01*
X118543333Y-39458152D02*
X118495714Y-39553390D01*
X118495714Y-39553390D02*
X118448095Y-39601009D01*
X118448095Y-39601009D02*
X118352857Y-39648628D01*
X118352857Y-39648628D02*
X117971905Y-39648628D01*
X119495714Y-40124819D02*
X118924286Y-40124819D01*
X119210000Y-40124819D02*
X119210000Y-39124819D01*
X119210000Y-39124819D02*
X119114762Y-39267676D01*
X119114762Y-39267676D02*
X119019524Y-39362914D01*
X119019524Y-39362914D02*
X118924286Y-39410533D01*
X156910476Y-66823200D02*
X157053333Y-66870819D01*
X157053333Y-66870819D02*
X157291428Y-66870819D01*
X157291428Y-66870819D02*
X157386666Y-66823200D01*
X157386666Y-66823200D02*
X157434285Y-66775580D01*
X157434285Y-66775580D02*
X157481904Y-66680342D01*
X157481904Y-66680342D02*
X157481904Y-66585104D01*
X157481904Y-66585104D02*
X157434285Y-66489866D01*
X157434285Y-66489866D02*
X157386666Y-66442247D01*
X157386666Y-66442247D02*
X157291428Y-66394628D01*
X157291428Y-66394628D02*
X157100952Y-66347009D01*
X157100952Y-66347009D02*
X157005714Y-66299390D01*
X157005714Y-66299390D02*
X156958095Y-66251771D01*
X156958095Y-66251771D02*
X156910476Y-66156533D01*
X156910476Y-66156533D02*
X156910476Y-66061295D01*
X156910476Y-66061295D02*
X156958095Y-65966057D01*
X156958095Y-65966057D02*
X157005714Y-65918438D01*
X157005714Y-65918438D02*
X157100952Y-65870819D01*
X157100952Y-65870819D02*
X157339047Y-65870819D01*
X157339047Y-65870819D02*
X157481904Y-65918438D01*
X157815238Y-65870819D02*
X158053333Y-66870819D01*
X158053333Y-66870819D02*
X158243809Y-66156533D01*
X158243809Y-66156533D02*
X158434285Y-66870819D01*
X158434285Y-66870819D02*
X158672381Y-65870819D01*
X159005714Y-65966057D02*
X159053333Y-65918438D01*
X159053333Y-65918438D02*
X159148571Y-65870819D01*
X159148571Y-65870819D02*
X159386666Y-65870819D01*
X159386666Y-65870819D02*
X159481904Y-65918438D01*
X159481904Y-65918438D02*
X159529523Y-65966057D01*
X159529523Y-65966057D02*
X159577142Y-66061295D01*
X159577142Y-66061295D02*
X159577142Y-66156533D01*
X159577142Y-66156533D02*
X159529523Y-66299390D01*
X159529523Y-66299390D02*
X158958095Y-66870819D01*
X158958095Y-66870819D02*
X159577142Y-66870819D01*
X159958095Y-65966057D02*
X160005714Y-65918438D01*
X160005714Y-65918438D02*
X160100952Y-65870819D01*
X160100952Y-65870819D02*
X160339047Y-65870819D01*
X160339047Y-65870819D02*
X160434285Y-65918438D01*
X160434285Y-65918438D02*
X160481904Y-65966057D01*
X160481904Y-65966057D02*
X160529523Y-66061295D01*
X160529523Y-66061295D02*
X160529523Y-66156533D01*
X160529523Y-66156533D02*
X160481904Y-66299390D01*
X160481904Y-66299390D02*
X159910476Y-66870819D01*
X159910476Y-66870819D02*
X160529523Y-66870819D01*
X176410476Y-71363200D02*
X176553333Y-71410819D01*
X176553333Y-71410819D02*
X176791428Y-71410819D01*
X176791428Y-71410819D02*
X176886666Y-71363200D01*
X176886666Y-71363200D02*
X176934285Y-71315580D01*
X176934285Y-71315580D02*
X176981904Y-71220342D01*
X176981904Y-71220342D02*
X176981904Y-71125104D01*
X176981904Y-71125104D02*
X176934285Y-71029866D01*
X176934285Y-71029866D02*
X176886666Y-70982247D01*
X176886666Y-70982247D02*
X176791428Y-70934628D01*
X176791428Y-70934628D02*
X176600952Y-70887009D01*
X176600952Y-70887009D02*
X176505714Y-70839390D01*
X176505714Y-70839390D02*
X176458095Y-70791771D01*
X176458095Y-70791771D02*
X176410476Y-70696533D01*
X176410476Y-70696533D02*
X176410476Y-70601295D01*
X176410476Y-70601295D02*
X176458095Y-70506057D01*
X176458095Y-70506057D02*
X176505714Y-70458438D01*
X176505714Y-70458438D02*
X176600952Y-70410819D01*
X176600952Y-70410819D02*
X176839047Y-70410819D01*
X176839047Y-70410819D02*
X176981904Y-70458438D01*
X177315238Y-70410819D02*
X177553333Y-71410819D01*
X177553333Y-71410819D02*
X177743809Y-70696533D01*
X177743809Y-70696533D02*
X177934285Y-71410819D01*
X177934285Y-71410819D02*
X178172381Y-70410819D01*
X178505714Y-70506057D02*
X178553333Y-70458438D01*
X178553333Y-70458438D02*
X178648571Y-70410819D01*
X178648571Y-70410819D02*
X178886666Y-70410819D01*
X178886666Y-70410819D02*
X178981904Y-70458438D01*
X178981904Y-70458438D02*
X179029523Y-70506057D01*
X179029523Y-70506057D02*
X179077142Y-70601295D01*
X179077142Y-70601295D02*
X179077142Y-70696533D01*
X179077142Y-70696533D02*
X179029523Y-70839390D01*
X179029523Y-70839390D02*
X178458095Y-71410819D01*
X178458095Y-71410819D02*
X179077142Y-71410819D01*
X179410476Y-70410819D02*
X180077142Y-70410819D01*
X180077142Y-70410819D02*
X179648571Y-71410819D01*
X195910476Y-54863200D02*
X196053333Y-54910819D01*
X196053333Y-54910819D02*
X196291428Y-54910819D01*
X196291428Y-54910819D02*
X196386666Y-54863200D01*
X196386666Y-54863200D02*
X196434285Y-54815580D01*
X196434285Y-54815580D02*
X196481904Y-54720342D01*
X196481904Y-54720342D02*
X196481904Y-54625104D01*
X196481904Y-54625104D02*
X196434285Y-54529866D01*
X196434285Y-54529866D02*
X196386666Y-54482247D01*
X196386666Y-54482247D02*
X196291428Y-54434628D01*
X196291428Y-54434628D02*
X196100952Y-54387009D01*
X196100952Y-54387009D02*
X196005714Y-54339390D01*
X196005714Y-54339390D02*
X195958095Y-54291771D01*
X195958095Y-54291771D02*
X195910476Y-54196533D01*
X195910476Y-54196533D02*
X195910476Y-54101295D01*
X195910476Y-54101295D02*
X195958095Y-54006057D01*
X195958095Y-54006057D02*
X196005714Y-53958438D01*
X196005714Y-53958438D02*
X196100952Y-53910819D01*
X196100952Y-53910819D02*
X196339047Y-53910819D01*
X196339047Y-53910819D02*
X196481904Y-53958438D01*
X196815238Y-53910819D02*
X197053333Y-54910819D01*
X197053333Y-54910819D02*
X197243809Y-54196533D01*
X197243809Y-54196533D02*
X197434285Y-54910819D01*
X197434285Y-54910819D02*
X197672381Y-53910819D01*
X197958095Y-53910819D02*
X198577142Y-53910819D01*
X198577142Y-53910819D02*
X198243809Y-54291771D01*
X198243809Y-54291771D02*
X198386666Y-54291771D01*
X198386666Y-54291771D02*
X198481904Y-54339390D01*
X198481904Y-54339390D02*
X198529523Y-54387009D01*
X198529523Y-54387009D02*
X198577142Y-54482247D01*
X198577142Y-54482247D02*
X198577142Y-54720342D01*
X198577142Y-54720342D02*
X198529523Y-54815580D01*
X198529523Y-54815580D02*
X198481904Y-54863200D01*
X198481904Y-54863200D02*
X198386666Y-54910819D01*
X198386666Y-54910819D02*
X198100952Y-54910819D01*
X198100952Y-54910819D02*
X198005714Y-54863200D01*
X198005714Y-54863200D02*
X197958095Y-54815580D01*
X199529523Y-54910819D02*
X198958095Y-54910819D01*
X199243809Y-54910819D02*
X199243809Y-53910819D01*
X199243809Y-53910819D02*
X199148571Y-54053676D01*
X199148571Y-54053676D02*
X199053333Y-54148914D01*
X199053333Y-54148914D02*
X198958095Y-54196533D01*
X213416666Y-51404819D02*
X213416666Y-52119104D01*
X213416666Y-52119104D02*
X213369047Y-52261961D01*
X213369047Y-52261961D02*
X213273809Y-52357200D01*
X213273809Y-52357200D02*
X213130952Y-52404819D01*
X213130952Y-52404819D02*
X213035714Y-52404819D01*
X213845238Y-51500057D02*
X213892857Y-51452438D01*
X213892857Y-51452438D02*
X213988095Y-51404819D01*
X213988095Y-51404819D02*
X214226190Y-51404819D01*
X214226190Y-51404819D02*
X214321428Y-51452438D01*
X214321428Y-51452438D02*
X214369047Y-51500057D01*
X214369047Y-51500057D02*
X214416666Y-51595295D01*
X214416666Y-51595295D02*
X214416666Y-51690533D01*
X214416666Y-51690533D02*
X214369047Y-51833390D01*
X214369047Y-51833390D02*
X213797619Y-52404819D01*
X213797619Y-52404819D02*
X214416666Y-52404819D01*
X98806667Y-71823200D02*
X98949524Y-71870819D01*
X98949524Y-71870819D02*
X99187619Y-71870819D01*
X99187619Y-71870819D02*
X99282857Y-71823200D01*
X99282857Y-71823200D02*
X99330476Y-71775580D01*
X99330476Y-71775580D02*
X99378095Y-71680342D01*
X99378095Y-71680342D02*
X99378095Y-71585104D01*
X99378095Y-71585104D02*
X99330476Y-71489866D01*
X99330476Y-71489866D02*
X99282857Y-71442247D01*
X99282857Y-71442247D02*
X99187619Y-71394628D01*
X99187619Y-71394628D02*
X98997143Y-71347009D01*
X98997143Y-71347009D02*
X98901905Y-71299390D01*
X98901905Y-71299390D02*
X98854286Y-71251771D01*
X98854286Y-71251771D02*
X98806667Y-71156533D01*
X98806667Y-71156533D02*
X98806667Y-71061295D01*
X98806667Y-71061295D02*
X98854286Y-70966057D01*
X98854286Y-70966057D02*
X98901905Y-70918438D01*
X98901905Y-70918438D02*
X98997143Y-70870819D01*
X98997143Y-70870819D02*
X99235238Y-70870819D01*
X99235238Y-70870819D02*
X99378095Y-70918438D01*
X99711429Y-70870819D02*
X99949524Y-71870819D01*
X99949524Y-71870819D02*
X100140000Y-71156533D01*
X100140000Y-71156533D02*
X100330476Y-71870819D01*
X100330476Y-71870819D02*
X100568572Y-70870819D01*
X100854286Y-70870819D02*
X101520952Y-70870819D01*
X101520952Y-70870819D02*
X101092381Y-71870819D01*
X156750476Y-125323200D02*
X156893333Y-125370819D01*
X156893333Y-125370819D02*
X157131428Y-125370819D01*
X157131428Y-125370819D02*
X157226666Y-125323200D01*
X157226666Y-125323200D02*
X157274285Y-125275580D01*
X157274285Y-125275580D02*
X157321904Y-125180342D01*
X157321904Y-125180342D02*
X157321904Y-125085104D01*
X157321904Y-125085104D02*
X157274285Y-124989866D01*
X157274285Y-124989866D02*
X157226666Y-124942247D01*
X157226666Y-124942247D02*
X157131428Y-124894628D01*
X157131428Y-124894628D02*
X156940952Y-124847009D01*
X156940952Y-124847009D02*
X156845714Y-124799390D01*
X156845714Y-124799390D02*
X156798095Y-124751771D01*
X156798095Y-124751771D02*
X156750476Y-124656533D01*
X156750476Y-124656533D02*
X156750476Y-124561295D01*
X156750476Y-124561295D02*
X156798095Y-124466057D01*
X156798095Y-124466057D02*
X156845714Y-124418438D01*
X156845714Y-124418438D02*
X156940952Y-124370819D01*
X156940952Y-124370819D02*
X157179047Y-124370819D01*
X157179047Y-124370819D02*
X157321904Y-124418438D01*
X157655238Y-124370819D02*
X157893333Y-125370819D01*
X157893333Y-125370819D02*
X158083809Y-124656533D01*
X158083809Y-124656533D02*
X158274285Y-125370819D01*
X158274285Y-125370819D02*
X158512381Y-124370819D01*
X158845714Y-124466057D02*
X158893333Y-124418438D01*
X158893333Y-124418438D02*
X158988571Y-124370819D01*
X158988571Y-124370819D02*
X159226666Y-124370819D01*
X159226666Y-124370819D02*
X159321904Y-124418438D01*
X159321904Y-124418438D02*
X159369523Y-124466057D01*
X159369523Y-124466057D02*
X159417142Y-124561295D01*
X159417142Y-124561295D02*
X159417142Y-124656533D01*
X159417142Y-124656533D02*
X159369523Y-124799390D01*
X159369523Y-124799390D02*
X158798095Y-125370819D01*
X158798095Y-125370819D02*
X159417142Y-125370819D01*
X160321904Y-124370819D02*
X159845714Y-124370819D01*
X159845714Y-124370819D02*
X159798095Y-124847009D01*
X159798095Y-124847009D02*
X159845714Y-124799390D01*
X159845714Y-124799390D02*
X159940952Y-124751771D01*
X159940952Y-124751771D02*
X160179047Y-124751771D01*
X160179047Y-124751771D02*
X160274285Y-124799390D01*
X160274285Y-124799390D02*
X160321904Y-124847009D01*
X160321904Y-124847009D02*
X160369523Y-124942247D01*
X160369523Y-124942247D02*
X160369523Y-125180342D01*
X160369523Y-125180342D02*
X160321904Y-125275580D01*
X160321904Y-125275580D02*
X160274285Y-125323200D01*
X160274285Y-125323200D02*
X160179047Y-125370819D01*
X160179047Y-125370819D02*
X159940952Y-125370819D01*
X159940952Y-125370819D02*
X159845714Y-125323200D01*
X159845714Y-125323200D02*
X159798095Y-125275580D01*
X176250476Y-90863200D02*
X176393333Y-90910819D01*
X176393333Y-90910819D02*
X176631428Y-90910819D01*
X176631428Y-90910819D02*
X176726666Y-90863200D01*
X176726666Y-90863200D02*
X176774285Y-90815580D01*
X176774285Y-90815580D02*
X176821904Y-90720342D01*
X176821904Y-90720342D02*
X176821904Y-90625104D01*
X176821904Y-90625104D02*
X176774285Y-90529866D01*
X176774285Y-90529866D02*
X176726666Y-90482247D01*
X176726666Y-90482247D02*
X176631428Y-90434628D01*
X176631428Y-90434628D02*
X176440952Y-90387009D01*
X176440952Y-90387009D02*
X176345714Y-90339390D01*
X176345714Y-90339390D02*
X176298095Y-90291771D01*
X176298095Y-90291771D02*
X176250476Y-90196533D01*
X176250476Y-90196533D02*
X176250476Y-90101295D01*
X176250476Y-90101295D02*
X176298095Y-90006057D01*
X176298095Y-90006057D02*
X176345714Y-89958438D01*
X176345714Y-89958438D02*
X176440952Y-89910819D01*
X176440952Y-89910819D02*
X176679047Y-89910819D01*
X176679047Y-89910819D02*
X176821904Y-89958438D01*
X177155238Y-89910819D02*
X177393333Y-90910819D01*
X177393333Y-90910819D02*
X177583809Y-90196533D01*
X177583809Y-90196533D02*
X177774285Y-90910819D01*
X177774285Y-90910819D02*
X178012381Y-89910819D01*
X178345714Y-90006057D02*
X178393333Y-89958438D01*
X178393333Y-89958438D02*
X178488571Y-89910819D01*
X178488571Y-89910819D02*
X178726666Y-89910819D01*
X178726666Y-89910819D02*
X178821904Y-89958438D01*
X178821904Y-89958438D02*
X178869523Y-90006057D01*
X178869523Y-90006057D02*
X178917142Y-90101295D01*
X178917142Y-90101295D02*
X178917142Y-90196533D01*
X178917142Y-90196533D02*
X178869523Y-90339390D01*
X178869523Y-90339390D02*
X178298095Y-90910819D01*
X178298095Y-90910819D02*
X178917142Y-90910819D01*
X179488571Y-90339390D02*
X179393333Y-90291771D01*
X179393333Y-90291771D02*
X179345714Y-90244152D01*
X179345714Y-90244152D02*
X179298095Y-90148914D01*
X179298095Y-90148914D02*
X179298095Y-90101295D01*
X179298095Y-90101295D02*
X179345714Y-90006057D01*
X179345714Y-90006057D02*
X179393333Y-89958438D01*
X179393333Y-89958438D02*
X179488571Y-89910819D01*
X179488571Y-89910819D02*
X179679047Y-89910819D01*
X179679047Y-89910819D02*
X179774285Y-89958438D01*
X179774285Y-89958438D02*
X179821904Y-90006057D01*
X179821904Y-90006057D02*
X179869523Y-90101295D01*
X179869523Y-90101295D02*
X179869523Y-90148914D01*
X179869523Y-90148914D02*
X179821904Y-90244152D01*
X179821904Y-90244152D02*
X179774285Y-90291771D01*
X179774285Y-90291771D02*
X179679047Y-90339390D01*
X179679047Y-90339390D02*
X179488571Y-90339390D01*
X179488571Y-90339390D02*
X179393333Y-90387009D01*
X179393333Y-90387009D02*
X179345714Y-90434628D01*
X179345714Y-90434628D02*
X179298095Y-90529866D01*
X179298095Y-90529866D02*
X179298095Y-90720342D01*
X179298095Y-90720342D02*
X179345714Y-90815580D01*
X179345714Y-90815580D02*
X179393333Y-90863200D01*
X179393333Y-90863200D02*
X179488571Y-90910819D01*
X179488571Y-90910819D02*
X179679047Y-90910819D01*
X179679047Y-90910819D02*
X179774285Y-90863200D01*
X179774285Y-90863200D02*
X179821904Y-90815580D01*
X179821904Y-90815580D02*
X179869523Y-90720342D01*
X179869523Y-90720342D02*
X179869523Y-90529866D01*
X179869523Y-90529866D02*
X179821904Y-90434628D01*
X179821904Y-90434628D02*
X179774285Y-90387009D01*
X179774285Y-90387009D02*
X179679047Y-90339390D01*
X156750476Y-105823200D02*
X156893333Y-105870819D01*
X156893333Y-105870819D02*
X157131428Y-105870819D01*
X157131428Y-105870819D02*
X157226666Y-105823200D01*
X157226666Y-105823200D02*
X157274285Y-105775580D01*
X157274285Y-105775580D02*
X157321904Y-105680342D01*
X157321904Y-105680342D02*
X157321904Y-105585104D01*
X157321904Y-105585104D02*
X157274285Y-105489866D01*
X157274285Y-105489866D02*
X157226666Y-105442247D01*
X157226666Y-105442247D02*
X157131428Y-105394628D01*
X157131428Y-105394628D02*
X156940952Y-105347009D01*
X156940952Y-105347009D02*
X156845714Y-105299390D01*
X156845714Y-105299390D02*
X156798095Y-105251771D01*
X156798095Y-105251771D02*
X156750476Y-105156533D01*
X156750476Y-105156533D02*
X156750476Y-105061295D01*
X156750476Y-105061295D02*
X156798095Y-104966057D01*
X156798095Y-104966057D02*
X156845714Y-104918438D01*
X156845714Y-104918438D02*
X156940952Y-104870819D01*
X156940952Y-104870819D02*
X157179047Y-104870819D01*
X157179047Y-104870819D02*
X157321904Y-104918438D01*
X157655238Y-104870819D02*
X157893333Y-105870819D01*
X157893333Y-105870819D02*
X158083809Y-105156533D01*
X158083809Y-105156533D02*
X158274285Y-105870819D01*
X158274285Y-105870819D02*
X158512381Y-104870819D01*
X158845714Y-104966057D02*
X158893333Y-104918438D01*
X158893333Y-104918438D02*
X158988571Y-104870819D01*
X158988571Y-104870819D02*
X159226666Y-104870819D01*
X159226666Y-104870819D02*
X159321904Y-104918438D01*
X159321904Y-104918438D02*
X159369523Y-104966057D01*
X159369523Y-104966057D02*
X159417142Y-105061295D01*
X159417142Y-105061295D02*
X159417142Y-105156533D01*
X159417142Y-105156533D02*
X159369523Y-105299390D01*
X159369523Y-105299390D02*
X158798095Y-105870819D01*
X158798095Y-105870819D02*
X159417142Y-105870819D01*
X160274285Y-105204152D02*
X160274285Y-105870819D01*
X160036190Y-104823200D02*
X159798095Y-105537485D01*
X159798095Y-105537485D02*
X160417142Y-105537485D01*
X200610476Y-113363200D02*
X200753333Y-113410819D01*
X200753333Y-113410819D02*
X200991428Y-113410819D01*
X200991428Y-113410819D02*
X201086666Y-113363200D01*
X201086666Y-113363200D02*
X201134285Y-113315580D01*
X201134285Y-113315580D02*
X201181904Y-113220342D01*
X201181904Y-113220342D02*
X201181904Y-113125104D01*
X201181904Y-113125104D02*
X201134285Y-113029866D01*
X201134285Y-113029866D02*
X201086666Y-112982247D01*
X201086666Y-112982247D02*
X200991428Y-112934628D01*
X200991428Y-112934628D02*
X200800952Y-112887009D01*
X200800952Y-112887009D02*
X200705714Y-112839390D01*
X200705714Y-112839390D02*
X200658095Y-112791771D01*
X200658095Y-112791771D02*
X200610476Y-112696533D01*
X200610476Y-112696533D02*
X200610476Y-112601295D01*
X200610476Y-112601295D02*
X200658095Y-112506057D01*
X200658095Y-112506057D02*
X200705714Y-112458438D01*
X200705714Y-112458438D02*
X200800952Y-112410819D01*
X200800952Y-112410819D02*
X201039047Y-112410819D01*
X201039047Y-112410819D02*
X201181904Y-112458438D01*
X201515238Y-112410819D02*
X201753333Y-113410819D01*
X201753333Y-113410819D02*
X201943809Y-112696533D01*
X201943809Y-112696533D02*
X202134285Y-113410819D01*
X202134285Y-113410819D02*
X202372381Y-112410819D01*
X202658095Y-112410819D02*
X203277142Y-112410819D01*
X203277142Y-112410819D02*
X202943809Y-112791771D01*
X202943809Y-112791771D02*
X203086666Y-112791771D01*
X203086666Y-112791771D02*
X203181904Y-112839390D01*
X203181904Y-112839390D02*
X203229523Y-112887009D01*
X203229523Y-112887009D02*
X203277142Y-112982247D01*
X203277142Y-112982247D02*
X203277142Y-113220342D01*
X203277142Y-113220342D02*
X203229523Y-113315580D01*
X203229523Y-113315580D02*
X203181904Y-113363200D01*
X203181904Y-113363200D02*
X203086666Y-113410819D01*
X203086666Y-113410819D02*
X202800952Y-113410819D01*
X202800952Y-113410819D02*
X202705714Y-113363200D01*
X202705714Y-113363200D02*
X202658095Y-113315580D01*
X204134285Y-112744152D02*
X204134285Y-113410819D01*
X203896190Y-112363200D02*
X203658095Y-113077485D01*
X203658095Y-113077485D02*
X204277142Y-113077485D01*
X76694819Y-48576666D02*
X76218628Y-48909999D01*
X76694819Y-49148094D02*
X75694819Y-49148094D01*
X75694819Y-49148094D02*
X75694819Y-48767142D01*
X75694819Y-48767142D02*
X75742438Y-48671904D01*
X75742438Y-48671904D02*
X75790057Y-48624285D01*
X75790057Y-48624285D02*
X75885295Y-48576666D01*
X75885295Y-48576666D02*
X76028152Y-48576666D01*
X76028152Y-48576666D02*
X76123390Y-48624285D01*
X76123390Y-48624285D02*
X76171009Y-48671904D01*
X76171009Y-48671904D02*
X76218628Y-48767142D01*
X76218628Y-48767142D02*
X76218628Y-49148094D01*
X75790057Y-48195713D02*
X75742438Y-48148094D01*
X75742438Y-48148094D02*
X75694819Y-48052856D01*
X75694819Y-48052856D02*
X75694819Y-47814761D01*
X75694819Y-47814761D02*
X75742438Y-47719523D01*
X75742438Y-47719523D02*
X75790057Y-47671904D01*
X75790057Y-47671904D02*
X75885295Y-47624285D01*
X75885295Y-47624285D02*
X75980533Y-47624285D01*
X75980533Y-47624285D02*
X76123390Y-47671904D01*
X76123390Y-47671904D02*
X76694819Y-48243332D01*
X76694819Y-48243332D02*
X76694819Y-47624285D01*
X98726667Y-110823200D02*
X98869524Y-110870819D01*
X98869524Y-110870819D02*
X99107619Y-110870819D01*
X99107619Y-110870819D02*
X99202857Y-110823200D01*
X99202857Y-110823200D02*
X99250476Y-110775580D01*
X99250476Y-110775580D02*
X99298095Y-110680342D01*
X99298095Y-110680342D02*
X99298095Y-110585104D01*
X99298095Y-110585104D02*
X99250476Y-110489866D01*
X99250476Y-110489866D02*
X99202857Y-110442247D01*
X99202857Y-110442247D02*
X99107619Y-110394628D01*
X99107619Y-110394628D02*
X98917143Y-110347009D01*
X98917143Y-110347009D02*
X98821905Y-110299390D01*
X98821905Y-110299390D02*
X98774286Y-110251771D01*
X98774286Y-110251771D02*
X98726667Y-110156533D01*
X98726667Y-110156533D02*
X98726667Y-110061295D01*
X98726667Y-110061295D02*
X98774286Y-109966057D01*
X98774286Y-109966057D02*
X98821905Y-109918438D01*
X98821905Y-109918438D02*
X98917143Y-109870819D01*
X98917143Y-109870819D02*
X99155238Y-109870819D01*
X99155238Y-109870819D02*
X99298095Y-109918438D01*
X99631429Y-109870819D02*
X99869524Y-110870819D01*
X99869524Y-110870819D02*
X100060000Y-110156533D01*
X100060000Y-110156533D02*
X100250476Y-110870819D01*
X100250476Y-110870819D02*
X100488572Y-109870819D01*
X100917143Y-110870819D02*
X101107619Y-110870819D01*
X101107619Y-110870819D02*
X101202857Y-110823200D01*
X101202857Y-110823200D02*
X101250476Y-110775580D01*
X101250476Y-110775580D02*
X101345714Y-110632723D01*
X101345714Y-110632723D02*
X101393333Y-110442247D01*
X101393333Y-110442247D02*
X101393333Y-110061295D01*
X101393333Y-110061295D02*
X101345714Y-109966057D01*
X101345714Y-109966057D02*
X101298095Y-109918438D01*
X101298095Y-109918438D02*
X101202857Y-109870819D01*
X101202857Y-109870819D02*
X101012381Y-109870819D01*
X101012381Y-109870819D02*
X100917143Y-109918438D01*
X100917143Y-109918438D02*
X100869524Y-109966057D01*
X100869524Y-109966057D02*
X100821905Y-110061295D01*
X100821905Y-110061295D02*
X100821905Y-110299390D01*
X100821905Y-110299390D02*
X100869524Y-110394628D01*
X100869524Y-110394628D02*
X100917143Y-110442247D01*
X100917143Y-110442247D02*
X101012381Y-110489866D01*
X101012381Y-110489866D02*
X101202857Y-110489866D01*
X101202857Y-110489866D02*
X101298095Y-110442247D01*
X101298095Y-110442247D02*
X101345714Y-110394628D01*
X101345714Y-110394628D02*
X101393333Y-110299390D01*
X98726667Y-91323200D02*
X98869524Y-91370819D01*
X98869524Y-91370819D02*
X99107619Y-91370819D01*
X99107619Y-91370819D02*
X99202857Y-91323200D01*
X99202857Y-91323200D02*
X99250476Y-91275580D01*
X99250476Y-91275580D02*
X99298095Y-91180342D01*
X99298095Y-91180342D02*
X99298095Y-91085104D01*
X99298095Y-91085104D02*
X99250476Y-90989866D01*
X99250476Y-90989866D02*
X99202857Y-90942247D01*
X99202857Y-90942247D02*
X99107619Y-90894628D01*
X99107619Y-90894628D02*
X98917143Y-90847009D01*
X98917143Y-90847009D02*
X98821905Y-90799390D01*
X98821905Y-90799390D02*
X98774286Y-90751771D01*
X98774286Y-90751771D02*
X98726667Y-90656533D01*
X98726667Y-90656533D02*
X98726667Y-90561295D01*
X98726667Y-90561295D02*
X98774286Y-90466057D01*
X98774286Y-90466057D02*
X98821905Y-90418438D01*
X98821905Y-90418438D02*
X98917143Y-90370819D01*
X98917143Y-90370819D02*
X99155238Y-90370819D01*
X99155238Y-90370819D02*
X99298095Y-90418438D01*
X99631429Y-90370819D02*
X99869524Y-91370819D01*
X99869524Y-91370819D02*
X100060000Y-90656533D01*
X100060000Y-90656533D02*
X100250476Y-91370819D01*
X100250476Y-91370819D02*
X100488572Y-90370819D01*
X101012381Y-90799390D02*
X100917143Y-90751771D01*
X100917143Y-90751771D02*
X100869524Y-90704152D01*
X100869524Y-90704152D02*
X100821905Y-90608914D01*
X100821905Y-90608914D02*
X100821905Y-90561295D01*
X100821905Y-90561295D02*
X100869524Y-90466057D01*
X100869524Y-90466057D02*
X100917143Y-90418438D01*
X100917143Y-90418438D02*
X101012381Y-90370819D01*
X101012381Y-90370819D02*
X101202857Y-90370819D01*
X101202857Y-90370819D02*
X101298095Y-90418438D01*
X101298095Y-90418438D02*
X101345714Y-90466057D01*
X101345714Y-90466057D02*
X101393333Y-90561295D01*
X101393333Y-90561295D02*
X101393333Y-90608914D01*
X101393333Y-90608914D02*
X101345714Y-90704152D01*
X101345714Y-90704152D02*
X101298095Y-90751771D01*
X101298095Y-90751771D02*
X101202857Y-90799390D01*
X101202857Y-90799390D02*
X101012381Y-90799390D01*
X101012381Y-90799390D02*
X100917143Y-90847009D01*
X100917143Y-90847009D02*
X100869524Y-90894628D01*
X100869524Y-90894628D02*
X100821905Y-90989866D01*
X100821905Y-90989866D02*
X100821905Y-91180342D01*
X100821905Y-91180342D02*
X100869524Y-91275580D01*
X100869524Y-91275580D02*
X100917143Y-91323200D01*
X100917143Y-91323200D02*
X101012381Y-91370819D01*
X101012381Y-91370819D02*
X101202857Y-91370819D01*
X101202857Y-91370819D02*
X101298095Y-91323200D01*
X101298095Y-91323200D02*
X101345714Y-91275580D01*
X101345714Y-91275580D02*
X101393333Y-91180342D01*
X101393333Y-91180342D02*
X101393333Y-90989866D01*
X101393333Y-90989866D02*
X101345714Y-90894628D01*
X101345714Y-90894628D02*
X101298095Y-90847009D01*
X101298095Y-90847009D02*
X101202857Y-90799390D01*
X117750476Y-83323200D02*
X117893333Y-83370819D01*
X117893333Y-83370819D02*
X118131428Y-83370819D01*
X118131428Y-83370819D02*
X118226666Y-83323200D01*
X118226666Y-83323200D02*
X118274285Y-83275580D01*
X118274285Y-83275580D02*
X118321904Y-83180342D01*
X118321904Y-83180342D02*
X118321904Y-83085104D01*
X118321904Y-83085104D02*
X118274285Y-82989866D01*
X118274285Y-82989866D02*
X118226666Y-82942247D01*
X118226666Y-82942247D02*
X118131428Y-82894628D01*
X118131428Y-82894628D02*
X117940952Y-82847009D01*
X117940952Y-82847009D02*
X117845714Y-82799390D01*
X117845714Y-82799390D02*
X117798095Y-82751771D01*
X117798095Y-82751771D02*
X117750476Y-82656533D01*
X117750476Y-82656533D02*
X117750476Y-82561295D01*
X117750476Y-82561295D02*
X117798095Y-82466057D01*
X117798095Y-82466057D02*
X117845714Y-82418438D01*
X117845714Y-82418438D02*
X117940952Y-82370819D01*
X117940952Y-82370819D02*
X118179047Y-82370819D01*
X118179047Y-82370819D02*
X118321904Y-82418438D01*
X118655238Y-82370819D02*
X118893333Y-83370819D01*
X118893333Y-83370819D02*
X119083809Y-82656533D01*
X119083809Y-82656533D02*
X119274285Y-83370819D01*
X119274285Y-83370819D02*
X119512381Y-82370819D01*
X120417142Y-83370819D02*
X119845714Y-83370819D01*
X120131428Y-83370819D02*
X120131428Y-82370819D01*
X120131428Y-82370819D02*
X120036190Y-82513676D01*
X120036190Y-82513676D02*
X119940952Y-82608914D01*
X119940952Y-82608914D02*
X119845714Y-82656533D01*
X120750476Y-82370819D02*
X121369523Y-82370819D01*
X121369523Y-82370819D02*
X121036190Y-82751771D01*
X121036190Y-82751771D02*
X121179047Y-82751771D01*
X121179047Y-82751771D02*
X121274285Y-82799390D01*
X121274285Y-82799390D02*
X121321904Y-82847009D01*
X121321904Y-82847009D02*
X121369523Y-82942247D01*
X121369523Y-82942247D02*
X121369523Y-83180342D01*
X121369523Y-83180342D02*
X121321904Y-83275580D01*
X121321904Y-83275580D02*
X121274285Y-83323200D01*
X121274285Y-83323200D02*
X121179047Y-83370819D01*
X121179047Y-83370819D02*
X120893333Y-83370819D01*
X120893333Y-83370819D02*
X120798095Y-83323200D01*
X120798095Y-83323200D02*
X120750476Y-83275580D01*
X116690476Y-32157200D02*
X116833333Y-32204819D01*
X116833333Y-32204819D02*
X117071428Y-32204819D01*
X117071428Y-32204819D02*
X117166666Y-32157200D01*
X117166666Y-32157200D02*
X117214285Y-32109580D01*
X117214285Y-32109580D02*
X117261904Y-32014342D01*
X117261904Y-32014342D02*
X117261904Y-31919104D01*
X117261904Y-31919104D02*
X117214285Y-31823866D01*
X117214285Y-31823866D02*
X117166666Y-31776247D01*
X117166666Y-31776247D02*
X117071428Y-31728628D01*
X117071428Y-31728628D02*
X116880952Y-31681009D01*
X116880952Y-31681009D02*
X116785714Y-31633390D01*
X116785714Y-31633390D02*
X116738095Y-31585771D01*
X116738095Y-31585771D02*
X116690476Y-31490533D01*
X116690476Y-31490533D02*
X116690476Y-31395295D01*
X116690476Y-31395295D02*
X116738095Y-31300057D01*
X116738095Y-31300057D02*
X116785714Y-31252438D01*
X116785714Y-31252438D02*
X116880952Y-31204819D01*
X116880952Y-31204819D02*
X117119047Y-31204819D01*
X117119047Y-31204819D02*
X117261904Y-31252438D01*
X117595238Y-31204819D02*
X117833333Y-32204819D01*
X117833333Y-32204819D02*
X118023809Y-31490533D01*
X118023809Y-31490533D02*
X118214285Y-32204819D01*
X118214285Y-32204819D02*
X118452381Y-31204819D01*
X118738095Y-31204819D02*
X119357142Y-31204819D01*
X119357142Y-31204819D02*
X119023809Y-31585771D01*
X119023809Y-31585771D02*
X119166666Y-31585771D01*
X119166666Y-31585771D02*
X119261904Y-31633390D01*
X119261904Y-31633390D02*
X119309523Y-31681009D01*
X119309523Y-31681009D02*
X119357142Y-31776247D01*
X119357142Y-31776247D02*
X119357142Y-32014342D01*
X119357142Y-32014342D02*
X119309523Y-32109580D01*
X119309523Y-32109580D02*
X119261904Y-32157200D01*
X119261904Y-32157200D02*
X119166666Y-32204819D01*
X119166666Y-32204819D02*
X118880952Y-32204819D01*
X118880952Y-32204819D02*
X118785714Y-32157200D01*
X118785714Y-32157200D02*
X118738095Y-32109580D01*
X120214285Y-31204819D02*
X120023809Y-31204819D01*
X120023809Y-31204819D02*
X119928571Y-31252438D01*
X119928571Y-31252438D02*
X119880952Y-31300057D01*
X119880952Y-31300057D02*
X119785714Y-31442914D01*
X119785714Y-31442914D02*
X119738095Y-31633390D01*
X119738095Y-31633390D02*
X119738095Y-32014342D01*
X119738095Y-32014342D02*
X119785714Y-32109580D01*
X119785714Y-32109580D02*
X119833333Y-32157200D01*
X119833333Y-32157200D02*
X119928571Y-32204819D01*
X119928571Y-32204819D02*
X120119047Y-32204819D01*
X120119047Y-32204819D02*
X120214285Y-32157200D01*
X120214285Y-32157200D02*
X120261904Y-32109580D01*
X120261904Y-32109580D02*
X120309523Y-32014342D01*
X120309523Y-32014342D02*
X120309523Y-31776247D01*
X120309523Y-31776247D02*
X120261904Y-31681009D01*
X120261904Y-31681009D02*
X120214285Y-31633390D01*
X120214285Y-31633390D02*
X120119047Y-31585771D01*
X120119047Y-31585771D02*
X119928571Y-31585771D01*
X119928571Y-31585771D02*
X119833333Y-31633390D01*
X119833333Y-31633390D02*
X119785714Y-31681009D01*
X119785714Y-31681009D02*
X119738095Y-31776247D01*
X117750476Y-122323200D02*
X117893333Y-122370819D01*
X117893333Y-122370819D02*
X118131428Y-122370819D01*
X118131428Y-122370819D02*
X118226666Y-122323200D01*
X118226666Y-122323200D02*
X118274285Y-122275580D01*
X118274285Y-122275580D02*
X118321904Y-122180342D01*
X118321904Y-122180342D02*
X118321904Y-122085104D01*
X118321904Y-122085104D02*
X118274285Y-121989866D01*
X118274285Y-121989866D02*
X118226666Y-121942247D01*
X118226666Y-121942247D02*
X118131428Y-121894628D01*
X118131428Y-121894628D02*
X117940952Y-121847009D01*
X117940952Y-121847009D02*
X117845714Y-121799390D01*
X117845714Y-121799390D02*
X117798095Y-121751771D01*
X117798095Y-121751771D02*
X117750476Y-121656533D01*
X117750476Y-121656533D02*
X117750476Y-121561295D01*
X117750476Y-121561295D02*
X117798095Y-121466057D01*
X117798095Y-121466057D02*
X117845714Y-121418438D01*
X117845714Y-121418438D02*
X117940952Y-121370819D01*
X117940952Y-121370819D02*
X118179047Y-121370819D01*
X118179047Y-121370819D02*
X118321904Y-121418438D01*
X118655238Y-121370819D02*
X118893333Y-122370819D01*
X118893333Y-122370819D02*
X119083809Y-121656533D01*
X119083809Y-121656533D02*
X119274285Y-122370819D01*
X119274285Y-122370819D02*
X119512381Y-121370819D01*
X120417142Y-122370819D02*
X119845714Y-122370819D01*
X120131428Y-122370819D02*
X120131428Y-121370819D01*
X120131428Y-121370819D02*
X120036190Y-121513676D01*
X120036190Y-121513676D02*
X119940952Y-121608914D01*
X119940952Y-121608914D02*
X119845714Y-121656533D01*
X121321904Y-121370819D02*
X120845714Y-121370819D01*
X120845714Y-121370819D02*
X120798095Y-121847009D01*
X120798095Y-121847009D02*
X120845714Y-121799390D01*
X120845714Y-121799390D02*
X120940952Y-121751771D01*
X120940952Y-121751771D02*
X121179047Y-121751771D01*
X121179047Y-121751771D02*
X121274285Y-121799390D01*
X121274285Y-121799390D02*
X121321904Y-121847009D01*
X121321904Y-121847009D02*
X121369523Y-121942247D01*
X121369523Y-121942247D02*
X121369523Y-122180342D01*
X121369523Y-122180342D02*
X121321904Y-122275580D01*
X121321904Y-122275580D02*
X121274285Y-122323200D01*
X121274285Y-122323200D02*
X121179047Y-122370819D01*
X121179047Y-122370819D02*
X120940952Y-122370819D01*
X120940952Y-122370819D02*
X120845714Y-122323200D01*
X120845714Y-122323200D02*
X120798095Y-122275580D01*
X117750476Y-102823200D02*
X117893333Y-102870819D01*
X117893333Y-102870819D02*
X118131428Y-102870819D01*
X118131428Y-102870819D02*
X118226666Y-102823200D01*
X118226666Y-102823200D02*
X118274285Y-102775580D01*
X118274285Y-102775580D02*
X118321904Y-102680342D01*
X118321904Y-102680342D02*
X118321904Y-102585104D01*
X118321904Y-102585104D02*
X118274285Y-102489866D01*
X118274285Y-102489866D02*
X118226666Y-102442247D01*
X118226666Y-102442247D02*
X118131428Y-102394628D01*
X118131428Y-102394628D02*
X117940952Y-102347009D01*
X117940952Y-102347009D02*
X117845714Y-102299390D01*
X117845714Y-102299390D02*
X117798095Y-102251771D01*
X117798095Y-102251771D02*
X117750476Y-102156533D01*
X117750476Y-102156533D02*
X117750476Y-102061295D01*
X117750476Y-102061295D02*
X117798095Y-101966057D01*
X117798095Y-101966057D02*
X117845714Y-101918438D01*
X117845714Y-101918438D02*
X117940952Y-101870819D01*
X117940952Y-101870819D02*
X118179047Y-101870819D01*
X118179047Y-101870819D02*
X118321904Y-101918438D01*
X118655238Y-101870819D02*
X118893333Y-102870819D01*
X118893333Y-102870819D02*
X119083809Y-102156533D01*
X119083809Y-102156533D02*
X119274285Y-102870819D01*
X119274285Y-102870819D02*
X119512381Y-101870819D01*
X120417142Y-102870819D02*
X119845714Y-102870819D01*
X120131428Y-102870819D02*
X120131428Y-101870819D01*
X120131428Y-101870819D02*
X120036190Y-102013676D01*
X120036190Y-102013676D02*
X119940952Y-102108914D01*
X119940952Y-102108914D02*
X119845714Y-102156533D01*
X121274285Y-102204152D02*
X121274285Y-102870819D01*
X121036190Y-101823200D02*
X120798095Y-102537485D01*
X120798095Y-102537485D02*
X121417142Y-102537485D01*
X137360476Y-117783200D02*
X137503333Y-117830819D01*
X137503333Y-117830819D02*
X137741428Y-117830819D01*
X137741428Y-117830819D02*
X137836666Y-117783200D01*
X137836666Y-117783200D02*
X137884285Y-117735580D01*
X137884285Y-117735580D02*
X137931904Y-117640342D01*
X137931904Y-117640342D02*
X137931904Y-117545104D01*
X137931904Y-117545104D02*
X137884285Y-117449866D01*
X137884285Y-117449866D02*
X137836666Y-117402247D01*
X137836666Y-117402247D02*
X137741428Y-117354628D01*
X137741428Y-117354628D02*
X137550952Y-117307009D01*
X137550952Y-117307009D02*
X137455714Y-117259390D01*
X137455714Y-117259390D02*
X137408095Y-117211771D01*
X137408095Y-117211771D02*
X137360476Y-117116533D01*
X137360476Y-117116533D02*
X137360476Y-117021295D01*
X137360476Y-117021295D02*
X137408095Y-116926057D01*
X137408095Y-116926057D02*
X137455714Y-116878438D01*
X137455714Y-116878438D02*
X137550952Y-116830819D01*
X137550952Y-116830819D02*
X137789047Y-116830819D01*
X137789047Y-116830819D02*
X137931904Y-116878438D01*
X138265238Y-116830819D02*
X138503333Y-117830819D01*
X138503333Y-117830819D02*
X138693809Y-117116533D01*
X138693809Y-117116533D02*
X138884285Y-117830819D01*
X138884285Y-117830819D02*
X139122381Y-116830819D01*
X139455714Y-116926057D02*
X139503333Y-116878438D01*
X139503333Y-116878438D02*
X139598571Y-116830819D01*
X139598571Y-116830819D02*
X139836666Y-116830819D01*
X139836666Y-116830819D02*
X139931904Y-116878438D01*
X139931904Y-116878438D02*
X139979523Y-116926057D01*
X139979523Y-116926057D02*
X140027142Y-117021295D01*
X140027142Y-117021295D02*
X140027142Y-117116533D01*
X140027142Y-117116533D02*
X139979523Y-117259390D01*
X139979523Y-117259390D02*
X139408095Y-117830819D01*
X139408095Y-117830819D02*
X140027142Y-117830819D01*
X140646190Y-116830819D02*
X140741428Y-116830819D01*
X140741428Y-116830819D02*
X140836666Y-116878438D01*
X140836666Y-116878438D02*
X140884285Y-116926057D01*
X140884285Y-116926057D02*
X140931904Y-117021295D01*
X140931904Y-117021295D02*
X140979523Y-117211771D01*
X140979523Y-117211771D02*
X140979523Y-117449866D01*
X140979523Y-117449866D02*
X140931904Y-117640342D01*
X140931904Y-117640342D02*
X140884285Y-117735580D01*
X140884285Y-117735580D02*
X140836666Y-117783200D01*
X140836666Y-117783200D02*
X140741428Y-117830819D01*
X140741428Y-117830819D02*
X140646190Y-117830819D01*
X140646190Y-117830819D02*
X140550952Y-117783200D01*
X140550952Y-117783200D02*
X140503333Y-117735580D01*
X140503333Y-117735580D02*
X140455714Y-117640342D01*
X140455714Y-117640342D02*
X140408095Y-117449866D01*
X140408095Y-117449866D02*
X140408095Y-117211771D01*
X140408095Y-117211771D02*
X140455714Y-117021295D01*
X140455714Y-117021295D02*
X140503333Y-116926057D01*
X140503333Y-116926057D02*
X140550952Y-116878438D01*
X140550952Y-116878438D02*
X140646190Y-116830819D01*
X68903333Y-50915180D02*
X68903333Y-50200895D01*
X68903333Y-50200895D02*
X68950952Y-50058038D01*
X68950952Y-50058038D02*
X69046190Y-49962800D01*
X69046190Y-49962800D02*
X69189047Y-49915180D01*
X69189047Y-49915180D02*
X69284285Y-49915180D01*
X67903333Y-49915180D02*
X68474761Y-49915180D01*
X68189047Y-49915180D02*
X68189047Y-50915180D01*
X68189047Y-50915180D02*
X68284285Y-50772323D01*
X68284285Y-50772323D02*
X68379523Y-50677085D01*
X68379523Y-50677085D02*
X68474761Y-50629466D01*
X99833333Y-35429580D02*
X99785714Y-35477200D01*
X99785714Y-35477200D02*
X99642857Y-35524819D01*
X99642857Y-35524819D02*
X99547619Y-35524819D01*
X99547619Y-35524819D02*
X99404762Y-35477200D01*
X99404762Y-35477200D02*
X99309524Y-35381961D01*
X99309524Y-35381961D02*
X99261905Y-35286723D01*
X99261905Y-35286723D02*
X99214286Y-35096247D01*
X99214286Y-35096247D02*
X99214286Y-34953390D01*
X99214286Y-34953390D02*
X99261905Y-34762914D01*
X99261905Y-34762914D02*
X99309524Y-34667676D01*
X99309524Y-34667676D02*
X99404762Y-34572438D01*
X99404762Y-34572438D02*
X99547619Y-34524819D01*
X99547619Y-34524819D02*
X99642857Y-34524819D01*
X99642857Y-34524819D02*
X99785714Y-34572438D01*
X99785714Y-34572438D02*
X99833333Y-34620057D01*
X100738095Y-34524819D02*
X100261905Y-34524819D01*
X100261905Y-34524819D02*
X100214286Y-35001009D01*
X100214286Y-35001009D02*
X100261905Y-34953390D01*
X100261905Y-34953390D02*
X100357143Y-34905771D01*
X100357143Y-34905771D02*
X100595238Y-34905771D01*
X100595238Y-34905771D02*
X100690476Y-34953390D01*
X100690476Y-34953390D02*
X100738095Y-35001009D01*
X100738095Y-35001009D02*
X100785714Y-35096247D01*
X100785714Y-35096247D02*
X100785714Y-35334342D01*
X100785714Y-35334342D02*
X100738095Y-35429580D01*
X100738095Y-35429580D02*
X100690476Y-35477200D01*
X100690476Y-35477200D02*
X100595238Y-35524819D01*
X100595238Y-35524819D02*
X100357143Y-35524819D01*
X100357143Y-35524819D02*
X100261905Y-35477200D01*
X100261905Y-35477200D02*
X100214286Y-35429580D01*
X74496667Y-110823200D02*
X74639524Y-110870819D01*
X74639524Y-110870819D02*
X74877619Y-110870819D01*
X74877619Y-110870819D02*
X74972857Y-110823200D01*
X74972857Y-110823200D02*
X75020476Y-110775580D01*
X75020476Y-110775580D02*
X75068095Y-110680342D01*
X75068095Y-110680342D02*
X75068095Y-110585104D01*
X75068095Y-110585104D02*
X75020476Y-110489866D01*
X75020476Y-110489866D02*
X74972857Y-110442247D01*
X74972857Y-110442247D02*
X74877619Y-110394628D01*
X74877619Y-110394628D02*
X74687143Y-110347009D01*
X74687143Y-110347009D02*
X74591905Y-110299390D01*
X74591905Y-110299390D02*
X74544286Y-110251771D01*
X74544286Y-110251771D02*
X74496667Y-110156533D01*
X74496667Y-110156533D02*
X74496667Y-110061295D01*
X74496667Y-110061295D02*
X74544286Y-109966057D01*
X74544286Y-109966057D02*
X74591905Y-109918438D01*
X74591905Y-109918438D02*
X74687143Y-109870819D01*
X74687143Y-109870819D02*
X74925238Y-109870819D01*
X74925238Y-109870819D02*
X75068095Y-109918438D01*
X75401429Y-109870819D02*
X75639524Y-110870819D01*
X75639524Y-110870819D02*
X75830000Y-110156533D01*
X75830000Y-110156533D02*
X76020476Y-110870819D01*
X76020476Y-110870819D02*
X76258572Y-109870819D01*
X77068095Y-110204152D02*
X77068095Y-110870819D01*
X76830000Y-109823200D02*
X76591905Y-110537485D01*
X76591905Y-110537485D02*
X77210952Y-110537485D01*
X137360476Y-98283200D02*
X137503333Y-98330819D01*
X137503333Y-98330819D02*
X137741428Y-98330819D01*
X137741428Y-98330819D02*
X137836666Y-98283200D01*
X137836666Y-98283200D02*
X137884285Y-98235580D01*
X137884285Y-98235580D02*
X137931904Y-98140342D01*
X137931904Y-98140342D02*
X137931904Y-98045104D01*
X137931904Y-98045104D02*
X137884285Y-97949866D01*
X137884285Y-97949866D02*
X137836666Y-97902247D01*
X137836666Y-97902247D02*
X137741428Y-97854628D01*
X137741428Y-97854628D02*
X137550952Y-97807009D01*
X137550952Y-97807009D02*
X137455714Y-97759390D01*
X137455714Y-97759390D02*
X137408095Y-97711771D01*
X137408095Y-97711771D02*
X137360476Y-97616533D01*
X137360476Y-97616533D02*
X137360476Y-97521295D01*
X137360476Y-97521295D02*
X137408095Y-97426057D01*
X137408095Y-97426057D02*
X137455714Y-97378438D01*
X137455714Y-97378438D02*
X137550952Y-97330819D01*
X137550952Y-97330819D02*
X137789047Y-97330819D01*
X137789047Y-97330819D02*
X137931904Y-97378438D01*
X138265238Y-97330819D02*
X138503333Y-98330819D01*
X138503333Y-98330819D02*
X138693809Y-97616533D01*
X138693809Y-97616533D02*
X138884285Y-98330819D01*
X138884285Y-98330819D02*
X139122381Y-97330819D01*
X140027142Y-98330819D02*
X139455714Y-98330819D01*
X139741428Y-98330819D02*
X139741428Y-97330819D01*
X139741428Y-97330819D02*
X139646190Y-97473676D01*
X139646190Y-97473676D02*
X139550952Y-97568914D01*
X139550952Y-97568914D02*
X139455714Y-97616533D01*
X140503333Y-98330819D02*
X140693809Y-98330819D01*
X140693809Y-98330819D02*
X140789047Y-98283200D01*
X140789047Y-98283200D02*
X140836666Y-98235580D01*
X140836666Y-98235580D02*
X140931904Y-98092723D01*
X140931904Y-98092723D02*
X140979523Y-97902247D01*
X140979523Y-97902247D02*
X140979523Y-97521295D01*
X140979523Y-97521295D02*
X140931904Y-97426057D01*
X140931904Y-97426057D02*
X140884285Y-97378438D01*
X140884285Y-97378438D02*
X140789047Y-97330819D01*
X140789047Y-97330819D02*
X140598571Y-97330819D01*
X140598571Y-97330819D02*
X140503333Y-97378438D01*
X140503333Y-97378438D02*
X140455714Y-97426057D01*
X140455714Y-97426057D02*
X140408095Y-97521295D01*
X140408095Y-97521295D02*
X140408095Y-97759390D01*
X140408095Y-97759390D02*
X140455714Y-97854628D01*
X140455714Y-97854628D02*
X140503333Y-97902247D01*
X140503333Y-97902247D02*
X140598571Y-97949866D01*
X140598571Y-97949866D02*
X140789047Y-97949866D01*
X140789047Y-97949866D02*
X140884285Y-97902247D01*
X140884285Y-97902247D02*
X140931904Y-97854628D01*
X140931904Y-97854628D02*
X140979523Y-97759390D01*
X74356667Y-52283200D02*
X74499524Y-52330819D01*
X74499524Y-52330819D02*
X74737619Y-52330819D01*
X74737619Y-52330819D02*
X74832857Y-52283200D01*
X74832857Y-52283200D02*
X74880476Y-52235580D01*
X74880476Y-52235580D02*
X74928095Y-52140342D01*
X74928095Y-52140342D02*
X74928095Y-52045104D01*
X74928095Y-52045104D02*
X74880476Y-51949866D01*
X74880476Y-51949866D02*
X74832857Y-51902247D01*
X74832857Y-51902247D02*
X74737619Y-51854628D01*
X74737619Y-51854628D02*
X74547143Y-51807009D01*
X74547143Y-51807009D02*
X74451905Y-51759390D01*
X74451905Y-51759390D02*
X74404286Y-51711771D01*
X74404286Y-51711771D02*
X74356667Y-51616533D01*
X74356667Y-51616533D02*
X74356667Y-51521295D01*
X74356667Y-51521295D02*
X74404286Y-51426057D01*
X74404286Y-51426057D02*
X74451905Y-51378438D01*
X74451905Y-51378438D02*
X74547143Y-51330819D01*
X74547143Y-51330819D02*
X74785238Y-51330819D01*
X74785238Y-51330819D02*
X74928095Y-51378438D01*
X75261429Y-51330819D02*
X75499524Y-52330819D01*
X75499524Y-52330819D02*
X75690000Y-51616533D01*
X75690000Y-51616533D02*
X75880476Y-52330819D01*
X75880476Y-52330819D02*
X76118572Y-51330819D01*
X76451905Y-51426057D02*
X76499524Y-51378438D01*
X76499524Y-51378438D02*
X76594762Y-51330819D01*
X76594762Y-51330819D02*
X76832857Y-51330819D01*
X76832857Y-51330819D02*
X76928095Y-51378438D01*
X76928095Y-51378438D02*
X76975714Y-51426057D01*
X76975714Y-51426057D02*
X77023333Y-51521295D01*
X77023333Y-51521295D02*
X77023333Y-51616533D01*
X77023333Y-51616533D02*
X76975714Y-51759390D01*
X76975714Y-51759390D02*
X76404286Y-52330819D01*
X76404286Y-52330819D02*
X77023333Y-52330819D01*
X61354819Y-48516666D02*
X60878628Y-48849999D01*
X61354819Y-49088094D02*
X60354819Y-49088094D01*
X60354819Y-49088094D02*
X60354819Y-48707142D01*
X60354819Y-48707142D02*
X60402438Y-48611904D01*
X60402438Y-48611904D02*
X60450057Y-48564285D01*
X60450057Y-48564285D02*
X60545295Y-48516666D01*
X60545295Y-48516666D02*
X60688152Y-48516666D01*
X60688152Y-48516666D02*
X60783390Y-48564285D01*
X60783390Y-48564285D02*
X60831009Y-48611904D01*
X60831009Y-48611904D02*
X60878628Y-48707142D01*
X60878628Y-48707142D02*
X60878628Y-49088094D01*
X60354819Y-48183332D02*
X60354819Y-47564285D01*
X60354819Y-47564285D02*
X60735771Y-47897618D01*
X60735771Y-47897618D02*
X60735771Y-47754761D01*
X60735771Y-47754761D02*
X60783390Y-47659523D01*
X60783390Y-47659523D02*
X60831009Y-47611904D01*
X60831009Y-47611904D02*
X60926247Y-47564285D01*
X60926247Y-47564285D02*
X61164342Y-47564285D01*
X61164342Y-47564285D02*
X61259580Y-47611904D01*
X61259580Y-47611904D02*
X61307200Y-47659523D01*
X61307200Y-47659523D02*
X61354819Y-47754761D01*
X61354819Y-47754761D02*
X61354819Y-48040475D01*
X61354819Y-48040475D02*
X61307200Y-48135713D01*
X61307200Y-48135713D02*
X61259580Y-48183332D01*
X197404761Y-37214819D02*
X197071428Y-36738628D01*
X196833333Y-37214819D02*
X196833333Y-36214819D01*
X196833333Y-36214819D02*
X197214285Y-36214819D01*
X197214285Y-36214819D02*
X197309523Y-36262438D01*
X197309523Y-36262438D02*
X197357142Y-36310057D01*
X197357142Y-36310057D02*
X197404761Y-36405295D01*
X197404761Y-36405295D02*
X197404761Y-36548152D01*
X197404761Y-36548152D02*
X197357142Y-36643390D01*
X197357142Y-36643390D02*
X197309523Y-36691009D01*
X197309523Y-36691009D02*
X197214285Y-36738628D01*
X197214285Y-36738628D02*
X196833333Y-36738628D01*
X197690476Y-36214819D02*
X198023809Y-37214819D01*
X198023809Y-37214819D02*
X198357142Y-36214819D01*
X199214285Y-37214819D02*
X198642857Y-37214819D01*
X198928571Y-37214819D02*
X198928571Y-36214819D01*
X198928571Y-36214819D02*
X198833333Y-36357676D01*
X198833333Y-36357676D02*
X198738095Y-36452914D01*
X198738095Y-36452914D02*
X198642857Y-36500533D01*
X117750476Y-44323200D02*
X117893333Y-44370819D01*
X117893333Y-44370819D02*
X118131428Y-44370819D01*
X118131428Y-44370819D02*
X118226666Y-44323200D01*
X118226666Y-44323200D02*
X118274285Y-44275580D01*
X118274285Y-44275580D02*
X118321904Y-44180342D01*
X118321904Y-44180342D02*
X118321904Y-44085104D01*
X118321904Y-44085104D02*
X118274285Y-43989866D01*
X118274285Y-43989866D02*
X118226666Y-43942247D01*
X118226666Y-43942247D02*
X118131428Y-43894628D01*
X118131428Y-43894628D02*
X117940952Y-43847009D01*
X117940952Y-43847009D02*
X117845714Y-43799390D01*
X117845714Y-43799390D02*
X117798095Y-43751771D01*
X117798095Y-43751771D02*
X117750476Y-43656533D01*
X117750476Y-43656533D02*
X117750476Y-43561295D01*
X117750476Y-43561295D02*
X117798095Y-43466057D01*
X117798095Y-43466057D02*
X117845714Y-43418438D01*
X117845714Y-43418438D02*
X117940952Y-43370819D01*
X117940952Y-43370819D02*
X118179047Y-43370819D01*
X118179047Y-43370819D02*
X118321904Y-43418438D01*
X118655238Y-43370819D02*
X118893333Y-44370819D01*
X118893333Y-44370819D02*
X119083809Y-43656533D01*
X119083809Y-43656533D02*
X119274285Y-44370819D01*
X119274285Y-44370819D02*
X119512381Y-43370819D01*
X120417142Y-44370819D02*
X119845714Y-44370819D01*
X120131428Y-44370819D02*
X120131428Y-43370819D01*
X120131428Y-43370819D02*
X120036190Y-43513676D01*
X120036190Y-43513676D02*
X119940952Y-43608914D01*
X119940952Y-43608914D02*
X119845714Y-43656533D01*
X121369523Y-44370819D02*
X120798095Y-44370819D01*
X121083809Y-44370819D02*
X121083809Y-43370819D01*
X121083809Y-43370819D02*
X120988571Y-43513676D01*
X120988571Y-43513676D02*
X120893333Y-43608914D01*
X120893333Y-43608914D02*
X120798095Y-43656533D01*
X92833333Y-41929580D02*
X92785714Y-41977200D01*
X92785714Y-41977200D02*
X92642857Y-42024819D01*
X92642857Y-42024819D02*
X92547619Y-42024819D01*
X92547619Y-42024819D02*
X92404762Y-41977200D01*
X92404762Y-41977200D02*
X92309524Y-41881961D01*
X92309524Y-41881961D02*
X92261905Y-41786723D01*
X92261905Y-41786723D02*
X92214286Y-41596247D01*
X92214286Y-41596247D02*
X92214286Y-41453390D01*
X92214286Y-41453390D02*
X92261905Y-41262914D01*
X92261905Y-41262914D02*
X92309524Y-41167676D01*
X92309524Y-41167676D02*
X92404762Y-41072438D01*
X92404762Y-41072438D02*
X92547619Y-41024819D01*
X92547619Y-41024819D02*
X92642857Y-41024819D01*
X92642857Y-41024819D02*
X92785714Y-41072438D01*
X92785714Y-41072438D02*
X92833333Y-41120057D01*
X93166667Y-41024819D02*
X93785714Y-41024819D01*
X93785714Y-41024819D02*
X93452381Y-41405771D01*
X93452381Y-41405771D02*
X93595238Y-41405771D01*
X93595238Y-41405771D02*
X93690476Y-41453390D01*
X93690476Y-41453390D02*
X93738095Y-41501009D01*
X93738095Y-41501009D02*
X93785714Y-41596247D01*
X93785714Y-41596247D02*
X93785714Y-41834342D01*
X93785714Y-41834342D02*
X93738095Y-41929580D01*
X93738095Y-41929580D02*
X93690476Y-41977200D01*
X93690476Y-41977200D02*
X93595238Y-42024819D01*
X93595238Y-42024819D02*
X93309524Y-42024819D01*
X93309524Y-42024819D02*
X93214286Y-41977200D01*
X93214286Y-41977200D02*
X93166667Y-41929580D01*
X98726667Y-52323200D02*
X98869524Y-52370819D01*
X98869524Y-52370819D02*
X99107619Y-52370819D01*
X99107619Y-52370819D02*
X99202857Y-52323200D01*
X99202857Y-52323200D02*
X99250476Y-52275580D01*
X99250476Y-52275580D02*
X99298095Y-52180342D01*
X99298095Y-52180342D02*
X99298095Y-52085104D01*
X99298095Y-52085104D02*
X99250476Y-51989866D01*
X99250476Y-51989866D02*
X99202857Y-51942247D01*
X99202857Y-51942247D02*
X99107619Y-51894628D01*
X99107619Y-51894628D02*
X98917143Y-51847009D01*
X98917143Y-51847009D02*
X98821905Y-51799390D01*
X98821905Y-51799390D02*
X98774286Y-51751771D01*
X98774286Y-51751771D02*
X98726667Y-51656533D01*
X98726667Y-51656533D02*
X98726667Y-51561295D01*
X98726667Y-51561295D02*
X98774286Y-51466057D01*
X98774286Y-51466057D02*
X98821905Y-51418438D01*
X98821905Y-51418438D02*
X98917143Y-51370819D01*
X98917143Y-51370819D02*
X99155238Y-51370819D01*
X99155238Y-51370819D02*
X99298095Y-51418438D01*
X99631429Y-51370819D02*
X99869524Y-52370819D01*
X99869524Y-52370819D02*
X100060000Y-51656533D01*
X100060000Y-51656533D02*
X100250476Y-52370819D01*
X100250476Y-52370819D02*
X100488572Y-51370819D01*
X101298095Y-51370819D02*
X101107619Y-51370819D01*
X101107619Y-51370819D02*
X101012381Y-51418438D01*
X101012381Y-51418438D02*
X100964762Y-51466057D01*
X100964762Y-51466057D02*
X100869524Y-51608914D01*
X100869524Y-51608914D02*
X100821905Y-51799390D01*
X100821905Y-51799390D02*
X100821905Y-52180342D01*
X100821905Y-52180342D02*
X100869524Y-52275580D01*
X100869524Y-52275580D02*
X100917143Y-52323200D01*
X100917143Y-52323200D02*
X101012381Y-52370819D01*
X101012381Y-52370819D02*
X101202857Y-52370819D01*
X101202857Y-52370819D02*
X101298095Y-52323200D01*
X101298095Y-52323200D02*
X101345714Y-52275580D01*
X101345714Y-52275580D02*
X101393333Y-52180342D01*
X101393333Y-52180342D02*
X101393333Y-51942247D01*
X101393333Y-51942247D02*
X101345714Y-51847009D01*
X101345714Y-51847009D02*
X101298095Y-51799390D01*
X101298095Y-51799390D02*
X101202857Y-51751771D01*
X101202857Y-51751771D02*
X101012381Y-51751771D01*
X101012381Y-51751771D02*
X100917143Y-51799390D01*
X100917143Y-51799390D02*
X100869524Y-51847009D01*
X100869524Y-51847009D02*
X100821905Y-51942247D01*
X137440476Y-39783200D02*
X137583333Y-39830819D01*
X137583333Y-39830819D02*
X137821428Y-39830819D01*
X137821428Y-39830819D02*
X137916666Y-39783200D01*
X137916666Y-39783200D02*
X137964285Y-39735580D01*
X137964285Y-39735580D02*
X138011904Y-39640342D01*
X138011904Y-39640342D02*
X138011904Y-39545104D01*
X138011904Y-39545104D02*
X137964285Y-39449866D01*
X137964285Y-39449866D02*
X137916666Y-39402247D01*
X137916666Y-39402247D02*
X137821428Y-39354628D01*
X137821428Y-39354628D02*
X137630952Y-39307009D01*
X137630952Y-39307009D02*
X137535714Y-39259390D01*
X137535714Y-39259390D02*
X137488095Y-39211771D01*
X137488095Y-39211771D02*
X137440476Y-39116533D01*
X137440476Y-39116533D02*
X137440476Y-39021295D01*
X137440476Y-39021295D02*
X137488095Y-38926057D01*
X137488095Y-38926057D02*
X137535714Y-38878438D01*
X137535714Y-38878438D02*
X137630952Y-38830819D01*
X137630952Y-38830819D02*
X137869047Y-38830819D01*
X137869047Y-38830819D02*
X138011904Y-38878438D01*
X138345238Y-38830819D02*
X138583333Y-39830819D01*
X138583333Y-39830819D02*
X138773809Y-39116533D01*
X138773809Y-39116533D02*
X138964285Y-39830819D01*
X138964285Y-39830819D02*
X139202381Y-38830819D01*
X140107142Y-39830819D02*
X139535714Y-39830819D01*
X139821428Y-39830819D02*
X139821428Y-38830819D01*
X139821428Y-38830819D02*
X139726190Y-38973676D01*
X139726190Y-38973676D02*
X139630952Y-39068914D01*
X139630952Y-39068914D02*
X139535714Y-39116533D01*
X140964285Y-38830819D02*
X140773809Y-38830819D01*
X140773809Y-38830819D02*
X140678571Y-38878438D01*
X140678571Y-38878438D02*
X140630952Y-38926057D01*
X140630952Y-38926057D02*
X140535714Y-39068914D01*
X140535714Y-39068914D02*
X140488095Y-39259390D01*
X140488095Y-39259390D02*
X140488095Y-39640342D01*
X140488095Y-39640342D02*
X140535714Y-39735580D01*
X140535714Y-39735580D02*
X140583333Y-39783200D01*
X140583333Y-39783200D02*
X140678571Y-39830819D01*
X140678571Y-39830819D02*
X140869047Y-39830819D01*
X140869047Y-39830819D02*
X140964285Y-39783200D01*
X140964285Y-39783200D02*
X141011904Y-39735580D01*
X141011904Y-39735580D02*
X141059523Y-39640342D01*
X141059523Y-39640342D02*
X141059523Y-39402247D01*
X141059523Y-39402247D02*
X141011904Y-39307009D01*
X141011904Y-39307009D02*
X140964285Y-39259390D01*
X140964285Y-39259390D02*
X140869047Y-39211771D01*
X140869047Y-39211771D02*
X140678571Y-39211771D01*
X140678571Y-39211771D02*
X140583333Y-39259390D01*
X140583333Y-39259390D02*
X140535714Y-39307009D01*
X140535714Y-39307009D02*
X140488095Y-39402247D01*
X95328095Y-36114819D02*
X95328095Y-36924342D01*
X95328095Y-36924342D02*
X95375714Y-37019580D01*
X95375714Y-37019580D02*
X95423333Y-37067200D01*
X95423333Y-37067200D02*
X95518571Y-37114819D01*
X95518571Y-37114819D02*
X95709047Y-37114819D01*
X95709047Y-37114819D02*
X95804285Y-37067200D01*
X95804285Y-37067200D02*
X95851904Y-37019580D01*
X95851904Y-37019580D02*
X95899523Y-36924342D01*
X95899523Y-36924342D02*
X95899523Y-36114819D01*
X96899523Y-37114819D02*
X96328095Y-37114819D01*
X96613809Y-37114819D02*
X96613809Y-36114819D01*
X96613809Y-36114819D02*
X96518571Y-36257676D01*
X96518571Y-36257676D02*
X96423333Y-36352914D01*
X96423333Y-36352914D02*
X96328095Y-36400533D01*
X156910476Y-47323200D02*
X157053333Y-47370819D01*
X157053333Y-47370819D02*
X157291428Y-47370819D01*
X157291428Y-47370819D02*
X157386666Y-47323200D01*
X157386666Y-47323200D02*
X157434285Y-47275580D01*
X157434285Y-47275580D02*
X157481904Y-47180342D01*
X157481904Y-47180342D02*
X157481904Y-47085104D01*
X157481904Y-47085104D02*
X157434285Y-46989866D01*
X157434285Y-46989866D02*
X157386666Y-46942247D01*
X157386666Y-46942247D02*
X157291428Y-46894628D01*
X157291428Y-46894628D02*
X157100952Y-46847009D01*
X157100952Y-46847009D02*
X157005714Y-46799390D01*
X157005714Y-46799390D02*
X156958095Y-46751771D01*
X156958095Y-46751771D02*
X156910476Y-46656533D01*
X156910476Y-46656533D02*
X156910476Y-46561295D01*
X156910476Y-46561295D02*
X156958095Y-46466057D01*
X156958095Y-46466057D02*
X157005714Y-46418438D01*
X157005714Y-46418438D02*
X157100952Y-46370819D01*
X157100952Y-46370819D02*
X157339047Y-46370819D01*
X157339047Y-46370819D02*
X157481904Y-46418438D01*
X157815238Y-46370819D02*
X158053333Y-47370819D01*
X158053333Y-47370819D02*
X158243809Y-46656533D01*
X158243809Y-46656533D02*
X158434285Y-47370819D01*
X158434285Y-47370819D02*
X158672381Y-46370819D01*
X159005714Y-46466057D02*
X159053333Y-46418438D01*
X159053333Y-46418438D02*
X159148571Y-46370819D01*
X159148571Y-46370819D02*
X159386666Y-46370819D01*
X159386666Y-46370819D02*
X159481904Y-46418438D01*
X159481904Y-46418438D02*
X159529523Y-46466057D01*
X159529523Y-46466057D02*
X159577142Y-46561295D01*
X159577142Y-46561295D02*
X159577142Y-46656533D01*
X159577142Y-46656533D02*
X159529523Y-46799390D01*
X159529523Y-46799390D02*
X158958095Y-47370819D01*
X158958095Y-47370819D02*
X159577142Y-47370819D01*
X160529523Y-47370819D02*
X159958095Y-47370819D01*
X160243809Y-47370819D02*
X160243809Y-46370819D01*
X160243809Y-46370819D02*
X160148571Y-46513676D01*
X160148571Y-46513676D02*
X160053333Y-46608914D01*
X160053333Y-46608914D02*
X159958095Y-46656533D01*
X195910476Y-74363200D02*
X196053333Y-74410819D01*
X196053333Y-74410819D02*
X196291428Y-74410819D01*
X196291428Y-74410819D02*
X196386666Y-74363200D01*
X196386666Y-74363200D02*
X196434285Y-74315580D01*
X196434285Y-74315580D02*
X196481904Y-74220342D01*
X196481904Y-74220342D02*
X196481904Y-74125104D01*
X196481904Y-74125104D02*
X196434285Y-74029866D01*
X196434285Y-74029866D02*
X196386666Y-73982247D01*
X196386666Y-73982247D02*
X196291428Y-73934628D01*
X196291428Y-73934628D02*
X196100952Y-73887009D01*
X196100952Y-73887009D02*
X196005714Y-73839390D01*
X196005714Y-73839390D02*
X195958095Y-73791771D01*
X195958095Y-73791771D02*
X195910476Y-73696533D01*
X195910476Y-73696533D02*
X195910476Y-73601295D01*
X195910476Y-73601295D02*
X195958095Y-73506057D01*
X195958095Y-73506057D02*
X196005714Y-73458438D01*
X196005714Y-73458438D02*
X196100952Y-73410819D01*
X196100952Y-73410819D02*
X196339047Y-73410819D01*
X196339047Y-73410819D02*
X196481904Y-73458438D01*
X196815238Y-73410819D02*
X197053333Y-74410819D01*
X197053333Y-74410819D02*
X197243809Y-73696533D01*
X197243809Y-73696533D02*
X197434285Y-74410819D01*
X197434285Y-74410819D02*
X197672381Y-73410819D01*
X197958095Y-73410819D02*
X198577142Y-73410819D01*
X198577142Y-73410819D02*
X198243809Y-73791771D01*
X198243809Y-73791771D02*
X198386666Y-73791771D01*
X198386666Y-73791771D02*
X198481904Y-73839390D01*
X198481904Y-73839390D02*
X198529523Y-73887009D01*
X198529523Y-73887009D02*
X198577142Y-73982247D01*
X198577142Y-73982247D02*
X198577142Y-74220342D01*
X198577142Y-74220342D02*
X198529523Y-74315580D01*
X198529523Y-74315580D02*
X198481904Y-74363200D01*
X198481904Y-74363200D02*
X198386666Y-74410819D01*
X198386666Y-74410819D02*
X198100952Y-74410819D01*
X198100952Y-74410819D02*
X198005714Y-74363200D01*
X198005714Y-74363200D02*
X197958095Y-74315580D01*
X198958095Y-73506057D02*
X199005714Y-73458438D01*
X199005714Y-73458438D02*
X199100952Y-73410819D01*
X199100952Y-73410819D02*
X199339047Y-73410819D01*
X199339047Y-73410819D02*
X199434285Y-73458438D01*
X199434285Y-73458438D02*
X199481904Y-73506057D01*
X199481904Y-73506057D02*
X199529523Y-73601295D01*
X199529523Y-73601295D02*
X199529523Y-73696533D01*
X199529523Y-73696533D02*
X199481904Y-73839390D01*
X199481904Y-73839390D02*
X198910476Y-74410819D01*
X198910476Y-74410819D02*
X199529523Y-74410819D01*
X156750476Y-86323200D02*
X156893333Y-86370819D01*
X156893333Y-86370819D02*
X157131428Y-86370819D01*
X157131428Y-86370819D02*
X157226666Y-86323200D01*
X157226666Y-86323200D02*
X157274285Y-86275580D01*
X157274285Y-86275580D02*
X157321904Y-86180342D01*
X157321904Y-86180342D02*
X157321904Y-86085104D01*
X157321904Y-86085104D02*
X157274285Y-85989866D01*
X157274285Y-85989866D02*
X157226666Y-85942247D01*
X157226666Y-85942247D02*
X157131428Y-85894628D01*
X157131428Y-85894628D02*
X156940952Y-85847009D01*
X156940952Y-85847009D02*
X156845714Y-85799390D01*
X156845714Y-85799390D02*
X156798095Y-85751771D01*
X156798095Y-85751771D02*
X156750476Y-85656533D01*
X156750476Y-85656533D02*
X156750476Y-85561295D01*
X156750476Y-85561295D02*
X156798095Y-85466057D01*
X156798095Y-85466057D02*
X156845714Y-85418438D01*
X156845714Y-85418438D02*
X156940952Y-85370819D01*
X156940952Y-85370819D02*
X157179047Y-85370819D01*
X157179047Y-85370819D02*
X157321904Y-85418438D01*
X157655238Y-85370819D02*
X157893333Y-86370819D01*
X157893333Y-86370819D02*
X158083809Y-85656533D01*
X158083809Y-85656533D02*
X158274285Y-86370819D01*
X158274285Y-86370819D02*
X158512381Y-85370819D01*
X158845714Y-85466057D02*
X158893333Y-85418438D01*
X158893333Y-85418438D02*
X158988571Y-85370819D01*
X158988571Y-85370819D02*
X159226666Y-85370819D01*
X159226666Y-85370819D02*
X159321904Y-85418438D01*
X159321904Y-85418438D02*
X159369523Y-85466057D01*
X159369523Y-85466057D02*
X159417142Y-85561295D01*
X159417142Y-85561295D02*
X159417142Y-85656533D01*
X159417142Y-85656533D02*
X159369523Y-85799390D01*
X159369523Y-85799390D02*
X158798095Y-86370819D01*
X158798095Y-86370819D02*
X159417142Y-86370819D01*
X159750476Y-85370819D02*
X160369523Y-85370819D01*
X160369523Y-85370819D02*
X160036190Y-85751771D01*
X160036190Y-85751771D02*
X160179047Y-85751771D01*
X160179047Y-85751771D02*
X160274285Y-85799390D01*
X160274285Y-85799390D02*
X160321904Y-85847009D01*
X160321904Y-85847009D02*
X160369523Y-85942247D01*
X160369523Y-85942247D02*
X160369523Y-86180342D01*
X160369523Y-86180342D02*
X160321904Y-86275580D01*
X160321904Y-86275580D02*
X160274285Y-86323200D01*
X160274285Y-86323200D02*
X160179047Y-86370819D01*
X160179047Y-86370819D02*
X159893333Y-86370819D01*
X159893333Y-86370819D02*
X159798095Y-86323200D01*
X159798095Y-86323200D02*
X159750476Y-86275580D01*
X74416667Y-91323200D02*
X74559524Y-91370819D01*
X74559524Y-91370819D02*
X74797619Y-91370819D01*
X74797619Y-91370819D02*
X74892857Y-91323200D01*
X74892857Y-91323200D02*
X74940476Y-91275580D01*
X74940476Y-91275580D02*
X74988095Y-91180342D01*
X74988095Y-91180342D02*
X74988095Y-91085104D01*
X74988095Y-91085104D02*
X74940476Y-90989866D01*
X74940476Y-90989866D02*
X74892857Y-90942247D01*
X74892857Y-90942247D02*
X74797619Y-90894628D01*
X74797619Y-90894628D02*
X74607143Y-90847009D01*
X74607143Y-90847009D02*
X74511905Y-90799390D01*
X74511905Y-90799390D02*
X74464286Y-90751771D01*
X74464286Y-90751771D02*
X74416667Y-90656533D01*
X74416667Y-90656533D02*
X74416667Y-90561295D01*
X74416667Y-90561295D02*
X74464286Y-90466057D01*
X74464286Y-90466057D02*
X74511905Y-90418438D01*
X74511905Y-90418438D02*
X74607143Y-90370819D01*
X74607143Y-90370819D02*
X74845238Y-90370819D01*
X74845238Y-90370819D02*
X74988095Y-90418438D01*
X75321429Y-90370819D02*
X75559524Y-91370819D01*
X75559524Y-91370819D02*
X75750000Y-90656533D01*
X75750000Y-90656533D02*
X75940476Y-91370819D01*
X75940476Y-91370819D02*
X76178572Y-90370819D01*
X76464286Y-90370819D02*
X77083333Y-90370819D01*
X77083333Y-90370819D02*
X76750000Y-90751771D01*
X76750000Y-90751771D02*
X76892857Y-90751771D01*
X76892857Y-90751771D02*
X76988095Y-90799390D01*
X76988095Y-90799390D02*
X77035714Y-90847009D01*
X77035714Y-90847009D02*
X77083333Y-90942247D01*
X77083333Y-90942247D02*
X77083333Y-91180342D01*
X77083333Y-91180342D02*
X77035714Y-91275580D01*
X77035714Y-91275580D02*
X76988095Y-91323200D01*
X76988095Y-91323200D02*
X76892857Y-91370819D01*
X76892857Y-91370819D02*
X76607143Y-91370819D01*
X76607143Y-91370819D02*
X76511905Y-91323200D01*
X76511905Y-91323200D02*
X76464286Y-91275580D01*
X176250476Y-110363200D02*
X176393333Y-110410819D01*
X176393333Y-110410819D02*
X176631428Y-110410819D01*
X176631428Y-110410819D02*
X176726666Y-110363200D01*
X176726666Y-110363200D02*
X176774285Y-110315580D01*
X176774285Y-110315580D02*
X176821904Y-110220342D01*
X176821904Y-110220342D02*
X176821904Y-110125104D01*
X176821904Y-110125104D02*
X176774285Y-110029866D01*
X176774285Y-110029866D02*
X176726666Y-109982247D01*
X176726666Y-109982247D02*
X176631428Y-109934628D01*
X176631428Y-109934628D02*
X176440952Y-109887009D01*
X176440952Y-109887009D02*
X176345714Y-109839390D01*
X176345714Y-109839390D02*
X176298095Y-109791771D01*
X176298095Y-109791771D02*
X176250476Y-109696533D01*
X176250476Y-109696533D02*
X176250476Y-109601295D01*
X176250476Y-109601295D02*
X176298095Y-109506057D01*
X176298095Y-109506057D02*
X176345714Y-109458438D01*
X176345714Y-109458438D02*
X176440952Y-109410819D01*
X176440952Y-109410819D02*
X176679047Y-109410819D01*
X176679047Y-109410819D02*
X176821904Y-109458438D01*
X177155238Y-109410819D02*
X177393333Y-110410819D01*
X177393333Y-110410819D02*
X177583809Y-109696533D01*
X177583809Y-109696533D02*
X177774285Y-110410819D01*
X177774285Y-110410819D02*
X178012381Y-109410819D01*
X178345714Y-109506057D02*
X178393333Y-109458438D01*
X178393333Y-109458438D02*
X178488571Y-109410819D01*
X178488571Y-109410819D02*
X178726666Y-109410819D01*
X178726666Y-109410819D02*
X178821904Y-109458438D01*
X178821904Y-109458438D02*
X178869523Y-109506057D01*
X178869523Y-109506057D02*
X178917142Y-109601295D01*
X178917142Y-109601295D02*
X178917142Y-109696533D01*
X178917142Y-109696533D02*
X178869523Y-109839390D01*
X178869523Y-109839390D02*
X178298095Y-110410819D01*
X178298095Y-110410819D02*
X178917142Y-110410819D01*
X179393333Y-110410819D02*
X179583809Y-110410819D01*
X179583809Y-110410819D02*
X179679047Y-110363200D01*
X179679047Y-110363200D02*
X179726666Y-110315580D01*
X179726666Y-110315580D02*
X179821904Y-110172723D01*
X179821904Y-110172723D02*
X179869523Y-109982247D01*
X179869523Y-109982247D02*
X179869523Y-109601295D01*
X179869523Y-109601295D02*
X179821904Y-109506057D01*
X179821904Y-109506057D02*
X179774285Y-109458438D01*
X179774285Y-109458438D02*
X179679047Y-109410819D01*
X179679047Y-109410819D02*
X179488571Y-109410819D01*
X179488571Y-109410819D02*
X179393333Y-109458438D01*
X179393333Y-109458438D02*
X179345714Y-109506057D01*
X179345714Y-109506057D02*
X179298095Y-109601295D01*
X179298095Y-109601295D02*
X179298095Y-109839390D01*
X179298095Y-109839390D02*
X179345714Y-109934628D01*
X179345714Y-109934628D02*
X179393333Y-109982247D01*
X179393333Y-109982247D02*
X179488571Y-110029866D01*
X179488571Y-110029866D02*
X179679047Y-110029866D01*
X179679047Y-110029866D02*
X179774285Y-109982247D01*
X179774285Y-109982247D02*
X179821904Y-109934628D01*
X179821904Y-109934628D02*
X179869523Y-109839390D01*
X77179580Y-44666666D02*
X77227200Y-44714285D01*
X77227200Y-44714285D02*
X77274819Y-44857142D01*
X77274819Y-44857142D02*
X77274819Y-44952380D01*
X77274819Y-44952380D02*
X77227200Y-45095237D01*
X77227200Y-45095237D02*
X77131961Y-45190475D01*
X77131961Y-45190475D02*
X77036723Y-45238094D01*
X77036723Y-45238094D02*
X76846247Y-45285713D01*
X76846247Y-45285713D02*
X76703390Y-45285713D01*
X76703390Y-45285713D02*
X76512914Y-45238094D01*
X76512914Y-45238094D02*
X76417676Y-45190475D01*
X76417676Y-45190475D02*
X76322438Y-45095237D01*
X76322438Y-45095237D02*
X76274819Y-44952380D01*
X76274819Y-44952380D02*
X76274819Y-44857142D01*
X76274819Y-44857142D02*
X76322438Y-44714285D01*
X76322438Y-44714285D02*
X76370057Y-44666666D01*
X76274819Y-44333332D02*
X76274819Y-43666666D01*
X76274819Y-43666666D02*
X77274819Y-44095237D01*
X137250476Y-78823200D02*
X137393333Y-78870819D01*
X137393333Y-78870819D02*
X137631428Y-78870819D01*
X137631428Y-78870819D02*
X137726666Y-78823200D01*
X137726666Y-78823200D02*
X137774285Y-78775580D01*
X137774285Y-78775580D02*
X137821904Y-78680342D01*
X137821904Y-78680342D02*
X137821904Y-78585104D01*
X137821904Y-78585104D02*
X137774285Y-78489866D01*
X137774285Y-78489866D02*
X137726666Y-78442247D01*
X137726666Y-78442247D02*
X137631428Y-78394628D01*
X137631428Y-78394628D02*
X137440952Y-78347009D01*
X137440952Y-78347009D02*
X137345714Y-78299390D01*
X137345714Y-78299390D02*
X137298095Y-78251771D01*
X137298095Y-78251771D02*
X137250476Y-78156533D01*
X137250476Y-78156533D02*
X137250476Y-78061295D01*
X137250476Y-78061295D02*
X137298095Y-77966057D01*
X137298095Y-77966057D02*
X137345714Y-77918438D01*
X137345714Y-77918438D02*
X137440952Y-77870819D01*
X137440952Y-77870819D02*
X137679047Y-77870819D01*
X137679047Y-77870819D02*
X137821904Y-77918438D01*
X138155238Y-77870819D02*
X138393333Y-78870819D01*
X138393333Y-78870819D02*
X138583809Y-78156533D01*
X138583809Y-78156533D02*
X138774285Y-78870819D01*
X138774285Y-78870819D02*
X139012381Y-77870819D01*
X139917142Y-78870819D02*
X139345714Y-78870819D01*
X139631428Y-78870819D02*
X139631428Y-77870819D01*
X139631428Y-77870819D02*
X139536190Y-78013676D01*
X139536190Y-78013676D02*
X139440952Y-78108914D01*
X139440952Y-78108914D02*
X139345714Y-78156533D01*
X140488571Y-78299390D02*
X140393333Y-78251771D01*
X140393333Y-78251771D02*
X140345714Y-78204152D01*
X140345714Y-78204152D02*
X140298095Y-78108914D01*
X140298095Y-78108914D02*
X140298095Y-78061295D01*
X140298095Y-78061295D02*
X140345714Y-77966057D01*
X140345714Y-77966057D02*
X140393333Y-77918438D01*
X140393333Y-77918438D02*
X140488571Y-77870819D01*
X140488571Y-77870819D02*
X140679047Y-77870819D01*
X140679047Y-77870819D02*
X140774285Y-77918438D01*
X140774285Y-77918438D02*
X140821904Y-77966057D01*
X140821904Y-77966057D02*
X140869523Y-78061295D01*
X140869523Y-78061295D02*
X140869523Y-78108914D01*
X140869523Y-78108914D02*
X140821904Y-78204152D01*
X140821904Y-78204152D02*
X140774285Y-78251771D01*
X140774285Y-78251771D02*
X140679047Y-78299390D01*
X140679047Y-78299390D02*
X140488571Y-78299390D01*
X140488571Y-78299390D02*
X140393333Y-78347009D01*
X140393333Y-78347009D02*
X140345714Y-78394628D01*
X140345714Y-78394628D02*
X140298095Y-78489866D01*
X140298095Y-78489866D02*
X140298095Y-78680342D01*
X140298095Y-78680342D02*
X140345714Y-78775580D01*
X140345714Y-78775580D02*
X140393333Y-78823200D01*
X140393333Y-78823200D02*
X140488571Y-78870819D01*
X140488571Y-78870819D02*
X140679047Y-78870819D01*
X140679047Y-78870819D02*
X140774285Y-78823200D01*
X140774285Y-78823200D02*
X140821904Y-78775580D01*
X140821904Y-78775580D02*
X140869523Y-78680342D01*
X140869523Y-78680342D02*
X140869523Y-78489866D01*
X140869523Y-78489866D02*
X140821904Y-78394628D01*
X140821904Y-78394628D02*
X140774285Y-78347009D01*
X140774285Y-78347009D02*
X140679047Y-78299390D01*
X78004819Y-41053333D02*
X78719104Y-41053333D01*
X78719104Y-41053333D02*
X78861961Y-41100952D01*
X78861961Y-41100952D02*
X78957200Y-41196190D01*
X78957200Y-41196190D02*
X79004819Y-41339047D01*
X79004819Y-41339047D02*
X79004819Y-41434285D01*
X78004819Y-40672380D02*
X78004819Y-40053333D01*
X78004819Y-40053333D02*
X78385771Y-40386666D01*
X78385771Y-40386666D02*
X78385771Y-40243809D01*
X78385771Y-40243809D02*
X78433390Y-40148571D01*
X78433390Y-40148571D02*
X78481009Y-40100952D01*
X78481009Y-40100952D02*
X78576247Y-40053333D01*
X78576247Y-40053333D02*
X78814342Y-40053333D01*
X78814342Y-40053333D02*
X78909580Y-40100952D01*
X78909580Y-40100952D02*
X78957200Y-40148571D01*
X78957200Y-40148571D02*
X79004819Y-40243809D01*
X79004819Y-40243809D02*
X79004819Y-40529523D01*
X79004819Y-40529523D02*
X78957200Y-40624761D01*
X78957200Y-40624761D02*
X78909580Y-40672380D01*
X176250476Y-129863200D02*
X176393333Y-129910819D01*
X176393333Y-129910819D02*
X176631428Y-129910819D01*
X176631428Y-129910819D02*
X176726666Y-129863200D01*
X176726666Y-129863200D02*
X176774285Y-129815580D01*
X176774285Y-129815580D02*
X176821904Y-129720342D01*
X176821904Y-129720342D02*
X176821904Y-129625104D01*
X176821904Y-129625104D02*
X176774285Y-129529866D01*
X176774285Y-129529866D02*
X176726666Y-129482247D01*
X176726666Y-129482247D02*
X176631428Y-129434628D01*
X176631428Y-129434628D02*
X176440952Y-129387009D01*
X176440952Y-129387009D02*
X176345714Y-129339390D01*
X176345714Y-129339390D02*
X176298095Y-129291771D01*
X176298095Y-129291771D02*
X176250476Y-129196533D01*
X176250476Y-129196533D02*
X176250476Y-129101295D01*
X176250476Y-129101295D02*
X176298095Y-129006057D01*
X176298095Y-129006057D02*
X176345714Y-128958438D01*
X176345714Y-128958438D02*
X176440952Y-128910819D01*
X176440952Y-128910819D02*
X176679047Y-128910819D01*
X176679047Y-128910819D02*
X176821904Y-128958438D01*
X177155238Y-128910819D02*
X177393333Y-129910819D01*
X177393333Y-129910819D02*
X177583809Y-129196533D01*
X177583809Y-129196533D02*
X177774285Y-129910819D01*
X177774285Y-129910819D02*
X178012381Y-128910819D01*
X178298095Y-128910819D02*
X178917142Y-128910819D01*
X178917142Y-128910819D02*
X178583809Y-129291771D01*
X178583809Y-129291771D02*
X178726666Y-129291771D01*
X178726666Y-129291771D02*
X178821904Y-129339390D01*
X178821904Y-129339390D02*
X178869523Y-129387009D01*
X178869523Y-129387009D02*
X178917142Y-129482247D01*
X178917142Y-129482247D02*
X178917142Y-129720342D01*
X178917142Y-129720342D02*
X178869523Y-129815580D01*
X178869523Y-129815580D02*
X178821904Y-129863200D01*
X178821904Y-129863200D02*
X178726666Y-129910819D01*
X178726666Y-129910819D02*
X178440952Y-129910819D01*
X178440952Y-129910819D02*
X178345714Y-129863200D01*
X178345714Y-129863200D02*
X178298095Y-129815580D01*
X179536190Y-128910819D02*
X179631428Y-128910819D01*
X179631428Y-128910819D02*
X179726666Y-128958438D01*
X179726666Y-128958438D02*
X179774285Y-129006057D01*
X179774285Y-129006057D02*
X179821904Y-129101295D01*
X179821904Y-129101295D02*
X179869523Y-129291771D01*
X179869523Y-129291771D02*
X179869523Y-129529866D01*
X179869523Y-129529866D02*
X179821904Y-129720342D01*
X179821904Y-129720342D02*
X179774285Y-129815580D01*
X179774285Y-129815580D02*
X179726666Y-129863200D01*
X179726666Y-129863200D02*
X179631428Y-129910819D01*
X179631428Y-129910819D02*
X179536190Y-129910819D01*
X179536190Y-129910819D02*
X179440952Y-129863200D01*
X179440952Y-129863200D02*
X179393333Y-129815580D01*
X179393333Y-129815580D02*
X179345714Y-129720342D01*
X179345714Y-129720342D02*
X179298095Y-129529866D01*
X179298095Y-129529866D02*
X179298095Y-129291771D01*
X179298095Y-129291771D02*
X179345714Y-129101295D01*
X179345714Y-129101295D02*
X179393333Y-129006057D01*
X179393333Y-129006057D02*
X179440952Y-128958438D01*
X179440952Y-128958438D02*
X179536190Y-128910819D01*
X98250476Y-130323200D02*
X98393333Y-130370819D01*
X98393333Y-130370819D02*
X98631428Y-130370819D01*
X98631428Y-130370819D02*
X98726666Y-130323200D01*
X98726666Y-130323200D02*
X98774285Y-130275580D01*
X98774285Y-130275580D02*
X98821904Y-130180342D01*
X98821904Y-130180342D02*
X98821904Y-130085104D01*
X98821904Y-130085104D02*
X98774285Y-129989866D01*
X98774285Y-129989866D02*
X98726666Y-129942247D01*
X98726666Y-129942247D02*
X98631428Y-129894628D01*
X98631428Y-129894628D02*
X98440952Y-129847009D01*
X98440952Y-129847009D02*
X98345714Y-129799390D01*
X98345714Y-129799390D02*
X98298095Y-129751771D01*
X98298095Y-129751771D02*
X98250476Y-129656533D01*
X98250476Y-129656533D02*
X98250476Y-129561295D01*
X98250476Y-129561295D02*
X98298095Y-129466057D01*
X98298095Y-129466057D02*
X98345714Y-129418438D01*
X98345714Y-129418438D02*
X98440952Y-129370819D01*
X98440952Y-129370819D02*
X98679047Y-129370819D01*
X98679047Y-129370819D02*
X98821904Y-129418438D01*
X99155238Y-129370819D02*
X99393333Y-130370819D01*
X99393333Y-130370819D02*
X99583809Y-129656533D01*
X99583809Y-129656533D02*
X99774285Y-130370819D01*
X99774285Y-130370819D02*
X100012381Y-129370819D01*
X100917142Y-130370819D02*
X100345714Y-130370819D01*
X100631428Y-130370819D02*
X100631428Y-129370819D01*
X100631428Y-129370819D02*
X100536190Y-129513676D01*
X100536190Y-129513676D02*
X100440952Y-129608914D01*
X100440952Y-129608914D02*
X100345714Y-129656533D01*
X101536190Y-129370819D02*
X101631428Y-129370819D01*
X101631428Y-129370819D02*
X101726666Y-129418438D01*
X101726666Y-129418438D02*
X101774285Y-129466057D01*
X101774285Y-129466057D02*
X101821904Y-129561295D01*
X101821904Y-129561295D02*
X101869523Y-129751771D01*
X101869523Y-129751771D02*
X101869523Y-129989866D01*
X101869523Y-129989866D02*
X101821904Y-130180342D01*
X101821904Y-130180342D02*
X101774285Y-130275580D01*
X101774285Y-130275580D02*
X101726666Y-130323200D01*
X101726666Y-130323200D02*
X101631428Y-130370819D01*
X101631428Y-130370819D02*
X101536190Y-130370819D01*
X101536190Y-130370819D02*
X101440952Y-130323200D01*
X101440952Y-130323200D02*
X101393333Y-130275580D01*
X101393333Y-130275580D02*
X101345714Y-130180342D01*
X101345714Y-130180342D02*
X101298095Y-129989866D01*
X101298095Y-129989866D02*
X101298095Y-129751771D01*
X101298095Y-129751771D02*
X101345714Y-129561295D01*
X101345714Y-129561295D02*
X101393333Y-129466057D01*
X101393333Y-129466057D02*
X101440952Y-129418438D01*
X101440952Y-129418438D02*
X101536190Y-129370819D01*
X198360476Y-93863200D02*
X198503333Y-93910819D01*
X198503333Y-93910819D02*
X198741428Y-93910819D01*
X198741428Y-93910819D02*
X198836666Y-93863200D01*
X198836666Y-93863200D02*
X198884285Y-93815580D01*
X198884285Y-93815580D02*
X198931904Y-93720342D01*
X198931904Y-93720342D02*
X198931904Y-93625104D01*
X198931904Y-93625104D02*
X198884285Y-93529866D01*
X198884285Y-93529866D02*
X198836666Y-93482247D01*
X198836666Y-93482247D02*
X198741428Y-93434628D01*
X198741428Y-93434628D02*
X198550952Y-93387009D01*
X198550952Y-93387009D02*
X198455714Y-93339390D01*
X198455714Y-93339390D02*
X198408095Y-93291771D01*
X198408095Y-93291771D02*
X198360476Y-93196533D01*
X198360476Y-93196533D02*
X198360476Y-93101295D01*
X198360476Y-93101295D02*
X198408095Y-93006057D01*
X198408095Y-93006057D02*
X198455714Y-92958438D01*
X198455714Y-92958438D02*
X198550952Y-92910819D01*
X198550952Y-92910819D02*
X198789047Y-92910819D01*
X198789047Y-92910819D02*
X198931904Y-92958438D01*
X199265238Y-92910819D02*
X199503333Y-93910819D01*
X199503333Y-93910819D02*
X199693809Y-93196533D01*
X199693809Y-93196533D02*
X199884285Y-93910819D01*
X199884285Y-93910819D02*
X200122381Y-92910819D01*
X200408095Y-92910819D02*
X201027142Y-92910819D01*
X201027142Y-92910819D02*
X200693809Y-93291771D01*
X200693809Y-93291771D02*
X200836666Y-93291771D01*
X200836666Y-93291771D02*
X200931904Y-93339390D01*
X200931904Y-93339390D02*
X200979523Y-93387009D01*
X200979523Y-93387009D02*
X201027142Y-93482247D01*
X201027142Y-93482247D02*
X201027142Y-93720342D01*
X201027142Y-93720342D02*
X200979523Y-93815580D01*
X200979523Y-93815580D02*
X200931904Y-93863200D01*
X200931904Y-93863200D02*
X200836666Y-93910819D01*
X200836666Y-93910819D02*
X200550952Y-93910819D01*
X200550952Y-93910819D02*
X200455714Y-93863200D01*
X200455714Y-93863200D02*
X200408095Y-93815580D01*
X201360476Y-92910819D02*
X201979523Y-92910819D01*
X201979523Y-92910819D02*
X201646190Y-93291771D01*
X201646190Y-93291771D02*
X201789047Y-93291771D01*
X201789047Y-93291771D02*
X201884285Y-93339390D01*
X201884285Y-93339390D02*
X201931904Y-93387009D01*
X201931904Y-93387009D02*
X201979523Y-93482247D01*
X201979523Y-93482247D02*
X201979523Y-93720342D01*
X201979523Y-93720342D02*
X201931904Y-93815580D01*
X201931904Y-93815580D02*
X201884285Y-93863200D01*
X201884285Y-93863200D02*
X201789047Y-93910819D01*
X201789047Y-93910819D02*
X201503333Y-93910819D01*
X201503333Y-93910819D02*
X201408095Y-93863200D01*
X201408095Y-93863200D02*
X201360476Y-93815580D01*
X117750476Y-63823200D02*
X117893333Y-63870819D01*
X117893333Y-63870819D02*
X118131428Y-63870819D01*
X118131428Y-63870819D02*
X118226666Y-63823200D01*
X118226666Y-63823200D02*
X118274285Y-63775580D01*
X118274285Y-63775580D02*
X118321904Y-63680342D01*
X118321904Y-63680342D02*
X118321904Y-63585104D01*
X118321904Y-63585104D02*
X118274285Y-63489866D01*
X118274285Y-63489866D02*
X118226666Y-63442247D01*
X118226666Y-63442247D02*
X118131428Y-63394628D01*
X118131428Y-63394628D02*
X117940952Y-63347009D01*
X117940952Y-63347009D02*
X117845714Y-63299390D01*
X117845714Y-63299390D02*
X117798095Y-63251771D01*
X117798095Y-63251771D02*
X117750476Y-63156533D01*
X117750476Y-63156533D02*
X117750476Y-63061295D01*
X117750476Y-63061295D02*
X117798095Y-62966057D01*
X117798095Y-62966057D02*
X117845714Y-62918438D01*
X117845714Y-62918438D02*
X117940952Y-62870819D01*
X117940952Y-62870819D02*
X118179047Y-62870819D01*
X118179047Y-62870819D02*
X118321904Y-62918438D01*
X118655238Y-62870819D02*
X118893333Y-63870819D01*
X118893333Y-63870819D02*
X119083809Y-63156533D01*
X119083809Y-63156533D02*
X119274285Y-63870819D01*
X119274285Y-63870819D02*
X119512381Y-62870819D01*
X120417142Y-63870819D02*
X119845714Y-63870819D01*
X120131428Y-63870819D02*
X120131428Y-62870819D01*
X120131428Y-62870819D02*
X120036190Y-63013676D01*
X120036190Y-63013676D02*
X119940952Y-63108914D01*
X119940952Y-63108914D02*
X119845714Y-63156533D01*
X120798095Y-62966057D02*
X120845714Y-62918438D01*
X120845714Y-62918438D02*
X120940952Y-62870819D01*
X120940952Y-62870819D02*
X121179047Y-62870819D01*
X121179047Y-62870819D02*
X121274285Y-62918438D01*
X121274285Y-62918438D02*
X121321904Y-62966057D01*
X121321904Y-62966057D02*
X121369523Y-63061295D01*
X121369523Y-63061295D02*
X121369523Y-63156533D01*
X121369523Y-63156533D02*
X121321904Y-63299390D01*
X121321904Y-63299390D02*
X120750476Y-63870819D01*
X120750476Y-63870819D02*
X121369523Y-63870819D01*
X202940476Y-132783200D02*
X203083333Y-132830819D01*
X203083333Y-132830819D02*
X203321428Y-132830819D01*
X203321428Y-132830819D02*
X203416666Y-132783200D01*
X203416666Y-132783200D02*
X203464285Y-132735580D01*
X203464285Y-132735580D02*
X203511904Y-132640342D01*
X203511904Y-132640342D02*
X203511904Y-132545104D01*
X203511904Y-132545104D02*
X203464285Y-132449866D01*
X203464285Y-132449866D02*
X203416666Y-132402247D01*
X203416666Y-132402247D02*
X203321428Y-132354628D01*
X203321428Y-132354628D02*
X203130952Y-132307009D01*
X203130952Y-132307009D02*
X203035714Y-132259390D01*
X203035714Y-132259390D02*
X202988095Y-132211771D01*
X202988095Y-132211771D02*
X202940476Y-132116533D01*
X202940476Y-132116533D02*
X202940476Y-132021295D01*
X202940476Y-132021295D02*
X202988095Y-131926057D01*
X202988095Y-131926057D02*
X203035714Y-131878438D01*
X203035714Y-131878438D02*
X203130952Y-131830819D01*
X203130952Y-131830819D02*
X203369047Y-131830819D01*
X203369047Y-131830819D02*
X203511904Y-131878438D01*
X203845238Y-131830819D02*
X204083333Y-132830819D01*
X204083333Y-132830819D02*
X204273809Y-132116533D01*
X204273809Y-132116533D02*
X204464285Y-132830819D01*
X204464285Y-132830819D02*
X204702381Y-131830819D01*
X204988095Y-131830819D02*
X205607142Y-131830819D01*
X205607142Y-131830819D02*
X205273809Y-132211771D01*
X205273809Y-132211771D02*
X205416666Y-132211771D01*
X205416666Y-132211771D02*
X205511904Y-132259390D01*
X205511904Y-132259390D02*
X205559523Y-132307009D01*
X205559523Y-132307009D02*
X205607142Y-132402247D01*
X205607142Y-132402247D02*
X205607142Y-132640342D01*
X205607142Y-132640342D02*
X205559523Y-132735580D01*
X205559523Y-132735580D02*
X205511904Y-132783200D01*
X205511904Y-132783200D02*
X205416666Y-132830819D01*
X205416666Y-132830819D02*
X205130952Y-132830819D01*
X205130952Y-132830819D02*
X205035714Y-132783200D01*
X205035714Y-132783200D02*
X204988095Y-132735580D01*
X206511904Y-131830819D02*
X206035714Y-131830819D01*
X206035714Y-131830819D02*
X205988095Y-132307009D01*
X205988095Y-132307009D02*
X206035714Y-132259390D01*
X206035714Y-132259390D02*
X206130952Y-132211771D01*
X206130952Y-132211771D02*
X206369047Y-132211771D01*
X206369047Y-132211771D02*
X206464285Y-132259390D01*
X206464285Y-132259390D02*
X206511904Y-132307009D01*
X206511904Y-132307009D02*
X206559523Y-132402247D01*
X206559523Y-132402247D02*
X206559523Y-132640342D01*
X206559523Y-132640342D02*
X206511904Y-132735580D01*
X206511904Y-132735580D02*
X206464285Y-132783200D01*
X206464285Y-132783200D02*
X206369047Y-132830819D01*
X206369047Y-132830819D02*
X206130952Y-132830819D01*
X206130952Y-132830819D02*
X206035714Y-132783200D01*
X206035714Y-132783200D02*
X205988095Y-132735580D01*
X137400476Y-59323200D02*
X137543333Y-59370819D01*
X137543333Y-59370819D02*
X137781428Y-59370819D01*
X137781428Y-59370819D02*
X137876666Y-59323200D01*
X137876666Y-59323200D02*
X137924285Y-59275580D01*
X137924285Y-59275580D02*
X137971904Y-59180342D01*
X137971904Y-59180342D02*
X137971904Y-59085104D01*
X137971904Y-59085104D02*
X137924285Y-58989866D01*
X137924285Y-58989866D02*
X137876666Y-58942247D01*
X137876666Y-58942247D02*
X137781428Y-58894628D01*
X137781428Y-58894628D02*
X137590952Y-58847009D01*
X137590952Y-58847009D02*
X137495714Y-58799390D01*
X137495714Y-58799390D02*
X137448095Y-58751771D01*
X137448095Y-58751771D02*
X137400476Y-58656533D01*
X137400476Y-58656533D02*
X137400476Y-58561295D01*
X137400476Y-58561295D02*
X137448095Y-58466057D01*
X137448095Y-58466057D02*
X137495714Y-58418438D01*
X137495714Y-58418438D02*
X137590952Y-58370819D01*
X137590952Y-58370819D02*
X137829047Y-58370819D01*
X137829047Y-58370819D02*
X137971904Y-58418438D01*
X138305238Y-58370819D02*
X138543333Y-59370819D01*
X138543333Y-59370819D02*
X138733809Y-58656533D01*
X138733809Y-58656533D02*
X138924285Y-59370819D01*
X138924285Y-59370819D02*
X139162381Y-58370819D01*
X140067142Y-59370819D02*
X139495714Y-59370819D01*
X139781428Y-59370819D02*
X139781428Y-58370819D01*
X139781428Y-58370819D02*
X139686190Y-58513676D01*
X139686190Y-58513676D02*
X139590952Y-58608914D01*
X139590952Y-58608914D02*
X139495714Y-58656533D01*
X140400476Y-58370819D02*
X141067142Y-58370819D01*
X141067142Y-58370819D02*
X140638571Y-59370819D01*
X74416667Y-71783200D02*
X74559524Y-71830819D01*
X74559524Y-71830819D02*
X74797619Y-71830819D01*
X74797619Y-71830819D02*
X74892857Y-71783200D01*
X74892857Y-71783200D02*
X74940476Y-71735580D01*
X74940476Y-71735580D02*
X74988095Y-71640342D01*
X74988095Y-71640342D02*
X74988095Y-71545104D01*
X74988095Y-71545104D02*
X74940476Y-71449866D01*
X74940476Y-71449866D02*
X74892857Y-71402247D01*
X74892857Y-71402247D02*
X74797619Y-71354628D01*
X74797619Y-71354628D02*
X74607143Y-71307009D01*
X74607143Y-71307009D02*
X74511905Y-71259390D01*
X74511905Y-71259390D02*
X74464286Y-71211771D01*
X74464286Y-71211771D02*
X74416667Y-71116533D01*
X74416667Y-71116533D02*
X74416667Y-71021295D01*
X74416667Y-71021295D02*
X74464286Y-70926057D01*
X74464286Y-70926057D02*
X74511905Y-70878438D01*
X74511905Y-70878438D02*
X74607143Y-70830819D01*
X74607143Y-70830819D02*
X74845238Y-70830819D01*
X74845238Y-70830819D02*
X74988095Y-70878438D01*
X75321429Y-70830819D02*
X75559524Y-71830819D01*
X75559524Y-71830819D02*
X75750000Y-71116533D01*
X75750000Y-71116533D02*
X75940476Y-71830819D01*
X75940476Y-71830819D02*
X76178572Y-70830819D01*
X77083333Y-71830819D02*
X76511905Y-71830819D01*
X76797619Y-71830819D02*
X76797619Y-70830819D01*
X76797619Y-70830819D02*
X76702381Y-70973676D01*
X76702381Y-70973676D02*
X76607143Y-71068914D01*
X76607143Y-71068914D02*
X76511905Y-71116533D01*
X74496667Y-130323200D02*
X74639524Y-130370819D01*
X74639524Y-130370819D02*
X74877619Y-130370819D01*
X74877619Y-130370819D02*
X74972857Y-130323200D01*
X74972857Y-130323200D02*
X75020476Y-130275580D01*
X75020476Y-130275580D02*
X75068095Y-130180342D01*
X75068095Y-130180342D02*
X75068095Y-130085104D01*
X75068095Y-130085104D02*
X75020476Y-129989866D01*
X75020476Y-129989866D02*
X74972857Y-129942247D01*
X74972857Y-129942247D02*
X74877619Y-129894628D01*
X74877619Y-129894628D02*
X74687143Y-129847009D01*
X74687143Y-129847009D02*
X74591905Y-129799390D01*
X74591905Y-129799390D02*
X74544286Y-129751771D01*
X74544286Y-129751771D02*
X74496667Y-129656533D01*
X74496667Y-129656533D02*
X74496667Y-129561295D01*
X74496667Y-129561295D02*
X74544286Y-129466057D01*
X74544286Y-129466057D02*
X74591905Y-129418438D01*
X74591905Y-129418438D02*
X74687143Y-129370819D01*
X74687143Y-129370819D02*
X74925238Y-129370819D01*
X74925238Y-129370819D02*
X75068095Y-129418438D01*
X75401429Y-129370819D02*
X75639524Y-130370819D01*
X75639524Y-130370819D02*
X75830000Y-129656533D01*
X75830000Y-129656533D02*
X76020476Y-130370819D01*
X76020476Y-130370819D02*
X76258572Y-129370819D01*
X77115714Y-129370819D02*
X76639524Y-129370819D01*
X76639524Y-129370819D02*
X76591905Y-129847009D01*
X76591905Y-129847009D02*
X76639524Y-129799390D01*
X76639524Y-129799390D02*
X76734762Y-129751771D01*
X76734762Y-129751771D02*
X76972857Y-129751771D01*
X76972857Y-129751771D02*
X77068095Y-129799390D01*
X77068095Y-129799390D02*
X77115714Y-129847009D01*
X77115714Y-129847009D02*
X77163333Y-129942247D01*
X77163333Y-129942247D02*
X77163333Y-130180342D01*
X77163333Y-130180342D02*
X77115714Y-130275580D01*
X77115714Y-130275580D02*
X77068095Y-130323200D01*
X77068095Y-130323200D02*
X76972857Y-130370819D01*
X76972857Y-130370819D02*
X76734762Y-130370819D01*
X76734762Y-130370819D02*
X76639524Y-130323200D01*
X76639524Y-130323200D02*
X76591905Y-130275580D01*
X199031190Y-137118599D02*
X198031190Y-137118599D01*
X198031190Y-137118599D02*
X198031190Y-136880504D01*
X198031190Y-136880504D02*
X198078809Y-136737647D01*
X198078809Y-136737647D02*
X198174047Y-136642409D01*
X198174047Y-136642409D02*
X198269285Y-136594790D01*
X198269285Y-136594790D02*
X198459761Y-136547171D01*
X198459761Y-136547171D02*
X198602618Y-136547171D01*
X198602618Y-136547171D02*
X198793094Y-136594790D01*
X198793094Y-136594790D02*
X198888332Y-136642409D01*
X198888332Y-136642409D02*
X198983571Y-136737647D01*
X198983571Y-136737647D02*
X199031190Y-136880504D01*
X199031190Y-136880504D02*
X199031190Y-137118599D01*
X198031190Y-136213837D02*
X198031190Y-135594790D01*
X198031190Y-135594790D02*
X198412142Y-135928123D01*
X198412142Y-135928123D02*
X198412142Y-135785266D01*
X198412142Y-135785266D02*
X198459761Y-135690028D01*
X198459761Y-135690028D02*
X198507380Y-135642409D01*
X198507380Y-135642409D02*
X198602618Y-135594790D01*
X198602618Y-135594790D02*
X198840713Y-135594790D01*
X198840713Y-135594790D02*
X198935951Y-135642409D01*
X198935951Y-135642409D02*
X198983571Y-135690028D01*
X198983571Y-135690028D02*
X199031190Y-135785266D01*
X199031190Y-135785266D02*
X199031190Y-136070980D01*
X199031190Y-136070980D02*
X198983571Y-136166218D01*
X198983571Y-136166218D02*
X198935951Y-136213837D01*
X198031190Y-134690028D02*
X198031190Y-135166218D01*
X198031190Y-135166218D02*
X198507380Y-135213837D01*
X198507380Y-135213837D02*
X198459761Y-135166218D01*
X198459761Y-135166218D02*
X198412142Y-135070980D01*
X198412142Y-135070980D02*
X198412142Y-134832885D01*
X198412142Y-134832885D02*
X198459761Y-134737647D01*
X198459761Y-134737647D02*
X198507380Y-134690028D01*
X198507380Y-134690028D02*
X198602618Y-134642409D01*
X198602618Y-134642409D02*
X198840713Y-134642409D01*
X198840713Y-134642409D02*
X198935951Y-134690028D01*
X198935951Y-134690028D02*
X198983571Y-134737647D01*
X198983571Y-134737647D02*
X199031190Y-134832885D01*
X199031190Y-134832885D02*
X199031190Y-135070980D01*
X199031190Y-135070980D02*
X198983571Y-135166218D01*
X198983571Y-135166218D02*
X198935951Y-135213837D01*
X195619104Y-136547408D02*
X195619104Y-136071218D01*
X195904819Y-136642646D02*
X194904819Y-136309313D01*
X194904819Y-136309313D02*
X195904819Y-135975980D01*
X196824819Y-117334285D02*
X195824819Y-117334285D01*
X195824819Y-117334285D02*
X195824819Y-117096190D01*
X195824819Y-117096190D02*
X195872438Y-116953333D01*
X195872438Y-116953333D02*
X195967676Y-116858095D01*
X195967676Y-116858095D02*
X196062914Y-116810476D01*
X196062914Y-116810476D02*
X196253390Y-116762857D01*
X196253390Y-116762857D02*
X196396247Y-116762857D01*
X196396247Y-116762857D02*
X196586723Y-116810476D01*
X196586723Y-116810476D02*
X196681961Y-116858095D01*
X196681961Y-116858095D02*
X196777200Y-116953333D01*
X196777200Y-116953333D02*
X196824819Y-117096190D01*
X196824819Y-117096190D02*
X196824819Y-117334285D01*
X195824819Y-116429523D02*
X195824819Y-115810476D01*
X195824819Y-115810476D02*
X196205771Y-116143809D01*
X196205771Y-116143809D02*
X196205771Y-116000952D01*
X196205771Y-116000952D02*
X196253390Y-115905714D01*
X196253390Y-115905714D02*
X196301009Y-115858095D01*
X196301009Y-115858095D02*
X196396247Y-115810476D01*
X196396247Y-115810476D02*
X196634342Y-115810476D01*
X196634342Y-115810476D02*
X196729580Y-115858095D01*
X196729580Y-115858095D02*
X196777200Y-115905714D01*
X196777200Y-115905714D02*
X196824819Y-116000952D01*
X196824819Y-116000952D02*
X196824819Y-116286666D01*
X196824819Y-116286666D02*
X196777200Y-116381904D01*
X196777200Y-116381904D02*
X196729580Y-116429523D01*
X196158152Y-114953333D02*
X196824819Y-114953333D01*
X195777200Y-115191428D02*
X196491485Y-115429523D01*
X196491485Y-115429523D02*
X196491485Y-114810476D01*
X193119104Y-117298094D02*
X193119104Y-116821904D01*
X193404819Y-117393332D02*
X192404819Y-117059999D01*
X192404819Y-117059999D02*
X193404819Y-116726666D01*
X194474819Y-98484285D02*
X193474819Y-98484285D01*
X193474819Y-98484285D02*
X193474819Y-98246190D01*
X193474819Y-98246190D02*
X193522438Y-98103333D01*
X193522438Y-98103333D02*
X193617676Y-98008095D01*
X193617676Y-98008095D02*
X193712914Y-97960476D01*
X193712914Y-97960476D02*
X193903390Y-97912857D01*
X193903390Y-97912857D02*
X194046247Y-97912857D01*
X194046247Y-97912857D02*
X194236723Y-97960476D01*
X194236723Y-97960476D02*
X194331961Y-98008095D01*
X194331961Y-98008095D02*
X194427200Y-98103333D01*
X194427200Y-98103333D02*
X194474819Y-98246190D01*
X194474819Y-98246190D02*
X194474819Y-98484285D01*
X193474819Y-97579523D02*
X193474819Y-96960476D01*
X193474819Y-96960476D02*
X193855771Y-97293809D01*
X193855771Y-97293809D02*
X193855771Y-97150952D01*
X193855771Y-97150952D02*
X193903390Y-97055714D01*
X193903390Y-97055714D02*
X193951009Y-97008095D01*
X193951009Y-97008095D02*
X194046247Y-96960476D01*
X194046247Y-96960476D02*
X194284342Y-96960476D01*
X194284342Y-96960476D02*
X194379580Y-97008095D01*
X194379580Y-97008095D02*
X194427200Y-97055714D01*
X194427200Y-97055714D02*
X194474819Y-97150952D01*
X194474819Y-97150952D02*
X194474819Y-97436666D01*
X194474819Y-97436666D02*
X194427200Y-97531904D01*
X194427200Y-97531904D02*
X194379580Y-97579523D01*
X193474819Y-96627142D02*
X193474819Y-96008095D01*
X193474819Y-96008095D02*
X193855771Y-96341428D01*
X193855771Y-96341428D02*
X193855771Y-96198571D01*
X193855771Y-96198571D02*
X193903390Y-96103333D01*
X193903390Y-96103333D02*
X193951009Y-96055714D01*
X193951009Y-96055714D02*
X194046247Y-96008095D01*
X194046247Y-96008095D02*
X194284342Y-96008095D01*
X194284342Y-96008095D02*
X194379580Y-96055714D01*
X194379580Y-96055714D02*
X194427200Y-96103333D01*
X194427200Y-96103333D02*
X194474819Y-96198571D01*
X194474819Y-96198571D02*
X194474819Y-96484285D01*
X194474819Y-96484285D02*
X194427200Y-96579523D01*
X194427200Y-96579523D02*
X194379580Y-96627142D01*
X190969104Y-98038094D02*
X190969104Y-97561904D01*
X191254819Y-98133332D02*
X190254819Y-97799999D01*
X190254819Y-97799999D02*
X191254819Y-97466666D01*
X192031190Y-78619285D02*
X191031190Y-78619285D01*
X191031190Y-78619285D02*
X191031190Y-78381190D01*
X191031190Y-78381190D02*
X191078809Y-78238333D01*
X191078809Y-78238333D02*
X191174047Y-78143095D01*
X191174047Y-78143095D02*
X191269285Y-78095476D01*
X191269285Y-78095476D02*
X191459761Y-78047857D01*
X191459761Y-78047857D02*
X191602618Y-78047857D01*
X191602618Y-78047857D02*
X191793094Y-78095476D01*
X191793094Y-78095476D02*
X191888332Y-78143095D01*
X191888332Y-78143095D02*
X191983571Y-78238333D01*
X191983571Y-78238333D02*
X192031190Y-78381190D01*
X192031190Y-78381190D02*
X192031190Y-78619285D01*
X191031190Y-77714523D02*
X191031190Y-77095476D01*
X191031190Y-77095476D02*
X191412142Y-77428809D01*
X191412142Y-77428809D02*
X191412142Y-77285952D01*
X191412142Y-77285952D02*
X191459761Y-77190714D01*
X191459761Y-77190714D02*
X191507380Y-77143095D01*
X191507380Y-77143095D02*
X191602618Y-77095476D01*
X191602618Y-77095476D02*
X191840713Y-77095476D01*
X191840713Y-77095476D02*
X191935951Y-77143095D01*
X191935951Y-77143095D02*
X191983571Y-77190714D01*
X191983571Y-77190714D02*
X192031190Y-77285952D01*
X192031190Y-77285952D02*
X192031190Y-77571666D01*
X192031190Y-77571666D02*
X191983571Y-77666904D01*
X191983571Y-77666904D02*
X191935951Y-77714523D01*
X191126428Y-76714523D02*
X191078809Y-76666904D01*
X191078809Y-76666904D02*
X191031190Y-76571666D01*
X191031190Y-76571666D02*
X191031190Y-76333571D01*
X191031190Y-76333571D02*
X191078809Y-76238333D01*
X191078809Y-76238333D02*
X191126428Y-76190714D01*
X191126428Y-76190714D02*
X191221666Y-76143095D01*
X191221666Y-76143095D02*
X191316904Y-76143095D01*
X191316904Y-76143095D02*
X191459761Y-76190714D01*
X191459761Y-76190714D02*
X192031190Y-76762142D01*
X192031190Y-76762142D02*
X192031190Y-76143095D01*
X188619104Y-78048094D02*
X188619104Y-77571904D01*
X188904819Y-78143332D02*
X187904819Y-77809999D01*
X187904819Y-77809999D02*
X188904819Y-77476666D01*
X192031190Y-59368599D02*
X191031190Y-59368599D01*
X191031190Y-59368599D02*
X191031190Y-59130504D01*
X191031190Y-59130504D02*
X191078809Y-58987647D01*
X191078809Y-58987647D02*
X191174047Y-58892409D01*
X191174047Y-58892409D02*
X191269285Y-58844790D01*
X191269285Y-58844790D02*
X191459761Y-58797171D01*
X191459761Y-58797171D02*
X191602618Y-58797171D01*
X191602618Y-58797171D02*
X191793094Y-58844790D01*
X191793094Y-58844790D02*
X191888332Y-58892409D01*
X191888332Y-58892409D02*
X191983571Y-58987647D01*
X191983571Y-58987647D02*
X192031190Y-59130504D01*
X192031190Y-59130504D02*
X192031190Y-59368599D01*
X191031190Y-58463837D02*
X191031190Y-57844790D01*
X191031190Y-57844790D02*
X191412142Y-58178123D01*
X191412142Y-58178123D02*
X191412142Y-58035266D01*
X191412142Y-58035266D02*
X191459761Y-57940028D01*
X191459761Y-57940028D02*
X191507380Y-57892409D01*
X191507380Y-57892409D02*
X191602618Y-57844790D01*
X191602618Y-57844790D02*
X191840713Y-57844790D01*
X191840713Y-57844790D02*
X191935951Y-57892409D01*
X191935951Y-57892409D02*
X191983571Y-57940028D01*
X191983571Y-57940028D02*
X192031190Y-58035266D01*
X192031190Y-58035266D02*
X192031190Y-58320980D01*
X192031190Y-58320980D02*
X191983571Y-58416218D01*
X191983571Y-58416218D02*
X191935951Y-58463837D01*
X192031190Y-56892409D02*
X192031190Y-57463837D01*
X192031190Y-57178123D02*
X191031190Y-57178123D01*
X191031190Y-57178123D02*
X191174047Y-57273361D01*
X191174047Y-57273361D02*
X191269285Y-57368599D01*
X191269285Y-57368599D02*
X191316904Y-57463837D01*
X188619104Y-58797408D02*
X188619104Y-58321218D01*
X188904819Y-58892646D02*
X187904819Y-58559313D01*
X187904819Y-58559313D02*
X188904819Y-58225980D01*
X172281190Y-133869285D02*
X171281190Y-133869285D01*
X171281190Y-133869285D02*
X171281190Y-133631190D01*
X171281190Y-133631190D02*
X171328809Y-133488333D01*
X171328809Y-133488333D02*
X171424047Y-133393095D01*
X171424047Y-133393095D02*
X171519285Y-133345476D01*
X171519285Y-133345476D02*
X171709761Y-133297857D01*
X171709761Y-133297857D02*
X171852618Y-133297857D01*
X171852618Y-133297857D02*
X172043094Y-133345476D01*
X172043094Y-133345476D02*
X172138332Y-133393095D01*
X172138332Y-133393095D02*
X172233571Y-133488333D01*
X172233571Y-133488333D02*
X172281190Y-133631190D01*
X172281190Y-133631190D02*
X172281190Y-133869285D01*
X171281190Y-132964523D02*
X171281190Y-132345476D01*
X171281190Y-132345476D02*
X171662142Y-132678809D01*
X171662142Y-132678809D02*
X171662142Y-132535952D01*
X171662142Y-132535952D02*
X171709761Y-132440714D01*
X171709761Y-132440714D02*
X171757380Y-132393095D01*
X171757380Y-132393095D02*
X171852618Y-132345476D01*
X171852618Y-132345476D02*
X172090713Y-132345476D01*
X172090713Y-132345476D02*
X172185951Y-132393095D01*
X172185951Y-132393095D02*
X172233571Y-132440714D01*
X172233571Y-132440714D02*
X172281190Y-132535952D01*
X172281190Y-132535952D02*
X172281190Y-132821666D01*
X172281190Y-132821666D02*
X172233571Y-132916904D01*
X172233571Y-132916904D02*
X172185951Y-132964523D01*
X171281190Y-131726428D02*
X171281190Y-131631190D01*
X171281190Y-131631190D02*
X171328809Y-131535952D01*
X171328809Y-131535952D02*
X171376428Y-131488333D01*
X171376428Y-131488333D02*
X171471666Y-131440714D01*
X171471666Y-131440714D02*
X171662142Y-131393095D01*
X171662142Y-131393095D02*
X171900237Y-131393095D01*
X171900237Y-131393095D02*
X172090713Y-131440714D01*
X172090713Y-131440714D02*
X172185951Y-131488333D01*
X172185951Y-131488333D02*
X172233571Y-131535952D01*
X172233571Y-131535952D02*
X172281190Y-131631190D01*
X172281190Y-131631190D02*
X172281190Y-131726428D01*
X172281190Y-131726428D02*
X172233571Y-131821666D01*
X172233571Y-131821666D02*
X172185951Y-131869285D01*
X172185951Y-131869285D02*
X172090713Y-131916904D01*
X172090713Y-131916904D02*
X171900237Y-131964523D01*
X171900237Y-131964523D02*
X171662142Y-131964523D01*
X171662142Y-131964523D02*
X171471666Y-131916904D01*
X171471666Y-131916904D02*
X171376428Y-131869285D01*
X171376428Y-131869285D02*
X171328809Y-131821666D01*
X171328809Y-131821666D02*
X171281190Y-131726428D01*
X168869104Y-133298094D02*
X168869104Y-132821904D01*
X169154819Y-133393332D02*
X168154819Y-133059999D01*
X168154819Y-133059999D02*
X169154819Y-132726666D01*
X172281190Y-114868599D02*
X171281190Y-114868599D01*
X171281190Y-114868599D02*
X171281190Y-114630504D01*
X171281190Y-114630504D02*
X171328809Y-114487647D01*
X171328809Y-114487647D02*
X171424047Y-114392409D01*
X171424047Y-114392409D02*
X171519285Y-114344790D01*
X171519285Y-114344790D02*
X171709761Y-114297171D01*
X171709761Y-114297171D02*
X171852618Y-114297171D01*
X171852618Y-114297171D02*
X172043094Y-114344790D01*
X172043094Y-114344790D02*
X172138332Y-114392409D01*
X172138332Y-114392409D02*
X172233571Y-114487647D01*
X172233571Y-114487647D02*
X172281190Y-114630504D01*
X172281190Y-114630504D02*
X172281190Y-114868599D01*
X171376428Y-113916218D02*
X171328809Y-113868599D01*
X171328809Y-113868599D02*
X171281190Y-113773361D01*
X171281190Y-113773361D02*
X171281190Y-113535266D01*
X171281190Y-113535266D02*
X171328809Y-113440028D01*
X171328809Y-113440028D02*
X171376428Y-113392409D01*
X171376428Y-113392409D02*
X171471666Y-113344790D01*
X171471666Y-113344790D02*
X171566904Y-113344790D01*
X171566904Y-113344790D02*
X171709761Y-113392409D01*
X171709761Y-113392409D02*
X172281190Y-113963837D01*
X172281190Y-113963837D02*
X172281190Y-113344790D01*
X172281190Y-112868599D02*
X172281190Y-112678123D01*
X172281190Y-112678123D02*
X172233571Y-112582885D01*
X172233571Y-112582885D02*
X172185951Y-112535266D01*
X172185951Y-112535266D02*
X172043094Y-112440028D01*
X172043094Y-112440028D02*
X171852618Y-112392409D01*
X171852618Y-112392409D02*
X171471666Y-112392409D01*
X171471666Y-112392409D02*
X171376428Y-112440028D01*
X171376428Y-112440028D02*
X171328809Y-112487647D01*
X171328809Y-112487647D02*
X171281190Y-112582885D01*
X171281190Y-112582885D02*
X171281190Y-112773361D01*
X171281190Y-112773361D02*
X171328809Y-112868599D01*
X171328809Y-112868599D02*
X171376428Y-112916218D01*
X171376428Y-112916218D02*
X171471666Y-112963837D01*
X171471666Y-112963837D02*
X171709761Y-112963837D01*
X171709761Y-112963837D02*
X171804999Y-112916218D01*
X171804999Y-112916218D02*
X171852618Y-112868599D01*
X171852618Y-112868599D02*
X171900237Y-112773361D01*
X171900237Y-112773361D02*
X171900237Y-112582885D01*
X171900237Y-112582885D02*
X171852618Y-112487647D01*
X171852618Y-112487647D02*
X171804999Y-112440028D01*
X171804999Y-112440028D02*
X171709761Y-112392409D01*
X168869104Y-114297408D02*
X168869104Y-113821218D01*
X169154819Y-114392646D02*
X168154819Y-114059313D01*
X168154819Y-114059313D02*
X169154819Y-113725980D01*
X172281190Y-94869285D02*
X171281190Y-94869285D01*
X171281190Y-94869285D02*
X171281190Y-94631190D01*
X171281190Y-94631190D02*
X171328809Y-94488333D01*
X171328809Y-94488333D02*
X171424047Y-94393095D01*
X171424047Y-94393095D02*
X171519285Y-94345476D01*
X171519285Y-94345476D02*
X171709761Y-94297857D01*
X171709761Y-94297857D02*
X171852618Y-94297857D01*
X171852618Y-94297857D02*
X172043094Y-94345476D01*
X172043094Y-94345476D02*
X172138332Y-94393095D01*
X172138332Y-94393095D02*
X172233571Y-94488333D01*
X172233571Y-94488333D02*
X172281190Y-94631190D01*
X172281190Y-94631190D02*
X172281190Y-94869285D01*
X171376428Y-93916904D02*
X171328809Y-93869285D01*
X171328809Y-93869285D02*
X171281190Y-93774047D01*
X171281190Y-93774047D02*
X171281190Y-93535952D01*
X171281190Y-93535952D02*
X171328809Y-93440714D01*
X171328809Y-93440714D02*
X171376428Y-93393095D01*
X171376428Y-93393095D02*
X171471666Y-93345476D01*
X171471666Y-93345476D02*
X171566904Y-93345476D01*
X171566904Y-93345476D02*
X171709761Y-93393095D01*
X171709761Y-93393095D02*
X172281190Y-93964523D01*
X172281190Y-93964523D02*
X172281190Y-93345476D01*
X171709761Y-92774047D02*
X171662142Y-92869285D01*
X171662142Y-92869285D02*
X171614523Y-92916904D01*
X171614523Y-92916904D02*
X171519285Y-92964523D01*
X171519285Y-92964523D02*
X171471666Y-92964523D01*
X171471666Y-92964523D02*
X171376428Y-92916904D01*
X171376428Y-92916904D02*
X171328809Y-92869285D01*
X171328809Y-92869285D02*
X171281190Y-92774047D01*
X171281190Y-92774047D02*
X171281190Y-92583571D01*
X171281190Y-92583571D02*
X171328809Y-92488333D01*
X171328809Y-92488333D02*
X171376428Y-92440714D01*
X171376428Y-92440714D02*
X171471666Y-92393095D01*
X171471666Y-92393095D02*
X171519285Y-92393095D01*
X171519285Y-92393095D02*
X171614523Y-92440714D01*
X171614523Y-92440714D02*
X171662142Y-92488333D01*
X171662142Y-92488333D02*
X171709761Y-92583571D01*
X171709761Y-92583571D02*
X171709761Y-92774047D01*
X171709761Y-92774047D02*
X171757380Y-92869285D01*
X171757380Y-92869285D02*
X171804999Y-92916904D01*
X171804999Y-92916904D02*
X171900237Y-92964523D01*
X171900237Y-92964523D02*
X172090713Y-92964523D01*
X172090713Y-92964523D02*
X172185951Y-92916904D01*
X172185951Y-92916904D02*
X172233571Y-92869285D01*
X172233571Y-92869285D02*
X172281190Y-92774047D01*
X172281190Y-92774047D02*
X172281190Y-92583571D01*
X172281190Y-92583571D02*
X172233571Y-92488333D01*
X172233571Y-92488333D02*
X172185951Y-92440714D01*
X172185951Y-92440714D02*
X172090713Y-92393095D01*
X172090713Y-92393095D02*
X171900237Y-92393095D01*
X171900237Y-92393095D02*
X171804999Y-92440714D01*
X171804999Y-92440714D02*
X171757380Y-92488333D01*
X171757380Y-92488333D02*
X171709761Y-92583571D01*
X168869104Y-94298094D02*
X168869104Y-93821904D01*
X169154819Y-94393332D02*
X168154819Y-94059999D01*
X168154819Y-94059999D02*
X169154819Y-93726666D01*
X172531190Y-75119285D02*
X171531190Y-75119285D01*
X171531190Y-75119285D02*
X171531190Y-74881190D01*
X171531190Y-74881190D02*
X171578809Y-74738333D01*
X171578809Y-74738333D02*
X171674047Y-74643095D01*
X171674047Y-74643095D02*
X171769285Y-74595476D01*
X171769285Y-74595476D02*
X171959761Y-74547857D01*
X171959761Y-74547857D02*
X172102618Y-74547857D01*
X172102618Y-74547857D02*
X172293094Y-74595476D01*
X172293094Y-74595476D02*
X172388332Y-74643095D01*
X172388332Y-74643095D02*
X172483571Y-74738333D01*
X172483571Y-74738333D02*
X172531190Y-74881190D01*
X172531190Y-74881190D02*
X172531190Y-75119285D01*
X171626428Y-74166904D02*
X171578809Y-74119285D01*
X171578809Y-74119285D02*
X171531190Y-74024047D01*
X171531190Y-74024047D02*
X171531190Y-73785952D01*
X171531190Y-73785952D02*
X171578809Y-73690714D01*
X171578809Y-73690714D02*
X171626428Y-73643095D01*
X171626428Y-73643095D02*
X171721666Y-73595476D01*
X171721666Y-73595476D02*
X171816904Y-73595476D01*
X171816904Y-73595476D02*
X171959761Y-73643095D01*
X171959761Y-73643095D02*
X172531190Y-74214523D01*
X172531190Y-74214523D02*
X172531190Y-73595476D01*
X171531190Y-73262142D02*
X171531190Y-72595476D01*
X171531190Y-72595476D02*
X172531190Y-73024047D01*
X169119104Y-74548094D02*
X169119104Y-74071904D01*
X169404819Y-74643332D02*
X168404819Y-74309999D01*
X168404819Y-74309999D02*
X169404819Y-73976666D01*
X172531190Y-55869285D02*
X171531190Y-55869285D01*
X171531190Y-55869285D02*
X171531190Y-55631190D01*
X171531190Y-55631190D02*
X171578809Y-55488333D01*
X171578809Y-55488333D02*
X171674047Y-55393095D01*
X171674047Y-55393095D02*
X171769285Y-55345476D01*
X171769285Y-55345476D02*
X171959761Y-55297857D01*
X171959761Y-55297857D02*
X172102618Y-55297857D01*
X172102618Y-55297857D02*
X172293094Y-55345476D01*
X172293094Y-55345476D02*
X172388332Y-55393095D01*
X172388332Y-55393095D02*
X172483571Y-55488333D01*
X172483571Y-55488333D02*
X172531190Y-55631190D01*
X172531190Y-55631190D02*
X172531190Y-55869285D01*
X171626428Y-54916904D02*
X171578809Y-54869285D01*
X171578809Y-54869285D02*
X171531190Y-54774047D01*
X171531190Y-54774047D02*
X171531190Y-54535952D01*
X171531190Y-54535952D02*
X171578809Y-54440714D01*
X171578809Y-54440714D02*
X171626428Y-54393095D01*
X171626428Y-54393095D02*
X171721666Y-54345476D01*
X171721666Y-54345476D02*
X171816904Y-54345476D01*
X171816904Y-54345476D02*
X171959761Y-54393095D01*
X171959761Y-54393095D02*
X172531190Y-54964523D01*
X172531190Y-54964523D02*
X172531190Y-54345476D01*
X171531190Y-53488333D02*
X171531190Y-53678809D01*
X171531190Y-53678809D02*
X171578809Y-53774047D01*
X171578809Y-53774047D02*
X171626428Y-53821666D01*
X171626428Y-53821666D02*
X171769285Y-53916904D01*
X171769285Y-53916904D02*
X171959761Y-53964523D01*
X171959761Y-53964523D02*
X172340713Y-53964523D01*
X172340713Y-53964523D02*
X172435951Y-53916904D01*
X172435951Y-53916904D02*
X172483571Y-53869285D01*
X172483571Y-53869285D02*
X172531190Y-53774047D01*
X172531190Y-53774047D02*
X172531190Y-53583571D01*
X172531190Y-53583571D02*
X172483571Y-53488333D01*
X172483571Y-53488333D02*
X172435951Y-53440714D01*
X172435951Y-53440714D02*
X172340713Y-53393095D01*
X172340713Y-53393095D02*
X172102618Y-53393095D01*
X172102618Y-53393095D02*
X172007380Y-53440714D01*
X172007380Y-53440714D02*
X171959761Y-53488333D01*
X171959761Y-53488333D02*
X171912142Y-53583571D01*
X171912142Y-53583571D02*
X171912142Y-53774047D01*
X171912142Y-53774047D02*
X171959761Y-53869285D01*
X171959761Y-53869285D02*
X172007380Y-53916904D01*
X172007380Y-53916904D02*
X172102618Y-53964523D01*
X169119104Y-55298094D02*
X169119104Y-54821904D01*
X169404819Y-55393332D02*
X168404819Y-55059999D01*
X168404819Y-55059999D02*
X169404819Y-54726666D01*
X152781190Y-129119285D02*
X151781190Y-129119285D01*
X151781190Y-129119285D02*
X151781190Y-128881190D01*
X151781190Y-128881190D02*
X151828809Y-128738333D01*
X151828809Y-128738333D02*
X151924047Y-128643095D01*
X151924047Y-128643095D02*
X152019285Y-128595476D01*
X152019285Y-128595476D02*
X152209761Y-128547857D01*
X152209761Y-128547857D02*
X152352618Y-128547857D01*
X152352618Y-128547857D02*
X152543094Y-128595476D01*
X152543094Y-128595476D02*
X152638332Y-128643095D01*
X152638332Y-128643095D02*
X152733571Y-128738333D01*
X152733571Y-128738333D02*
X152781190Y-128881190D01*
X152781190Y-128881190D02*
X152781190Y-129119285D01*
X151876428Y-128166904D02*
X151828809Y-128119285D01*
X151828809Y-128119285D02*
X151781190Y-128024047D01*
X151781190Y-128024047D02*
X151781190Y-127785952D01*
X151781190Y-127785952D02*
X151828809Y-127690714D01*
X151828809Y-127690714D02*
X151876428Y-127643095D01*
X151876428Y-127643095D02*
X151971666Y-127595476D01*
X151971666Y-127595476D02*
X152066904Y-127595476D01*
X152066904Y-127595476D02*
X152209761Y-127643095D01*
X152209761Y-127643095D02*
X152781190Y-128214523D01*
X152781190Y-128214523D02*
X152781190Y-127595476D01*
X151781190Y-126690714D02*
X151781190Y-127166904D01*
X151781190Y-127166904D02*
X152257380Y-127214523D01*
X152257380Y-127214523D02*
X152209761Y-127166904D01*
X152209761Y-127166904D02*
X152162142Y-127071666D01*
X152162142Y-127071666D02*
X152162142Y-126833571D01*
X152162142Y-126833571D02*
X152209761Y-126738333D01*
X152209761Y-126738333D02*
X152257380Y-126690714D01*
X152257380Y-126690714D02*
X152352618Y-126643095D01*
X152352618Y-126643095D02*
X152590713Y-126643095D01*
X152590713Y-126643095D02*
X152685951Y-126690714D01*
X152685951Y-126690714D02*
X152733571Y-126738333D01*
X152733571Y-126738333D02*
X152781190Y-126833571D01*
X152781190Y-126833571D02*
X152781190Y-127071666D01*
X152781190Y-127071666D02*
X152733571Y-127166904D01*
X152733571Y-127166904D02*
X152685951Y-127214523D01*
X149369104Y-128548094D02*
X149369104Y-128071904D01*
X149654819Y-128643332D02*
X148654819Y-128309999D01*
X148654819Y-128309999D02*
X149654819Y-127976666D01*
X152781190Y-109619285D02*
X151781190Y-109619285D01*
X151781190Y-109619285D02*
X151781190Y-109381190D01*
X151781190Y-109381190D02*
X151828809Y-109238333D01*
X151828809Y-109238333D02*
X151924047Y-109143095D01*
X151924047Y-109143095D02*
X152019285Y-109095476D01*
X152019285Y-109095476D02*
X152209761Y-109047857D01*
X152209761Y-109047857D02*
X152352618Y-109047857D01*
X152352618Y-109047857D02*
X152543094Y-109095476D01*
X152543094Y-109095476D02*
X152638332Y-109143095D01*
X152638332Y-109143095D02*
X152733571Y-109238333D01*
X152733571Y-109238333D02*
X152781190Y-109381190D01*
X152781190Y-109381190D02*
X152781190Y-109619285D01*
X151876428Y-108666904D02*
X151828809Y-108619285D01*
X151828809Y-108619285D02*
X151781190Y-108524047D01*
X151781190Y-108524047D02*
X151781190Y-108285952D01*
X151781190Y-108285952D02*
X151828809Y-108190714D01*
X151828809Y-108190714D02*
X151876428Y-108143095D01*
X151876428Y-108143095D02*
X151971666Y-108095476D01*
X151971666Y-108095476D02*
X152066904Y-108095476D01*
X152066904Y-108095476D02*
X152209761Y-108143095D01*
X152209761Y-108143095D02*
X152781190Y-108714523D01*
X152781190Y-108714523D02*
X152781190Y-108095476D01*
X152114523Y-107238333D02*
X152781190Y-107238333D01*
X151733571Y-107476428D02*
X152447856Y-107714523D01*
X152447856Y-107714523D02*
X152447856Y-107095476D01*
X149369104Y-109048094D02*
X149369104Y-108571904D01*
X149654819Y-109143332D02*
X148654819Y-108809999D01*
X148654819Y-108809999D02*
X149654819Y-108476666D01*
X152781190Y-90369285D02*
X151781190Y-90369285D01*
X151781190Y-90369285D02*
X151781190Y-90131190D01*
X151781190Y-90131190D02*
X151828809Y-89988333D01*
X151828809Y-89988333D02*
X151924047Y-89893095D01*
X151924047Y-89893095D02*
X152019285Y-89845476D01*
X152019285Y-89845476D02*
X152209761Y-89797857D01*
X152209761Y-89797857D02*
X152352618Y-89797857D01*
X152352618Y-89797857D02*
X152543094Y-89845476D01*
X152543094Y-89845476D02*
X152638332Y-89893095D01*
X152638332Y-89893095D02*
X152733571Y-89988333D01*
X152733571Y-89988333D02*
X152781190Y-90131190D01*
X152781190Y-90131190D02*
X152781190Y-90369285D01*
X151876428Y-89416904D02*
X151828809Y-89369285D01*
X151828809Y-89369285D02*
X151781190Y-89274047D01*
X151781190Y-89274047D02*
X151781190Y-89035952D01*
X151781190Y-89035952D02*
X151828809Y-88940714D01*
X151828809Y-88940714D02*
X151876428Y-88893095D01*
X151876428Y-88893095D02*
X151971666Y-88845476D01*
X151971666Y-88845476D02*
X152066904Y-88845476D01*
X152066904Y-88845476D02*
X152209761Y-88893095D01*
X152209761Y-88893095D02*
X152781190Y-89464523D01*
X152781190Y-89464523D02*
X152781190Y-88845476D01*
X151781190Y-88512142D02*
X151781190Y-87893095D01*
X151781190Y-87893095D02*
X152162142Y-88226428D01*
X152162142Y-88226428D02*
X152162142Y-88083571D01*
X152162142Y-88083571D02*
X152209761Y-87988333D01*
X152209761Y-87988333D02*
X152257380Y-87940714D01*
X152257380Y-87940714D02*
X152352618Y-87893095D01*
X152352618Y-87893095D02*
X152590713Y-87893095D01*
X152590713Y-87893095D02*
X152685951Y-87940714D01*
X152685951Y-87940714D02*
X152733571Y-87988333D01*
X152733571Y-87988333D02*
X152781190Y-88083571D01*
X152781190Y-88083571D02*
X152781190Y-88369285D01*
X152781190Y-88369285D02*
X152733571Y-88464523D01*
X152733571Y-88464523D02*
X152685951Y-88512142D01*
X149369104Y-89798094D02*
X149369104Y-89321904D01*
X149654819Y-89893332D02*
X148654819Y-89559999D01*
X148654819Y-89559999D02*
X149654819Y-89226666D01*
X153031190Y-70619285D02*
X152031190Y-70619285D01*
X152031190Y-70619285D02*
X152031190Y-70381190D01*
X152031190Y-70381190D02*
X152078809Y-70238333D01*
X152078809Y-70238333D02*
X152174047Y-70143095D01*
X152174047Y-70143095D02*
X152269285Y-70095476D01*
X152269285Y-70095476D02*
X152459761Y-70047857D01*
X152459761Y-70047857D02*
X152602618Y-70047857D01*
X152602618Y-70047857D02*
X152793094Y-70095476D01*
X152793094Y-70095476D02*
X152888332Y-70143095D01*
X152888332Y-70143095D02*
X152983571Y-70238333D01*
X152983571Y-70238333D02*
X153031190Y-70381190D01*
X153031190Y-70381190D02*
X153031190Y-70619285D01*
X152126428Y-69666904D02*
X152078809Y-69619285D01*
X152078809Y-69619285D02*
X152031190Y-69524047D01*
X152031190Y-69524047D02*
X152031190Y-69285952D01*
X152031190Y-69285952D02*
X152078809Y-69190714D01*
X152078809Y-69190714D02*
X152126428Y-69143095D01*
X152126428Y-69143095D02*
X152221666Y-69095476D01*
X152221666Y-69095476D02*
X152316904Y-69095476D01*
X152316904Y-69095476D02*
X152459761Y-69143095D01*
X152459761Y-69143095D02*
X153031190Y-69714523D01*
X153031190Y-69714523D02*
X153031190Y-69095476D01*
X152126428Y-68714523D02*
X152078809Y-68666904D01*
X152078809Y-68666904D02*
X152031190Y-68571666D01*
X152031190Y-68571666D02*
X152031190Y-68333571D01*
X152031190Y-68333571D02*
X152078809Y-68238333D01*
X152078809Y-68238333D02*
X152126428Y-68190714D01*
X152126428Y-68190714D02*
X152221666Y-68143095D01*
X152221666Y-68143095D02*
X152316904Y-68143095D01*
X152316904Y-68143095D02*
X152459761Y-68190714D01*
X152459761Y-68190714D02*
X153031190Y-68762142D01*
X153031190Y-68762142D02*
X153031190Y-68143095D01*
X149619104Y-70048094D02*
X149619104Y-69571904D01*
X149904819Y-70143332D02*
X148904819Y-69809999D01*
X148904819Y-69809999D02*
X149904819Y-69476666D01*
X153031190Y-50619285D02*
X152031190Y-50619285D01*
X152031190Y-50619285D02*
X152031190Y-50381190D01*
X152031190Y-50381190D02*
X152078809Y-50238333D01*
X152078809Y-50238333D02*
X152174047Y-50143095D01*
X152174047Y-50143095D02*
X152269285Y-50095476D01*
X152269285Y-50095476D02*
X152459761Y-50047857D01*
X152459761Y-50047857D02*
X152602618Y-50047857D01*
X152602618Y-50047857D02*
X152793094Y-50095476D01*
X152793094Y-50095476D02*
X152888332Y-50143095D01*
X152888332Y-50143095D02*
X152983571Y-50238333D01*
X152983571Y-50238333D02*
X153031190Y-50381190D01*
X153031190Y-50381190D02*
X153031190Y-50619285D01*
X152126428Y-49666904D02*
X152078809Y-49619285D01*
X152078809Y-49619285D02*
X152031190Y-49524047D01*
X152031190Y-49524047D02*
X152031190Y-49285952D01*
X152031190Y-49285952D02*
X152078809Y-49190714D01*
X152078809Y-49190714D02*
X152126428Y-49143095D01*
X152126428Y-49143095D02*
X152221666Y-49095476D01*
X152221666Y-49095476D02*
X152316904Y-49095476D01*
X152316904Y-49095476D02*
X152459761Y-49143095D01*
X152459761Y-49143095D02*
X153031190Y-49714523D01*
X153031190Y-49714523D02*
X153031190Y-49095476D01*
X153031190Y-48143095D02*
X153031190Y-48714523D01*
X153031190Y-48428809D02*
X152031190Y-48428809D01*
X152031190Y-48428809D02*
X152174047Y-48524047D01*
X152174047Y-48524047D02*
X152269285Y-48619285D01*
X152269285Y-48619285D02*
X152316904Y-48714523D01*
X149619104Y-50048094D02*
X149619104Y-49571904D01*
X149904819Y-50143332D02*
X148904819Y-49809999D01*
X148904819Y-49809999D02*
X149904819Y-49476666D01*
X133514819Y-121614285D02*
X132514819Y-121614285D01*
X132514819Y-121614285D02*
X132514819Y-121376190D01*
X132514819Y-121376190D02*
X132562438Y-121233333D01*
X132562438Y-121233333D02*
X132657676Y-121138095D01*
X132657676Y-121138095D02*
X132752914Y-121090476D01*
X132752914Y-121090476D02*
X132943390Y-121042857D01*
X132943390Y-121042857D02*
X133086247Y-121042857D01*
X133086247Y-121042857D02*
X133276723Y-121090476D01*
X133276723Y-121090476D02*
X133371961Y-121138095D01*
X133371961Y-121138095D02*
X133467200Y-121233333D01*
X133467200Y-121233333D02*
X133514819Y-121376190D01*
X133514819Y-121376190D02*
X133514819Y-121614285D01*
X132610057Y-120661904D02*
X132562438Y-120614285D01*
X132562438Y-120614285D02*
X132514819Y-120519047D01*
X132514819Y-120519047D02*
X132514819Y-120280952D01*
X132514819Y-120280952D02*
X132562438Y-120185714D01*
X132562438Y-120185714D02*
X132610057Y-120138095D01*
X132610057Y-120138095D02*
X132705295Y-120090476D01*
X132705295Y-120090476D02*
X132800533Y-120090476D01*
X132800533Y-120090476D02*
X132943390Y-120138095D01*
X132943390Y-120138095D02*
X133514819Y-120709523D01*
X133514819Y-120709523D02*
X133514819Y-120090476D01*
X132514819Y-119471428D02*
X132514819Y-119376190D01*
X132514819Y-119376190D02*
X132562438Y-119280952D01*
X132562438Y-119280952D02*
X132610057Y-119233333D01*
X132610057Y-119233333D02*
X132705295Y-119185714D01*
X132705295Y-119185714D02*
X132895771Y-119138095D01*
X132895771Y-119138095D02*
X133133866Y-119138095D01*
X133133866Y-119138095D02*
X133324342Y-119185714D01*
X133324342Y-119185714D02*
X133419580Y-119233333D01*
X133419580Y-119233333D02*
X133467200Y-119280952D01*
X133467200Y-119280952D02*
X133514819Y-119376190D01*
X133514819Y-119376190D02*
X133514819Y-119471428D01*
X133514819Y-119471428D02*
X133467200Y-119566666D01*
X133467200Y-119566666D02*
X133419580Y-119614285D01*
X133419580Y-119614285D02*
X133324342Y-119661904D01*
X133324342Y-119661904D02*
X133133866Y-119709523D01*
X133133866Y-119709523D02*
X132895771Y-119709523D01*
X132895771Y-119709523D02*
X132705295Y-119661904D01*
X132705295Y-119661904D02*
X132610057Y-119614285D01*
X132610057Y-119614285D02*
X132562438Y-119566666D01*
X132562438Y-119566666D02*
X132514819Y-119471428D01*
X129869104Y-121048094D02*
X129869104Y-120571904D01*
X130154819Y-121143332D02*
X129154819Y-120809999D01*
X129154819Y-120809999D02*
X130154819Y-120476666D01*
X133734819Y-102364285D02*
X132734819Y-102364285D01*
X132734819Y-102364285D02*
X132734819Y-102126190D01*
X132734819Y-102126190D02*
X132782438Y-101983333D01*
X132782438Y-101983333D02*
X132877676Y-101888095D01*
X132877676Y-101888095D02*
X132972914Y-101840476D01*
X132972914Y-101840476D02*
X133163390Y-101792857D01*
X133163390Y-101792857D02*
X133306247Y-101792857D01*
X133306247Y-101792857D02*
X133496723Y-101840476D01*
X133496723Y-101840476D02*
X133591961Y-101888095D01*
X133591961Y-101888095D02*
X133687200Y-101983333D01*
X133687200Y-101983333D02*
X133734819Y-102126190D01*
X133734819Y-102126190D02*
X133734819Y-102364285D01*
X133734819Y-100840476D02*
X133734819Y-101411904D01*
X133734819Y-101126190D02*
X132734819Y-101126190D01*
X132734819Y-101126190D02*
X132877676Y-101221428D01*
X132877676Y-101221428D02*
X132972914Y-101316666D01*
X132972914Y-101316666D02*
X133020533Y-101411904D01*
X133734819Y-100364285D02*
X133734819Y-100173809D01*
X133734819Y-100173809D02*
X133687200Y-100078571D01*
X133687200Y-100078571D02*
X133639580Y-100030952D01*
X133639580Y-100030952D02*
X133496723Y-99935714D01*
X133496723Y-99935714D02*
X133306247Y-99888095D01*
X133306247Y-99888095D02*
X132925295Y-99888095D01*
X132925295Y-99888095D02*
X132830057Y-99935714D01*
X132830057Y-99935714D02*
X132782438Y-99983333D01*
X132782438Y-99983333D02*
X132734819Y-100078571D01*
X132734819Y-100078571D02*
X132734819Y-100269047D01*
X132734819Y-100269047D02*
X132782438Y-100364285D01*
X132782438Y-100364285D02*
X132830057Y-100411904D01*
X132830057Y-100411904D02*
X132925295Y-100459523D01*
X132925295Y-100459523D02*
X133163390Y-100459523D01*
X133163390Y-100459523D02*
X133258628Y-100411904D01*
X133258628Y-100411904D02*
X133306247Y-100364285D01*
X133306247Y-100364285D02*
X133353866Y-100269047D01*
X133353866Y-100269047D02*
X133353866Y-100078571D01*
X133353866Y-100078571D02*
X133306247Y-99983333D01*
X133306247Y-99983333D02*
X133258628Y-99935714D01*
X133258628Y-99935714D02*
X133163390Y-99888095D01*
X129869104Y-101798094D02*
X129869104Y-101321904D01*
X130154819Y-101893332D02*
X129154819Y-101559999D01*
X129154819Y-101559999D02*
X130154819Y-101226666D01*
X133594819Y-83124285D02*
X132594819Y-83124285D01*
X132594819Y-83124285D02*
X132594819Y-82886190D01*
X132594819Y-82886190D02*
X132642438Y-82743333D01*
X132642438Y-82743333D02*
X132737676Y-82648095D01*
X132737676Y-82648095D02*
X132832914Y-82600476D01*
X132832914Y-82600476D02*
X133023390Y-82552857D01*
X133023390Y-82552857D02*
X133166247Y-82552857D01*
X133166247Y-82552857D02*
X133356723Y-82600476D01*
X133356723Y-82600476D02*
X133451961Y-82648095D01*
X133451961Y-82648095D02*
X133547200Y-82743333D01*
X133547200Y-82743333D02*
X133594819Y-82886190D01*
X133594819Y-82886190D02*
X133594819Y-83124285D01*
X133594819Y-81600476D02*
X133594819Y-82171904D01*
X133594819Y-81886190D02*
X132594819Y-81886190D01*
X132594819Y-81886190D02*
X132737676Y-81981428D01*
X132737676Y-81981428D02*
X132832914Y-82076666D01*
X132832914Y-82076666D02*
X132880533Y-82171904D01*
X133023390Y-81029047D02*
X132975771Y-81124285D01*
X132975771Y-81124285D02*
X132928152Y-81171904D01*
X132928152Y-81171904D02*
X132832914Y-81219523D01*
X132832914Y-81219523D02*
X132785295Y-81219523D01*
X132785295Y-81219523D02*
X132690057Y-81171904D01*
X132690057Y-81171904D02*
X132642438Y-81124285D01*
X132642438Y-81124285D02*
X132594819Y-81029047D01*
X132594819Y-81029047D02*
X132594819Y-80838571D01*
X132594819Y-80838571D02*
X132642438Y-80743333D01*
X132642438Y-80743333D02*
X132690057Y-80695714D01*
X132690057Y-80695714D02*
X132785295Y-80648095D01*
X132785295Y-80648095D02*
X132832914Y-80648095D01*
X132832914Y-80648095D02*
X132928152Y-80695714D01*
X132928152Y-80695714D02*
X132975771Y-80743333D01*
X132975771Y-80743333D02*
X133023390Y-80838571D01*
X133023390Y-80838571D02*
X133023390Y-81029047D01*
X133023390Y-81029047D02*
X133071009Y-81124285D01*
X133071009Y-81124285D02*
X133118628Y-81171904D01*
X133118628Y-81171904D02*
X133213866Y-81219523D01*
X133213866Y-81219523D02*
X133404342Y-81219523D01*
X133404342Y-81219523D02*
X133499580Y-81171904D01*
X133499580Y-81171904D02*
X133547200Y-81124285D01*
X133547200Y-81124285D02*
X133594819Y-81029047D01*
X133594819Y-81029047D02*
X133594819Y-80838571D01*
X133594819Y-80838571D02*
X133547200Y-80743333D01*
X133547200Y-80743333D02*
X133499580Y-80695714D01*
X133499580Y-80695714D02*
X133404342Y-80648095D01*
X133404342Y-80648095D02*
X133213866Y-80648095D01*
X133213866Y-80648095D02*
X133118628Y-80695714D01*
X133118628Y-80695714D02*
X133071009Y-80743333D01*
X133071009Y-80743333D02*
X133023390Y-80838571D01*
X129869104Y-82798094D02*
X129869104Y-82321904D01*
X130154819Y-82893332D02*
X129154819Y-82559999D01*
X129154819Y-82559999D02*
X130154819Y-82226666D01*
X133531190Y-63369285D02*
X132531190Y-63369285D01*
X132531190Y-63369285D02*
X132531190Y-63131190D01*
X132531190Y-63131190D02*
X132578809Y-62988333D01*
X132578809Y-62988333D02*
X132674047Y-62893095D01*
X132674047Y-62893095D02*
X132769285Y-62845476D01*
X132769285Y-62845476D02*
X132959761Y-62797857D01*
X132959761Y-62797857D02*
X133102618Y-62797857D01*
X133102618Y-62797857D02*
X133293094Y-62845476D01*
X133293094Y-62845476D02*
X133388332Y-62893095D01*
X133388332Y-62893095D02*
X133483571Y-62988333D01*
X133483571Y-62988333D02*
X133531190Y-63131190D01*
X133531190Y-63131190D02*
X133531190Y-63369285D01*
X133531190Y-61845476D02*
X133531190Y-62416904D01*
X133531190Y-62131190D02*
X132531190Y-62131190D01*
X132531190Y-62131190D02*
X132674047Y-62226428D01*
X132674047Y-62226428D02*
X132769285Y-62321666D01*
X132769285Y-62321666D02*
X132816904Y-62416904D01*
X132531190Y-61512142D02*
X132531190Y-60845476D01*
X132531190Y-60845476D02*
X133531190Y-61274047D01*
X130119104Y-62798094D02*
X130119104Y-62321904D01*
X130404819Y-62893332D02*
X129404819Y-62559999D01*
X129404819Y-62559999D02*
X130404819Y-62226666D01*
X133531190Y-43869285D02*
X132531190Y-43869285D01*
X132531190Y-43869285D02*
X132531190Y-43631190D01*
X132531190Y-43631190D02*
X132578809Y-43488333D01*
X132578809Y-43488333D02*
X132674047Y-43393095D01*
X132674047Y-43393095D02*
X132769285Y-43345476D01*
X132769285Y-43345476D02*
X132959761Y-43297857D01*
X132959761Y-43297857D02*
X133102618Y-43297857D01*
X133102618Y-43297857D02*
X133293094Y-43345476D01*
X133293094Y-43345476D02*
X133388332Y-43393095D01*
X133388332Y-43393095D02*
X133483571Y-43488333D01*
X133483571Y-43488333D02*
X133531190Y-43631190D01*
X133531190Y-43631190D02*
X133531190Y-43869285D01*
X133531190Y-42345476D02*
X133531190Y-42916904D01*
X133531190Y-42631190D02*
X132531190Y-42631190D01*
X132531190Y-42631190D02*
X132674047Y-42726428D01*
X132674047Y-42726428D02*
X132769285Y-42821666D01*
X132769285Y-42821666D02*
X132816904Y-42916904D01*
X132531190Y-41488333D02*
X132531190Y-41678809D01*
X132531190Y-41678809D02*
X132578809Y-41774047D01*
X132578809Y-41774047D02*
X132626428Y-41821666D01*
X132626428Y-41821666D02*
X132769285Y-41916904D01*
X132769285Y-41916904D02*
X132959761Y-41964523D01*
X132959761Y-41964523D02*
X133340713Y-41964523D01*
X133340713Y-41964523D02*
X133435951Y-41916904D01*
X133435951Y-41916904D02*
X133483571Y-41869285D01*
X133483571Y-41869285D02*
X133531190Y-41774047D01*
X133531190Y-41774047D02*
X133531190Y-41583571D01*
X133531190Y-41583571D02*
X133483571Y-41488333D01*
X133483571Y-41488333D02*
X133435951Y-41440714D01*
X133435951Y-41440714D02*
X133340713Y-41393095D01*
X133340713Y-41393095D02*
X133102618Y-41393095D01*
X133102618Y-41393095D02*
X133007380Y-41440714D01*
X133007380Y-41440714D02*
X132959761Y-41488333D01*
X132959761Y-41488333D02*
X132912142Y-41583571D01*
X132912142Y-41583571D02*
X132912142Y-41774047D01*
X132912142Y-41774047D02*
X132959761Y-41869285D01*
X132959761Y-41869285D02*
X133007380Y-41916904D01*
X133007380Y-41916904D02*
X133102618Y-41964523D01*
X130119104Y-43298094D02*
X130119104Y-42821904D01*
X130404819Y-43393332D02*
X129404819Y-43059999D01*
X129404819Y-43059999D02*
X130404819Y-42726666D01*
X113781190Y-126119285D02*
X112781190Y-126119285D01*
X112781190Y-126119285D02*
X112781190Y-125881190D01*
X112781190Y-125881190D02*
X112828809Y-125738333D01*
X112828809Y-125738333D02*
X112924047Y-125643095D01*
X112924047Y-125643095D02*
X113019285Y-125595476D01*
X113019285Y-125595476D02*
X113209761Y-125547857D01*
X113209761Y-125547857D02*
X113352618Y-125547857D01*
X113352618Y-125547857D02*
X113543094Y-125595476D01*
X113543094Y-125595476D02*
X113638332Y-125643095D01*
X113638332Y-125643095D02*
X113733571Y-125738333D01*
X113733571Y-125738333D02*
X113781190Y-125881190D01*
X113781190Y-125881190D02*
X113781190Y-126119285D01*
X113781190Y-124595476D02*
X113781190Y-125166904D01*
X113781190Y-124881190D02*
X112781190Y-124881190D01*
X112781190Y-124881190D02*
X112924047Y-124976428D01*
X112924047Y-124976428D02*
X113019285Y-125071666D01*
X113019285Y-125071666D02*
X113066904Y-125166904D01*
X112781190Y-123690714D02*
X112781190Y-124166904D01*
X112781190Y-124166904D02*
X113257380Y-124214523D01*
X113257380Y-124214523D02*
X113209761Y-124166904D01*
X113209761Y-124166904D02*
X113162142Y-124071666D01*
X113162142Y-124071666D02*
X113162142Y-123833571D01*
X113162142Y-123833571D02*
X113209761Y-123738333D01*
X113209761Y-123738333D02*
X113257380Y-123690714D01*
X113257380Y-123690714D02*
X113352618Y-123643095D01*
X113352618Y-123643095D02*
X113590713Y-123643095D01*
X113590713Y-123643095D02*
X113685951Y-123690714D01*
X113685951Y-123690714D02*
X113733571Y-123738333D01*
X113733571Y-123738333D02*
X113781190Y-123833571D01*
X113781190Y-123833571D02*
X113781190Y-124071666D01*
X113781190Y-124071666D02*
X113733571Y-124166904D01*
X113733571Y-124166904D02*
X113685951Y-124214523D01*
X110369104Y-125548094D02*
X110369104Y-125071904D01*
X110654819Y-125643332D02*
X109654819Y-125309999D01*
X109654819Y-125309999D02*
X110654819Y-124976666D01*
X113781190Y-106369285D02*
X112781190Y-106369285D01*
X112781190Y-106369285D02*
X112781190Y-106131190D01*
X112781190Y-106131190D02*
X112828809Y-105988333D01*
X112828809Y-105988333D02*
X112924047Y-105893095D01*
X112924047Y-105893095D02*
X113019285Y-105845476D01*
X113019285Y-105845476D02*
X113209761Y-105797857D01*
X113209761Y-105797857D02*
X113352618Y-105797857D01*
X113352618Y-105797857D02*
X113543094Y-105845476D01*
X113543094Y-105845476D02*
X113638332Y-105893095D01*
X113638332Y-105893095D02*
X113733571Y-105988333D01*
X113733571Y-105988333D02*
X113781190Y-106131190D01*
X113781190Y-106131190D02*
X113781190Y-106369285D01*
X113781190Y-104845476D02*
X113781190Y-105416904D01*
X113781190Y-105131190D02*
X112781190Y-105131190D01*
X112781190Y-105131190D02*
X112924047Y-105226428D01*
X112924047Y-105226428D02*
X113019285Y-105321666D01*
X113019285Y-105321666D02*
X113066904Y-105416904D01*
X113114523Y-103988333D02*
X113781190Y-103988333D01*
X112733571Y-104226428D02*
X113447856Y-104464523D01*
X113447856Y-104464523D02*
X113447856Y-103845476D01*
X110369104Y-105798094D02*
X110369104Y-105321904D01*
X110654819Y-105893332D02*
X109654819Y-105559999D01*
X109654819Y-105559999D02*
X110654819Y-105226666D01*
X113781190Y-87119285D02*
X112781190Y-87119285D01*
X112781190Y-87119285D02*
X112781190Y-86881190D01*
X112781190Y-86881190D02*
X112828809Y-86738333D01*
X112828809Y-86738333D02*
X112924047Y-86643095D01*
X112924047Y-86643095D02*
X113019285Y-86595476D01*
X113019285Y-86595476D02*
X113209761Y-86547857D01*
X113209761Y-86547857D02*
X113352618Y-86547857D01*
X113352618Y-86547857D02*
X113543094Y-86595476D01*
X113543094Y-86595476D02*
X113638332Y-86643095D01*
X113638332Y-86643095D02*
X113733571Y-86738333D01*
X113733571Y-86738333D02*
X113781190Y-86881190D01*
X113781190Y-86881190D02*
X113781190Y-87119285D01*
X113781190Y-85595476D02*
X113781190Y-86166904D01*
X113781190Y-85881190D02*
X112781190Y-85881190D01*
X112781190Y-85881190D02*
X112924047Y-85976428D01*
X112924047Y-85976428D02*
X113019285Y-86071666D01*
X113019285Y-86071666D02*
X113066904Y-86166904D01*
X112781190Y-85262142D02*
X112781190Y-84643095D01*
X112781190Y-84643095D02*
X113162142Y-84976428D01*
X113162142Y-84976428D02*
X113162142Y-84833571D01*
X113162142Y-84833571D02*
X113209761Y-84738333D01*
X113209761Y-84738333D02*
X113257380Y-84690714D01*
X113257380Y-84690714D02*
X113352618Y-84643095D01*
X113352618Y-84643095D02*
X113590713Y-84643095D01*
X113590713Y-84643095D02*
X113685951Y-84690714D01*
X113685951Y-84690714D02*
X113733571Y-84738333D01*
X113733571Y-84738333D02*
X113781190Y-84833571D01*
X113781190Y-84833571D02*
X113781190Y-85119285D01*
X113781190Y-85119285D02*
X113733571Y-85214523D01*
X113733571Y-85214523D02*
X113685951Y-85262142D01*
X110369104Y-86548094D02*
X110369104Y-86071904D01*
X110654819Y-86643332D02*
X109654819Y-86309999D01*
X109654819Y-86309999D02*
X110654819Y-85976666D01*
X113781190Y-67619285D02*
X112781190Y-67619285D01*
X112781190Y-67619285D02*
X112781190Y-67381190D01*
X112781190Y-67381190D02*
X112828809Y-67238333D01*
X112828809Y-67238333D02*
X112924047Y-67143095D01*
X112924047Y-67143095D02*
X113019285Y-67095476D01*
X113019285Y-67095476D02*
X113209761Y-67047857D01*
X113209761Y-67047857D02*
X113352618Y-67047857D01*
X113352618Y-67047857D02*
X113543094Y-67095476D01*
X113543094Y-67095476D02*
X113638332Y-67143095D01*
X113638332Y-67143095D02*
X113733571Y-67238333D01*
X113733571Y-67238333D02*
X113781190Y-67381190D01*
X113781190Y-67381190D02*
X113781190Y-67619285D01*
X113781190Y-66095476D02*
X113781190Y-66666904D01*
X113781190Y-66381190D02*
X112781190Y-66381190D01*
X112781190Y-66381190D02*
X112924047Y-66476428D01*
X112924047Y-66476428D02*
X113019285Y-66571666D01*
X113019285Y-66571666D02*
X113066904Y-66666904D01*
X112876428Y-65714523D02*
X112828809Y-65666904D01*
X112828809Y-65666904D02*
X112781190Y-65571666D01*
X112781190Y-65571666D02*
X112781190Y-65333571D01*
X112781190Y-65333571D02*
X112828809Y-65238333D01*
X112828809Y-65238333D02*
X112876428Y-65190714D01*
X112876428Y-65190714D02*
X112971666Y-65143095D01*
X112971666Y-65143095D02*
X113066904Y-65143095D01*
X113066904Y-65143095D02*
X113209761Y-65190714D01*
X113209761Y-65190714D02*
X113781190Y-65762142D01*
X113781190Y-65762142D02*
X113781190Y-65143095D01*
X110369104Y-67048094D02*
X110369104Y-66571904D01*
X110654819Y-67143332D02*
X109654819Y-66809999D01*
X109654819Y-66809999D02*
X110654819Y-66476666D01*
X113964819Y-47594285D02*
X112964819Y-47594285D01*
X112964819Y-47594285D02*
X112964819Y-47356190D01*
X112964819Y-47356190D02*
X113012438Y-47213333D01*
X113012438Y-47213333D02*
X113107676Y-47118095D01*
X113107676Y-47118095D02*
X113202914Y-47070476D01*
X113202914Y-47070476D02*
X113393390Y-47022857D01*
X113393390Y-47022857D02*
X113536247Y-47022857D01*
X113536247Y-47022857D02*
X113726723Y-47070476D01*
X113726723Y-47070476D02*
X113821961Y-47118095D01*
X113821961Y-47118095D02*
X113917200Y-47213333D01*
X113917200Y-47213333D02*
X113964819Y-47356190D01*
X113964819Y-47356190D02*
X113964819Y-47594285D01*
X113964819Y-46070476D02*
X113964819Y-46641904D01*
X113964819Y-46356190D02*
X112964819Y-46356190D01*
X112964819Y-46356190D02*
X113107676Y-46451428D01*
X113107676Y-46451428D02*
X113202914Y-46546666D01*
X113202914Y-46546666D02*
X113250533Y-46641904D01*
X113964819Y-45118095D02*
X113964819Y-45689523D01*
X113964819Y-45403809D02*
X112964819Y-45403809D01*
X112964819Y-45403809D02*
X113107676Y-45499047D01*
X113107676Y-45499047D02*
X113202914Y-45594285D01*
X113202914Y-45594285D02*
X113250533Y-45689523D01*
X110369104Y-46298094D02*
X110369104Y-45821904D01*
X110654819Y-46393332D02*
X109654819Y-46059999D01*
X109654819Y-46059999D02*
X110654819Y-45726666D01*
X94281190Y-133869285D02*
X93281190Y-133869285D01*
X93281190Y-133869285D02*
X93281190Y-133631190D01*
X93281190Y-133631190D02*
X93328809Y-133488333D01*
X93328809Y-133488333D02*
X93424047Y-133393095D01*
X93424047Y-133393095D02*
X93519285Y-133345476D01*
X93519285Y-133345476D02*
X93709761Y-133297857D01*
X93709761Y-133297857D02*
X93852618Y-133297857D01*
X93852618Y-133297857D02*
X94043094Y-133345476D01*
X94043094Y-133345476D02*
X94138332Y-133393095D01*
X94138332Y-133393095D02*
X94233571Y-133488333D01*
X94233571Y-133488333D02*
X94281190Y-133631190D01*
X94281190Y-133631190D02*
X94281190Y-133869285D01*
X94281190Y-132345476D02*
X94281190Y-132916904D01*
X94281190Y-132631190D02*
X93281190Y-132631190D01*
X93281190Y-132631190D02*
X93424047Y-132726428D01*
X93424047Y-132726428D02*
X93519285Y-132821666D01*
X93519285Y-132821666D02*
X93566904Y-132916904D01*
X93281190Y-131726428D02*
X93281190Y-131631190D01*
X93281190Y-131631190D02*
X93328809Y-131535952D01*
X93328809Y-131535952D02*
X93376428Y-131488333D01*
X93376428Y-131488333D02*
X93471666Y-131440714D01*
X93471666Y-131440714D02*
X93662142Y-131393095D01*
X93662142Y-131393095D02*
X93900237Y-131393095D01*
X93900237Y-131393095D02*
X94090713Y-131440714D01*
X94090713Y-131440714D02*
X94185951Y-131488333D01*
X94185951Y-131488333D02*
X94233571Y-131535952D01*
X94233571Y-131535952D02*
X94281190Y-131631190D01*
X94281190Y-131631190D02*
X94281190Y-131726428D01*
X94281190Y-131726428D02*
X94233571Y-131821666D01*
X94233571Y-131821666D02*
X94185951Y-131869285D01*
X94185951Y-131869285D02*
X94090713Y-131916904D01*
X94090713Y-131916904D02*
X93900237Y-131964523D01*
X93900237Y-131964523D02*
X93662142Y-131964523D01*
X93662142Y-131964523D02*
X93471666Y-131916904D01*
X93471666Y-131916904D02*
X93376428Y-131869285D01*
X93376428Y-131869285D02*
X93328809Y-131821666D01*
X93328809Y-131821666D02*
X93281190Y-131726428D01*
X90869104Y-133298094D02*
X90869104Y-132821904D01*
X91154819Y-133393332D02*
X90154819Y-133059999D01*
X90154819Y-133059999D02*
X91154819Y-132726666D01*
X94281190Y-114393094D02*
X93281190Y-114393094D01*
X93281190Y-114393094D02*
X93281190Y-114154999D01*
X93281190Y-114154999D02*
X93328809Y-114012142D01*
X93328809Y-114012142D02*
X93424047Y-113916904D01*
X93424047Y-113916904D02*
X93519285Y-113869285D01*
X93519285Y-113869285D02*
X93709761Y-113821666D01*
X93709761Y-113821666D02*
X93852618Y-113821666D01*
X93852618Y-113821666D02*
X94043094Y-113869285D01*
X94043094Y-113869285D02*
X94138332Y-113916904D01*
X94138332Y-113916904D02*
X94233571Y-114012142D01*
X94233571Y-114012142D02*
X94281190Y-114154999D01*
X94281190Y-114154999D02*
X94281190Y-114393094D01*
X94281190Y-113345475D02*
X94281190Y-113154999D01*
X94281190Y-113154999D02*
X94233571Y-113059761D01*
X94233571Y-113059761D02*
X94185951Y-113012142D01*
X94185951Y-113012142D02*
X94043094Y-112916904D01*
X94043094Y-112916904D02*
X93852618Y-112869285D01*
X93852618Y-112869285D02*
X93471666Y-112869285D01*
X93471666Y-112869285D02*
X93376428Y-112916904D01*
X93376428Y-112916904D02*
X93328809Y-112964523D01*
X93328809Y-112964523D02*
X93281190Y-113059761D01*
X93281190Y-113059761D02*
X93281190Y-113250237D01*
X93281190Y-113250237D02*
X93328809Y-113345475D01*
X93328809Y-113345475D02*
X93376428Y-113393094D01*
X93376428Y-113393094D02*
X93471666Y-113440713D01*
X93471666Y-113440713D02*
X93709761Y-113440713D01*
X93709761Y-113440713D02*
X93804999Y-113393094D01*
X93804999Y-113393094D02*
X93852618Y-113345475D01*
X93852618Y-113345475D02*
X93900237Y-113250237D01*
X93900237Y-113250237D02*
X93900237Y-113059761D01*
X93900237Y-113059761D02*
X93852618Y-112964523D01*
X93852618Y-112964523D02*
X93804999Y-112916904D01*
X93804999Y-112916904D02*
X93709761Y-112869285D01*
X90869104Y-114298094D02*
X90869104Y-113821904D01*
X91154819Y-114393332D02*
X90154819Y-114059999D01*
X90154819Y-114059999D02*
X91154819Y-113726666D01*
X94281190Y-94643094D02*
X93281190Y-94643094D01*
X93281190Y-94643094D02*
X93281190Y-94404999D01*
X93281190Y-94404999D02*
X93328809Y-94262142D01*
X93328809Y-94262142D02*
X93424047Y-94166904D01*
X93424047Y-94166904D02*
X93519285Y-94119285D01*
X93519285Y-94119285D02*
X93709761Y-94071666D01*
X93709761Y-94071666D02*
X93852618Y-94071666D01*
X93852618Y-94071666D02*
X94043094Y-94119285D01*
X94043094Y-94119285D02*
X94138332Y-94166904D01*
X94138332Y-94166904D02*
X94233571Y-94262142D01*
X94233571Y-94262142D02*
X94281190Y-94404999D01*
X94281190Y-94404999D02*
X94281190Y-94643094D01*
X93709761Y-93500237D02*
X93662142Y-93595475D01*
X93662142Y-93595475D02*
X93614523Y-93643094D01*
X93614523Y-93643094D02*
X93519285Y-93690713D01*
X93519285Y-93690713D02*
X93471666Y-93690713D01*
X93471666Y-93690713D02*
X93376428Y-93643094D01*
X93376428Y-93643094D02*
X93328809Y-93595475D01*
X93328809Y-93595475D02*
X93281190Y-93500237D01*
X93281190Y-93500237D02*
X93281190Y-93309761D01*
X93281190Y-93309761D02*
X93328809Y-93214523D01*
X93328809Y-93214523D02*
X93376428Y-93166904D01*
X93376428Y-93166904D02*
X93471666Y-93119285D01*
X93471666Y-93119285D02*
X93519285Y-93119285D01*
X93519285Y-93119285D02*
X93614523Y-93166904D01*
X93614523Y-93166904D02*
X93662142Y-93214523D01*
X93662142Y-93214523D02*
X93709761Y-93309761D01*
X93709761Y-93309761D02*
X93709761Y-93500237D01*
X93709761Y-93500237D02*
X93757380Y-93595475D01*
X93757380Y-93595475D02*
X93804999Y-93643094D01*
X93804999Y-93643094D02*
X93900237Y-93690713D01*
X93900237Y-93690713D02*
X94090713Y-93690713D01*
X94090713Y-93690713D02*
X94185951Y-93643094D01*
X94185951Y-93643094D02*
X94233571Y-93595475D01*
X94233571Y-93595475D02*
X94281190Y-93500237D01*
X94281190Y-93500237D02*
X94281190Y-93309761D01*
X94281190Y-93309761D02*
X94233571Y-93214523D01*
X94233571Y-93214523D02*
X94185951Y-93166904D01*
X94185951Y-93166904D02*
X94090713Y-93119285D01*
X94090713Y-93119285D02*
X93900237Y-93119285D01*
X93900237Y-93119285D02*
X93804999Y-93166904D01*
X93804999Y-93166904D02*
X93757380Y-93214523D01*
X93757380Y-93214523D02*
X93709761Y-93309761D01*
X90869104Y-94548094D02*
X90869104Y-94071904D01*
X91154819Y-94643332D02*
X90154819Y-94309999D01*
X90154819Y-94309999D02*
X91154819Y-93976666D01*
X94371190Y-75163094D02*
X93371190Y-75163094D01*
X93371190Y-75163094D02*
X93371190Y-74924999D01*
X93371190Y-74924999D02*
X93418809Y-74782142D01*
X93418809Y-74782142D02*
X93514047Y-74686904D01*
X93514047Y-74686904D02*
X93609285Y-74639285D01*
X93609285Y-74639285D02*
X93799761Y-74591666D01*
X93799761Y-74591666D02*
X93942618Y-74591666D01*
X93942618Y-74591666D02*
X94133094Y-74639285D01*
X94133094Y-74639285D02*
X94228332Y-74686904D01*
X94228332Y-74686904D02*
X94323571Y-74782142D01*
X94323571Y-74782142D02*
X94371190Y-74924999D01*
X94371190Y-74924999D02*
X94371190Y-75163094D01*
X93371190Y-74258332D02*
X93371190Y-73591666D01*
X93371190Y-73591666D02*
X94371190Y-74020237D01*
X90959104Y-75068094D02*
X90959104Y-74591904D01*
X91244819Y-75163332D02*
X90244819Y-74829999D01*
X90244819Y-74829999D02*
X91244819Y-74496666D01*
X94281190Y-55643094D02*
X93281190Y-55643094D01*
X93281190Y-55643094D02*
X93281190Y-55404999D01*
X93281190Y-55404999D02*
X93328809Y-55262142D01*
X93328809Y-55262142D02*
X93424047Y-55166904D01*
X93424047Y-55166904D02*
X93519285Y-55119285D01*
X93519285Y-55119285D02*
X93709761Y-55071666D01*
X93709761Y-55071666D02*
X93852618Y-55071666D01*
X93852618Y-55071666D02*
X94043094Y-55119285D01*
X94043094Y-55119285D02*
X94138332Y-55166904D01*
X94138332Y-55166904D02*
X94233571Y-55262142D01*
X94233571Y-55262142D02*
X94281190Y-55404999D01*
X94281190Y-55404999D02*
X94281190Y-55643094D01*
X93281190Y-54214523D02*
X93281190Y-54404999D01*
X93281190Y-54404999D02*
X93328809Y-54500237D01*
X93328809Y-54500237D02*
X93376428Y-54547856D01*
X93376428Y-54547856D02*
X93519285Y-54643094D01*
X93519285Y-54643094D02*
X93709761Y-54690713D01*
X93709761Y-54690713D02*
X94090713Y-54690713D01*
X94090713Y-54690713D02*
X94185951Y-54643094D01*
X94185951Y-54643094D02*
X94233571Y-54595475D01*
X94233571Y-54595475D02*
X94281190Y-54500237D01*
X94281190Y-54500237D02*
X94281190Y-54309761D01*
X94281190Y-54309761D02*
X94233571Y-54214523D01*
X94233571Y-54214523D02*
X94185951Y-54166904D01*
X94185951Y-54166904D02*
X94090713Y-54119285D01*
X94090713Y-54119285D02*
X93852618Y-54119285D01*
X93852618Y-54119285D02*
X93757380Y-54166904D01*
X93757380Y-54166904D02*
X93709761Y-54214523D01*
X93709761Y-54214523D02*
X93662142Y-54309761D01*
X93662142Y-54309761D02*
X93662142Y-54500237D01*
X93662142Y-54500237D02*
X93709761Y-54595475D01*
X93709761Y-54595475D02*
X93757380Y-54643094D01*
X93757380Y-54643094D02*
X93852618Y-54690713D01*
X90869104Y-55548094D02*
X90869104Y-55071904D01*
X91154819Y-55643332D02*
X90154819Y-55309999D01*
X90154819Y-55309999D02*
X91154819Y-54976666D01*
X70031190Y-134333093D02*
X69031190Y-134333093D01*
X69031190Y-134333093D02*
X69031190Y-134094998D01*
X69031190Y-134094998D02*
X69078809Y-133952141D01*
X69078809Y-133952141D02*
X69174047Y-133856903D01*
X69174047Y-133856903D02*
X69269285Y-133809284D01*
X69269285Y-133809284D02*
X69459761Y-133761665D01*
X69459761Y-133761665D02*
X69602618Y-133761665D01*
X69602618Y-133761665D02*
X69793094Y-133809284D01*
X69793094Y-133809284D02*
X69888332Y-133856903D01*
X69888332Y-133856903D02*
X69983571Y-133952141D01*
X69983571Y-133952141D02*
X70031190Y-134094998D01*
X70031190Y-134094998D02*
X70031190Y-134333093D01*
X69031190Y-132856903D02*
X69031190Y-133333093D01*
X69031190Y-133333093D02*
X69507380Y-133380712D01*
X69507380Y-133380712D02*
X69459761Y-133333093D01*
X69459761Y-133333093D02*
X69412142Y-133237855D01*
X69412142Y-133237855D02*
X69412142Y-132999760D01*
X69412142Y-132999760D02*
X69459761Y-132904522D01*
X69459761Y-132904522D02*
X69507380Y-132856903D01*
X69507380Y-132856903D02*
X69602618Y-132809284D01*
X69602618Y-132809284D02*
X69840713Y-132809284D01*
X69840713Y-132809284D02*
X69935951Y-132856903D01*
X69935951Y-132856903D02*
X69983571Y-132904522D01*
X69983571Y-132904522D02*
X70031190Y-132999760D01*
X70031190Y-132999760D02*
X70031190Y-133237855D01*
X70031190Y-133237855D02*
X69983571Y-133333093D01*
X69983571Y-133333093D02*
X69935951Y-133380712D01*
X66619104Y-134238093D02*
X66619104Y-133761903D01*
X66904819Y-134333331D02*
X65904819Y-133999998D01*
X65904819Y-133999998D02*
X66904819Y-133666665D01*
X70031190Y-114833093D02*
X69031190Y-114833093D01*
X69031190Y-114833093D02*
X69031190Y-114594998D01*
X69031190Y-114594998D02*
X69078809Y-114452141D01*
X69078809Y-114452141D02*
X69174047Y-114356903D01*
X69174047Y-114356903D02*
X69269285Y-114309284D01*
X69269285Y-114309284D02*
X69459761Y-114261665D01*
X69459761Y-114261665D02*
X69602618Y-114261665D01*
X69602618Y-114261665D02*
X69793094Y-114309284D01*
X69793094Y-114309284D02*
X69888332Y-114356903D01*
X69888332Y-114356903D02*
X69983571Y-114452141D01*
X69983571Y-114452141D02*
X70031190Y-114594998D01*
X70031190Y-114594998D02*
X70031190Y-114833093D01*
X69364523Y-113404522D02*
X70031190Y-113404522D01*
X68983571Y-113642617D02*
X69697856Y-113880712D01*
X69697856Y-113880712D02*
X69697856Y-113261665D01*
X66619104Y-114738093D02*
X66619104Y-114261903D01*
X66904819Y-114833331D02*
X65904819Y-114499998D01*
X65904819Y-114499998D02*
X66904819Y-114166665D01*
X70031190Y-95393094D02*
X69031190Y-95393094D01*
X69031190Y-95393094D02*
X69031190Y-95154999D01*
X69031190Y-95154999D02*
X69078809Y-95012142D01*
X69078809Y-95012142D02*
X69174047Y-94916904D01*
X69174047Y-94916904D02*
X69269285Y-94869285D01*
X69269285Y-94869285D02*
X69459761Y-94821666D01*
X69459761Y-94821666D02*
X69602618Y-94821666D01*
X69602618Y-94821666D02*
X69793094Y-94869285D01*
X69793094Y-94869285D02*
X69888332Y-94916904D01*
X69888332Y-94916904D02*
X69983571Y-95012142D01*
X69983571Y-95012142D02*
X70031190Y-95154999D01*
X70031190Y-95154999D02*
X70031190Y-95393094D01*
X69031190Y-94488332D02*
X69031190Y-93869285D01*
X69031190Y-93869285D02*
X69412142Y-94202618D01*
X69412142Y-94202618D02*
X69412142Y-94059761D01*
X69412142Y-94059761D02*
X69459761Y-93964523D01*
X69459761Y-93964523D02*
X69507380Y-93916904D01*
X69507380Y-93916904D02*
X69602618Y-93869285D01*
X69602618Y-93869285D02*
X69840713Y-93869285D01*
X69840713Y-93869285D02*
X69935951Y-93916904D01*
X69935951Y-93916904D02*
X69983571Y-93964523D01*
X69983571Y-93964523D02*
X70031190Y-94059761D01*
X70031190Y-94059761D02*
X70031190Y-94345475D01*
X70031190Y-94345475D02*
X69983571Y-94440713D01*
X69983571Y-94440713D02*
X69935951Y-94488332D01*
X66619104Y-95298094D02*
X66619104Y-94821904D01*
X66904819Y-95393332D02*
X65904819Y-95059999D01*
X65904819Y-95059999D02*
X66904819Y-94726666D01*
X70031190Y-75833093D02*
X69031190Y-75833093D01*
X69031190Y-75833093D02*
X69031190Y-75594998D01*
X69031190Y-75594998D02*
X69078809Y-75452141D01*
X69078809Y-75452141D02*
X69174047Y-75356903D01*
X69174047Y-75356903D02*
X69269285Y-75309284D01*
X69269285Y-75309284D02*
X69459761Y-75261665D01*
X69459761Y-75261665D02*
X69602618Y-75261665D01*
X69602618Y-75261665D02*
X69793094Y-75309284D01*
X69793094Y-75309284D02*
X69888332Y-75356903D01*
X69888332Y-75356903D02*
X69983571Y-75452141D01*
X69983571Y-75452141D02*
X70031190Y-75594998D01*
X70031190Y-75594998D02*
X70031190Y-75833093D01*
X69126428Y-74880712D02*
X69078809Y-74833093D01*
X69078809Y-74833093D02*
X69031190Y-74737855D01*
X69031190Y-74737855D02*
X69031190Y-74499760D01*
X69031190Y-74499760D02*
X69078809Y-74404522D01*
X69078809Y-74404522D02*
X69126428Y-74356903D01*
X69126428Y-74356903D02*
X69221666Y-74309284D01*
X69221666Y-74309284D02*
X69316904Y-74309284D01*
X69316904Y-74309284D02*
X69459761Y-74356903D01*
X69459761Y-74356903D02*
X70031190Y-74928331D01*
X70031190Y-74928331D02*
X70031190Y-74309284D01*
X66619104Y-75738093D02*
X66619104Y-75261903D01*
X66904819Y-75833331D02*
X65904819Y-75499998D01*
X65904819Y-75499998D02*
X66904819Y-75166665D01*
X70031190Y-56832408D02*
X69031190Y-56832408D01*
X69031190Y-56832408D02*
X69031190Y-56594313D01*
X69031190Y-56594313D02*
X69078809Y-56451456D01*
X69078809Y-56451456D02*
X69174047Y-56356218D01*
X69174047Y-56356218D02*
X69269285Y-56308599D01*
X69269285Y-56308599D02*
X69459761Y-56260980D01*
X69459761Y-56260980D02*
X69602618Y-56260980D01*
X69602618Y-56260980D02*
X69793094Y-56308599D01*
X69793094Y-56308599D02*
X69888332Y-56356218D01*
X69888332Y-56356218D02*
X69983571Y-56451456D01*
X69983571Y-56451456D02*
X70031190Y-56594313D01*
X70031190Y-56594313D02*
X70031190Y-56832408D01*
X70031190Y-55308599D02*
X70031190Y-55880027D01*
X70031190Y-55594313D02*
X69031190Y-55594313D01*
X69031190Y-55594313D02*
X69174047Y-55689551D01*
X69174047Y-55689551D02*
X69269285Y-55784789D01*
X69269285Y-55784789D02*
X69316904Y-55880027D01*
X66619104Y-56737408D02*
X66619104Y-56261218D01*
X66904819Y-56832646D02*
X65904819Y-56499313D01*
X65904819Y-56499313D02*
X66904819Y-56165980D01*
D12*
%TO.C,SW26*%
X185205000Y-66315000D02*
X171235000Y-66315000D01*
X185205000Y-52345000D02*
X185205000Y-66315000D01*
X171235000Y-66315000D02*
X171235000Y-52345000D01*
X171235000Y-52345000D02*
X185205000Y-52345000D01*
%TO.C,C6*%
X109834420Y-36740000D02*
X110115580Y-36740000D01*
X109834420Y-37760000D02*
X110115580Y-37760000D01*
%TO.C,C4*%
X105990000Y-45359420D02*
X105990000Y-45640580D01*
X107010000Y-45359420D02*
X107010000Y-45640580D01*
%TO.C,R1*%
X120630000Y-36830000D02*
X116790000Y-36830000D01*
X120630000Y-38670000D02*
X116790000Y-38670000D01*
%TO.C,SW22*%
X165705000Y-81275000D02*
X151735000Y-81275000D01*
X165705000Y-67305000D02*
X165705000Y-81275000D01*
X151735000Y-81275000D02*
X151735000Y-67305000D01*
X151735000Y-67305000D02*
X165705000Y-67305000D01*
%TO.C,SW27*%
X185205000Y-85815000D02*
X171235000Y-85815000D01*
X185205000Y-71845000D02*
X185205000Y-85815000D01*
X171235000Y-85815000D02*
X171235000Y-71845000D01*
X171235000Y-71845000D02*
X185205000Y-71845000D01*
%TO.C,SW31*%
X204705000Y-69315000D02*
X190735000Y-69315000D01*
X204705000Y-55345000D02*
X204705000Y-69315000D01*
X190735000Y-69315000D02*
X190735000Y-55345000D01*
X190735000Y-55345000D02*
X204705000Y-55345000D01*
%TO.C,J2*%
X216850000Y-70450000D02*
X216100000Y-70450000D01*
X216850000Y-61550000D02*
X216850000Y-70450000D01*
X216850000Y-55750000D02*
X216850000Y-58950000D01*
X216350000Y-55750000D02*
X216850000Y-55750000D01*
X216350000Y-53250000D02*
X216350000Y-55750000D01*
X212900000Y-70450000D02*
X210650000Y-70450000D01*
X211150000Y-55750000D02*
X211150000Y-53250000D01*
X211150000Y-53250000D02*
X216350000Y-53250000D01*
X210650000Y-70450000D02*
X210650000Y-69250000D01*
X210650000Y-66050000D02*
X210650000Y-59550000D01*
X210650000Y-59550000D02*
X208650000Y-59550000D01*
X210650000Y-56950000D02*
X210650000Y-55750000D01*
X210650000Y-56950000D02*
X208650000Y-56950000D01*
X210650000Y-55750000D02*
X211150000Y-55750000D01*
%TO.C,SW7*%
X107125000Y-86275000D02*
X93155000Y-86275000D01*
X107125000Y-72305000D02*
X107125000Y-86275000D01*
X93155000Y-86275000D02*
X93155000Y-72305000D01*
X93155000Y-72305000D02*
X107125000Y-72305000D01*
%TO.C,SW25*%
X165545000Y-139775000D02*
X151575000Y-139775000D01*
X165545000Y-125805000D02*
X165545000Y-139775000D01*
X151575000Y-139775000D02*
X151575000Y-125805000D01*
X151575000Y-125805000D02*
X165545000Y-125805000D01*
%TO.C,SW28*%
X185045000Y-105315000D02*
X171075000Y-105315000D01*
X185045000Y-91345000D02*
X185045000Y-105315000D01*
X171075000Y-105315000D02*
X171075000Y-91345000D01*
X171075000Y-91345000D02*
X185045000Y-91345000D01*
%TO.C,SW24*%
X165545000Y-120275000D02*
X151575000Y-120275000D01*
X165545000Y-106305000D02*
X165545000Y-120275000D01*
X151575000Y-120275000D02*
X151575000Y-106305000D01*
X151575000Y-106305000D02*
X165545000Y-106305000D01*
%TO.C,SW34*%
X209405000Y-127815000D02*
X195435000Y-127815000D01*
X209405000Y-113845000D02*
X209405000Y-127815000D01*
X195435000Y-127815000D02*
X195435000Y-113845000D01*
X195435000Y-113845000D02*
X209405000Y-113845000D01*
%TO.C,R2*%
X75222500Y-48637258D02*
X75222500Y-48162742D01*
X74177500Y-48637258D02*
X74177500Y-48162742D01*
%TO.C,SW9*%
X107045000Y-125275000D02*
X93075000Y-125275000D01*
X107045000Y-111305000D02*
X107045000Y-125275000D01*
X93075000Y-125275000D02*
X93075000Y-111305000D01*
X93075000Y-111305000D02*
X107045000Y-111305000D01*
%TO.C,SW8*%
X107045000Y-105775000D02*
X93075000Y-105775000D01*
X107045000Y-91805000D02*
X107045000Y-105775000D01*
X93075000Y-105775000D02*
X93075000Y-91805000D01*
X93075000Y-91805000D02*
X107045000Y-91805000D01*
%TO.C,SW13*%
X126545000Y-97775000D02*
X112575000Y-97775000D01*
X126545000Y-83805000D02*
X126545000Y-97775000D01*
X112575000Y-97775000D02*
X112575000Y-83805000D01*
X112575000Y-83805000D02*
X126545000Y-83805000D01*
%TO.C,SW36*%
X115300000Y-32500000D02*
X115300000Y-33700000D01*
X115300000Y-35300000D02*
X115300000Y-36500000D01*
X115300000Y-36500000D02*
X121700000Y-36500000D01*
X121700000Y-32500000D02*
X115300000Y-32500000D01*
X121700000Y-33700000D02*
X121700000Y-32500000D01*
X121700000Y-36500000D02*
X121700000Y-35300000D01*
%TO.C,SW15*%
X126545000Y-136775000D02*
X112575000Y-136775000D01*
X126545000Y-122805000D02*
X126545000Y-136775000D01*
X112575000Y-136775000D02*
X112575000Y-122805000D01*
X112575000Y-122805000D02*
X126545000Y-122805000D01*
%TO.C,SW14*%
X126545000Y-117275000D02*
X112575000Y-117275000D01*
X126545000Y-103305000D02*
X126545000Y-117275000D01*
X112575000Y-117275000D02*
X112575000Y-103305000D01*
X112575000Y-103305000D02*
X126545000Y-103305000D01*
%TO.C,SW20*%
X146155000Y-132235000D02*
X132185000Y-132235000D01*
X146155000Y-118265000D02*
X146155000Y-132235000D01*
X132185000Y-132235000D02*
X132185000Y-118265000D01*
X132185000Y-118265000D02*
X146155000Y-118265000D01*
%TO.C,J1*%
X63820000Y-40830000D02*
X63820000Y-41055000D01*
X63820000Y-43930000D02*
X63820000Y-46655000D01*
X71695000Y-49330000D02*
X71470000Y-49330000D01*
X73320000Y-40820000D02*
X73320000Y-41030000D01*
X73320000Y-46680000D02*
X73320000Y-43980000D01*
X73320000Y-49180000D02*
X63820000Y-49180000D01*
%TO.C,C5*%
X99859420Y-35990000D02*
X100140580Y-35990000D01*
X99859420Y-37010000D02*
X100140580Y-37010000D01*
%TO.C,SW4*%
X82815000Y-125275000D02*
X68845000Y-125275000D01*
X82815000Y-111305000D02*
X82815000Y-125275000D01*
X68845000Y-125275000D02*
X68845000Y-111305000D01*
X68845000Y-111305000D02*
X82815000Y-111305000D01*
%TO.C,SW19*%
X146155000Y-112735000D02*
X132185000Y-112735000D01*
X146155000Y-98765000D02*
X146155000Y-112735000D01*
X132185000Y-112735000D02*
X132185000Y-98765000D01*
X132185000Y-98765000D02*
X146155000Y-98765000D01*
%TO.C,SW2*%
X82675000Y-66735000D02*
X68705000Y-66735000D01*
X82675000Y-52765000D02*
X82675000Y-66735000D01*
X68705000Y-66735000D02*
X68705000Y-52765000D01*
X68705000Y-52765000D02*
X82675000Y-52765000D01*
%TO.C,R3*%
X62842500Y-48637258D02*
X62842500Y-48162742D01*
X61797500Y-48637258D02*
X61797500Y-48162742D01*
%TO.C,RV1*%
X203470000Y-49095000D02*
X201650000Y-49095000D01*
X203470000Y-44725000D02*
X203470000Y-49095000D01*
X203470000Y-37505000D02*
X203470000Y-40225000D01*
X203470000Y-37505000D02*
X192530000Y-37505000D01*
X194350000Y-49095000D02*
X192530000Y-49095000D01*
X192530000Y-44725000D02*
X192530000Y-49095000D01*
X192530000Y-37505000D02*
X192530000Y-40225000D01*
%TO.C,SW11*%
X126545000Y-58775000D02*
X112575000Y-58775000D01*
X126545000Y-44805000D02*
X126545000Y-58775000D01*
X112575000Y-58775000D02*
X112575000Y-44805000D01*
X112575000Y-44805000D02*
X126545000Y-44805000D01*
%TO.C,C3*%
X92859420Y-42490000D02*
X93140580Y-42490000D01*
X92859420Y-43510000D02*
X93140580Y-43510000D01*
%TO.C,SW6*%
X107045000Y-66775000D02*
X93075000Y-66775000D01*
X107045000Y-52805000D02*
X107045000Y-66775000D01*
X93075000Y-66775000D02*
X93075000Y-52805000D01*
X93075000Y-52805000D02*
X107045000Y-52805000D01*
%TO.C,SW16*%
X146235000Y-54235000D02*
X132265000Y-54235000D01*
X146235000Y-40265000D02*
X146235000Y-54235000D01*
X132265000Y-54235000D02*
X132265000Y-40265000D01*
X132265000Y-40265000D02*
X146235000Y-40265000D01*
D11*
%TO.C,U1*%
X96425000Y-39125000D02*
X96425000Y-39350000D01*
X96425000Y-39125000D02*
X96750000Y-39125000D01*
X96425000Y-46375000D02*
X96425000Y-46050000D01*
X96425000Y-46375000D02*
X96750000Y-46375000D01*
X103675000Y-39125000D02*
X103350000Y-39125000D01*
X103675000Y-39125000D02*
X103675000Y-39450000D01*
X103675000Y-46375000D02*
X103350000Y-46375000D01*
X103675000Y-46375000D02*
X103675000Y-46050000D01*
D12*
X95660000Y-39410000D02*
X95320000Y-38940000D01*
X96000000Y-38940000D01*
X95660000Y-39410000D01*
G36*
X95660000Y-39410000D02*
G01*
X95320000Y-38940000D01*
X96000000Y-38940000D01*
X95660000Y-39410000D01*
G37*
%TO.C,SW21*%
X165705000Y-61775000D02*
X151735000Y-61775000D01*
X165705000Y-47805000D02*
X165705000Y-61775000D01*
X151735000Y-61775000D02*
X151735000Y-47805000D01*
X151735000Y-47805000D02*
X165705000Y-47805000D01*
%TO.C,SW32*%
X204705000Y-88815000D02*
X190735000Y-88815000D01*
X204705000Y-74845000D02*
X204705000Y-88815000D01*
X190735000Y-88815000D02*
X190735000Y-74845000D01*
X190735000Y-74845000D02*
X204705000Y-74845000D01*
%TO.C,SW23*%
X165545000Y-100775000D02*
X151575000Y-100775000D01*
X165545000Y-86805000D02*
X165545000Y-100775000D01*
X151575000Y-100775000D02*
X151575000Y-86805000D01*
X151575000Y-86805000D02*
X165545000Y-86805000D01*
%TO.C,SW3*%
X82735000Y-105775000D02*
X68765000Y-105775000D01*
X82735000Y-91805000D02*
X82735000Y-105775000D01*
X68765000Y-105775000D02*
X68765000Y-91805000D01*
X68765000Y-91805000D02*
X82735000Y-91805000D01*
%TO.C,SW29*%
X185045000Y-124815000D02*
X171075000Y-124815000D01*
X185045000Y-110845000D02*
X185045000Y-124815000D01*
X171075000Y-124815000D02*
X171075000Y-110845000D01*
X171075000Y-110845000D02*
X185045000Y-110845000D01*
%TO.C,C7*%
X77740000Y-44640580D02*
X77740000Y-44359420D01*
X78760000Y-44640580D02*
X78760000Y-44359420D01*
%TO.C,SW18*%
X146125000Y-93775000D02*
X132155000Y-93775000D01*
X146125000Y-79805000D02*
X146125000Y-93775000D01*
X132155000Y-93775000D02*
X132155000Y-79805000D01*
X132155000Y-79805000D02*
X146125000Y-79805000D01*
%TO.C,J3*%
X85850000Y-49400000D02*
X79850000Y-49400000D01*
X85850000Y-39100000D02*
X85850000Y-49400000D01*
X85750000Y-48050000D02*
X84740000Y-48050000D01*
X84740000Y-48050000D02*
X84740000Y-42970000D01*
X84740000Y-42970000D02*
X85750000Y-42970000D01*
X79900000Y-42300000D02*
X79900000Y-39100000D01*
X79900000Y-39100000D02*
X85850000Y-39100000D01*
X79850000Y-49400000D02*
X79850000Y-43650000D01*
%TO.C,SW30*%
X185045000Y-144315000D02*
X171075000Y-144315000D01*
X185045000Y-130345000D02*
X185045000Y-144315000D01*
X171075000Y-144315000D02*
X171075000Y-130345000D01*
X171075000Y-130345000D02*
X185045000Y-130345000D01*
%TO.C,SW10*%
X107045000Y-144775000D02*
X93075000Y-144775000D01*
X107045000Y-130805000D02*
X107045000Y-144775000D01*
X93075000Y-144775000D02*
X93075000Y-130805000D01*
X93075000Y-130805000D02*
X107045000Y-130805000D01*
%TO.C,SW33*%
X207155000Y-108315000D02*
X193185000Y-108315000D01*
X207155000Y-94345000D02*
X207155000Y-108315000D01*
X193185000Y-108315000D02*
X193185000Y-94345000D01*
X193185000Y-94345000D02*
X207155000Y-94345000D01*
%TO.C,SW12*%
X126545000Y-78275000D02*
X112575000Y-78275000D01*
X126545000Y-64305000D02*
X126545000Y-78275000D01*
X112575000Y-78275000D02*
X112575000Y-64305000D01*
X112575000Y-64305000D02*
X126545000Y-64305000D01*
%TO.C,SW35*%
X211735000Y-147235000D02*
X197765000Y-147235000D01*
X211735000Y-133265000D02*
X211735000Y-147235000D01*
X197765000Y-147235000D02*
X197765000Y-133265000D01*
X197765000Y-133265000D02*
X211735000Y-133265000D01*
%TO.C,SW17*%
X146195000Y-73775000D02*
X132225000Y-73775000D01*
X146195000Y-59805000D02*
X146195000Y-73775000D01*
X132225000Y-73775000D02*
X132225000Y-59805000D01*
X132225000Y-59805000D02*
X146195000Y-59805000D01*
%TO.C,SW1*%
X82735000Y-86235000D02*
X68765000Y-86235000D01*
X82735000Y-72265000D02*
X82735000Y-86235000D01*
X68765000Y-86235000D02*
X68765000Y-72265000D01*
X68765000Y-72265000D02*
X82735000Y-72265000D01*
%TO.C,SW5*%
X82815000Y-144775000D02*
X68845000Y-144775000D01*
X82815000Y-130805000D02*
X82815000Y-144775000D01*
X68845000Y-144775000D02*
X68845000Y-130805000D01*
X68845000Y-130805000D02*
X82815000Y-130805000D01*
%TO.C,D35*%
X196250000Y-135325685D02*
X196250000Y-136709314D01*
X197576371Y-133999314D02*
G75*
G02*
X194923629Y-133999314I-1326371J0D01*
G01*
X194923629Y-133999314D02*
G75*
G02*
X197576371Y-133999314I1326371J0D01*
G01*
%TO.C,D34*%
X193750000Y-116076371D02*
X193750000Y-117460000D01*
X195076371Y-114750000D02*
G75*
G02*
X192423629Y-114750000I-1326371J0D01*
G01*
X192423629Y-114750000D02*
G75*
G02*
X195076371Y-114750000I1326371J0D01*
G01*
%TO.C,D33*%
X191600000Y-96816371D02*
X191600000Y-98200000D01*
X192926371Y-95490000D02*
G75*
G02*
X190273629Y-95490000I-1326371J0D01*
G01*
X190273629Y-95490000D02*
G75*
G02*
X192926371Y-95490000I1326371J0D01*
G01*
%TO.C,D32*%
X189250000Y-76826371D02*
X189250000Y-78210000D01*
X190576371Y-75500000D02*
G75*
G02*
X187923629Y-75500000I-1326371J0D01*
G01*
X187923629Y-75500000D02*
G75*
G02*
X190576371Y-75500000I1326371J0D01*
G01*
%TO.C,D31*%
X189250000Y-57575685D02*
X189250000Y-58959314D01*
X190576371Y-56249314D02*
G75*
G02*
X187923629Y-56249314I-1326371J0D01*
G01*
X187923629Y-56249314D02*
G75*
G02*
X190576371Y-56249314I1326371J0D01*
G01*
%TO.C,D30*%
X169500000Y-132076371D02*
X169500000Y-133460000D01*
X170826371Y-130750000D02*
G75*
G02*
X168173629Y-130750000I-1326371J0D01*
G01*
X168173629Y-130750000D02*
G75*
G02*
X170826371Y-130750000I1326371J0D01*
G01*
%TO.C,D29*%
X169500000Y-113075685D02*
X169500000Y-114459314D01*
X170826371Y-111749314D02*
G75*
G02*
X168173629Y-111749314I-1326371J0D01*
G01*
X168173629Y-111749314D02*
G75*
G02*
X170826371Y-111749314I1326371J0D01*
G01*
%TO.C,D28*%
X169500000Y-93076371D02*
X169500000Y-94460000D01*
X170826371Y-91750000D02*
G75*
G02*
X168173629Y-91750000I-1326371J0D01*
G01*
X168173629Y-91750000D02*
G75*
G02*
X170826371Y-91750000I1326371J0D01*
G01*
%TO.C,D27*%
X169750000Y-73326371D02*
X169750000Y-74710000D01*
X171076371Y-72000000D02*
G75*
G02*
X168423629Y-72000000I-1326371J0D01*
G01*
X168423629Y-72000000D02*
G75*
G02*
X171076371Y-72000000I1326371J0D01*
G01*
%TO.C,D26*%
X169750000Y-54076371D02*
X169750000Y-55460000D01*
X171076371Y-52750000D02*
G75*
G02*
X168423629Y-52750000I-1326371J0D01*
G01*
X168423629Y-52750000D02*
G75*
G02*
X171076371Y-52750000I1326371J0D01*
G01*
%TO.C,D25*%
X150000000Y-127326371D02*
X150000000Y-128710000D01*
X151326371Y-126000000D02*
G75*
G02*
X148673629Y-126000000I-1326371J0D01*
G01*
X148673629Y-126000000D02*
G75*
G02*
X151326371Y-126000000I1326371J0D01*
G01*
%TO.C,D24*%
X150000000Y-107826371D02*
X150000000Y-109210000D01*
X151326371Y-106500000D02*
G75*
G02*
X148673629Y-106500000I-1326371J0D01*
G01*
X148673629Y-106500000D02*
G75*
G02*
X151326371Y-106500000I1326371J0D01*
G01*
%TO.C,D23*%
X150000000Y-88576371D02*
X150000000Y-89960000D01*
X151326371Y-87250000D02*
G75*
G02*
X148673629Y-87250000I-1326371J0D01*
G01*
X148673629Y-87250000D02*
G75*
G02*
X151326371Y-87250000I1326371J0D01*
G01*
%TO.C,D22*%
X150250000Y-68826371D02*
X150250000Y-70210000D01*
X151576371Y-67500000D02*
G75*
G02*
X148923629Y-67500000I-1326371J0D01*
G01*
X148923629Y-67500000D02*
G75*
G02*
X151576371Y-67500000I1326371J0D01*
G01*
%TO.C,D21*%
X150250000Y-48826371D02*
X150250000Y-50210000D01*
X151576371Y-47500000D02*
G75*
G02*
X148923629Y-47500000I-1326371J0D01*
G01*
X148923629Y-47500000D02*
G75*
G02*
X151576371Y-47500000I1326371J0D01*
G01*
%TO.C,D20*%
X130500000Y-119826371D02*
X130500000Y-121210000D01*
X131826371Y-118500000D02*
G75*
G02*
X129173629Y-118500000I-1326371J0D01*
G01*
X129173629Y-118500000D02*
G75*
G02*
X131826371Y-118500000I1326371J0D01*
G01*
%TO.C,D19*%
X130500000Y-100576371D02*
X130500000Y-101960000D01*
X131826371Y-99250000D02*
G75*
G02*
X129173629Y-99250000I-1326371J0D01*
G01*
X129173629Y-99250000D02*
G75*
G02*
X131826371Y-99250000I1326371J0D01*
G01*
%TO.C,D18*%
X130500000Y-81576371D02*
X130500000Y-82960000D01*
X131826371Y-80250000D02*
G75*
G02*
X129173629Y-80250000I-1326371J0D01*
G01*
X129173629Y-80250000D02*
G75*
G02*
X131826371Y-80250000I1326371J0D01*
G01*
%TO.C,D17*%
X130750000Y-61576371D02*
X130750000Y-62960000D01*
X132076371Y-60250000D02*
G75*
G02*
X129423629Y-60250000I-1326371J0D01*
G01*
X129423629Y-60250000D02*
G75*
G02*
X132076371Y-60250000I1326371J0D01*
G01*
%TO.C,D16*%
X130750000Y-42076371D02*
X130750000Y-43460000D01*
X132076371Y-40750000D02*
G75*
G02*
X129423629Y-40750000I-1326371J0D01*
G01*
X129423629Y-40750000D02*
G75*
G02*
X132076371Y-40750000I1326371J0D01*
G01*
%TO.C,D15*%
X111000000Y-124326371D02*
X111000000Y-125710000D01*
X112326371Y-123000000D02*
G75*
G02*
X109673629Y-123000000I-1326371J0D01*
G01*
X109673629Y-123000000D02*
G75*
G02*
X112326371Y-123000000I1326371J0D01*
G01*
%TO.C,D14*%
X111000000Y-104576371D02*
X111000000Y-105960000D01*
X112326371Y-103250000D02*
G75*
G02*
X109673629Y-103250000I-1326371J0D01*
G01*
X109673629Y-103250000D02*
G75*
G02*
X112326371Y-103250000I1326371J0D01*
G01*
%TO.C,D13*%
X111000000Y-85326371D02*
X111000000Y-86710000D01*
X112326371Y-84000000D02*
G75*
G02*
X109673629Y-84000000I-1326371J0D01*
G01*
X109673629Y-84000000D02*
G75*
G02*
X112326371Y-84000000I1326371J0D01*
G01*
%TO.C,D12*%
X111000000Y-65826371D02*
X111000000Y-67210000D01*
X112326371Y-64500000D02*
G75*
G02*
X109673629Y-64500000I-1326371J0D01*
G01*
X109673629Y-64500000D02*
G75*
G02*
X112326371Y-64500000I1326371J0D01*
G01*
%TO.C,D11*%
X111000000Y-45076371D02*
X111000000Y-46460000D01*
X112326371Y-43750000D02*
G75*
G02*
X109673629Y-43750000I-1326371J0D01*
G01*
X109673629Y-43750000D02*
G75*
G02*
X112326371Y-43750000I1326371J0D01*
G01*
%TO.C,D10*%
X91500000Y-132076371D02*
X91500000Y-133460000D01*
X92826371Y-130750000D02*
G75*
G02*
X90173629Y-130750000I-1326371J0D01*
G01*
X90173629Y-130750000D02*
G75*
G02*
X92826371Y-130750000I1326371J0D01*
G01*
%TO.C,D9*%
X91500000Y-113076371D02*
X91500000Y-114460000D01*
X92826371Y-111750000D02*
G75*
G02*
X90173629Y-111750000I-1326371J0D01*
G01*
X90173629Y-111750000D02*
G75*
G02*
X92826371Y-111750000I1326371J0D01*
G01*
%TO.C,D8*%
X91500000Y-93326371D02*
X91500000Y-94710000D01*
X92826371Y-92000000D02*
G75*
G02*
X90173629Y-92000000I-1326371J0D01*
G01*
X90173629Y-92000000D02*
G75*
G02*
X92826371Y-92000000I1326371J0D01*
G01*
%TO.C,D7*%
X91590000Y-73846371D02*
X91590000Y-75230000D01*
X92916371Y-72520000D02*
G75*
G02*
X90263629Y-72520000I-1326371J0D01*
G01*
X90263629Y-72520000D02*
G75*
G02*
X92916371Y-72520000I1326371J0D01*
G01*
%TO.C,D6*%
X91500000Y-54326371D02*
X91500000Y-55710000D01*
X92826371Y-53000000D02*
G75*
G02*
X90173629Y-53000000I-1326371J0D01*
G01*
X90173629Y-53000000D02*
G75*
G02*
X92826371Y-53000000I1326371J0D01*
G01*
%TO.C,D5*%
X67250000Y-133016370D02*
X67250000Y-134399999D01*
X68576371Y-131689999D02*
G75*
G02*
X65923629Y-131689999I-1326371J0D01*
G01*
X65923629Y-131689999D02*
G75*
G02*
X68576371Y-131689999I1326371J0D01*
G01*
%TO.C,D4*%
X67250000Y-113516370D02*
X67250000Y-114899999D01*
X68576371Y-112189999D02*
G75*
G02*
X65923629Y-112189999I-1326371J0D01*
G01*
X65923629Y-112189999D02*
G75*
G02*
X68576371Y-112189999I1326371J0D01*
G01*
%TO.C,D3*%
X67250000Y-94076371D02*
X67250000Y-95460000D01*
X68576371Y-92750000D02*
G75*
G02*
X65923629Y-92750000I-1326371J0D01*
G01*
X65923629Y-92750000D02*
G75*
G02*
X68576371Y-92750000I1326371J0D01*
G01*
%TO.C,D2*%
X67250000Y-74516370D02*
X67250000Y-75899999D01*
X68576371Y-73189999D02*
G75*
G02*
X65923629Y-73189999I-1326371J0D01*
G01*
X65923629Y-73189999D02*
G75*
G02*
X68576371Y-73189999I1326371J0D01*
G01*
%TO.C,D1*%
X67250000Y-55515685D02*
X67250000Y-56899314D01*
X68576371Y-54189314D02*
G75*
G02*
X65923629Y-54189314I-1326371J0D01*
G01*
X65923629Y-54189314D02*
G75*
G02*
X68576371Y-54189314I1326371J0D01*
G01*
%TD*%
M02*
