M48
; DRILL file {KiCad 8.0.6} date 2024-10-31T21:01:36+0100
; FORMAT={-:-/ absolute / inch / decimal}
; #@! TF.CreationDate,2024-10-31T21:01:36+01:00
; #@! TF.GenerationSoftware,Kicad,Pcbnew,8.0.6
; #@! TF.FileFunction,NonPlated,1,2,NPTH
FMAT,2
INCH
; #@! TA.AperFunction,NonPlated,NPTH,ComponentDrill
T1C0.0433
; #@! TA.AperFunction,NonPlated,NPTH,ComponentDrill
T2C0.0669
; #@! TA.AperFunction,NonPlated,NPTH,ComponentDrill
T3C0.0827
; #@! TA.AperFunction,NonPlated,NPTH,ComponentDrill
T4C0.1575
%
G90
G05
T1
X3.161Y-1.6917
T2
X2.7799Y-2.3524
X2.7823Y-3.1201
X2.7823Y-3.8894
X2.7854Y-4.6571
X2.7854Y-5.4248
X3.1799Y-2.3524
X3.1823Y-3.1201
X3.1823Y-3.8894
X3.1854Y-4.6571
X3.1854Y-5.4248
X3.7394Y-2.3539
X3.7394Y-3.8894
X3.7394Y-4.6571
X3.7394Y-5.4248
X3.7425Y-3.1217
X4.1394Y-2.3539
X4.1394Y-3.8894
X4.1394Y-4.6571
X4.1394Y-5.4248
X4.1425Y-3.1217
X4.5071Y-2.039
X4.5071Y-2.8067
X4.5071Y-3.5744
X4.5071Y-4.3421
X4.5071Y-5.1098
X4.9071Y-2.039
X4.9071Y-2.8067
X4.9071Y-3.5744
X4.9071Y-4.3421
X4.9071Y-5.1098
X5.278Y-3.4169
X5.2791Y-4.1634
X5.2791Y-4.9311
X5.2807Y-2.6295
X5.2823Y-1.8602
X5.678Y-3.4169
X5.6791Y-4.1634
X5.6791Y-4.9311
X5.6807Y-2.6295
X5.6823Y-1.8602
X6.0425Y-3.6925
X6.0425Y-4.4602
X6.0425Y-5.228
X6.0488Y-2.1571
X6.0488Y-2.9248
X6.4425Y-3.6925
X6.4425Y-4.4602
X6.4425Y-5.228
X6.4488Y-2.1571
X6.4488Y-2.9248
X6.8102Y-3.8713
X6.8102Y-4.639
X6.8102Y-5.4067
X6.8165Y-2.3358
X6.8165Y-3.1035
X7.2102Y-3.8713
X7.2102Y-4.639
X7.2102Y-5.4067
X7.2165Y-2.3358
X7.2165Y-3.1035
X7.5843Y-2.4539
X7.5843Y-3.2217
X7.6807Y-3.9894
X7.7693Y-4.7571
X7.861Y-5.5217
X7.9843Y-2.4539
X7.9843Y-3.2217
X8.0807Y-3.9894
X8.1693Y-4.7571
X8.261Y-5.5217
X8.4154Y-2.3366
X8.4154Y-2.6122
T3
X2.5197Y-2.4409
X2.5197Y-5.7087
X5.4724Y-5.4724
X6.0236Y-1.6142
X8.622Y-5.8268
X8.6614Y-3.0315
T4
X2.9799Y-2.3524
X2.9823Y-3.1201
X2.9823Y-3.8894
X2.9854Y-4.6571
X2.9854Y-5.4248
X3.9394Y-2.3539
X3.9394Y-3.8894
X3.9394Y-4.6571
X3.9394Y-5.4248
X3.9425Y-3.1217
X4.7071Y-2.039
X4.7071Y-2.8067
X4.7071Y-3.5744
X4.7071Y-4.3421
X4.7071Y-5.1098
X5.478Y-3.4169
X5.4791Y-4.1634
X5.4791Y-4.9311
X5.4807Y-2.6295
X5.4823Y-1.8602
X6.2425Y-3.6925
X6.2425Y-4.4602
X6.2425Y-5.228
X6.2488Y-2.1571
X6.2488Y-2.9248
X7.0102Y-3.8713
X7.0102Y-4.639
X7.0102Y-5.4067
X7.0165Y-2.3358
X7.0165Y-3.1035
X7.7843Y-2.4539
X7.7843Y-3.2217
X7.8807Y-3.9894
X7.9693Y-4.7571
X8.061Y-5.5217
M30
