M48
; DRILL file {KiCad 8.0.6} date 2024-10-31T21:01:36+0100
; FORMAT={-:-/ absolute / inch / decimal}
; #@! TF.CreationDate,2024-10-31T21:01:36+01:00
; #@! TF.GenerationSoftware,Kicad,Pcbnew,8.0.6
; #@! TF.FileFunction,Plated,1,2,PTH
FMAT,2
INCH
; #@! TA.AperFunction,Plated,PTH,ViaDrill
T1C0.0039
; #@! TA.AperFunction,Plated,PTH,ViaDrill
T2C0.0118
; #@! TA.AperFunction,Plated,PTH,ComponentDrill
T3C0.0236
; #@! TA.AperFunction,Plated,PTH,ComponentDrill
T4C0.0276
; #@! TA.AperFunction,Plated,PTH,ComponentDrill
T5C0.0315
; #@! TA.AperFunction,Plated,PTH,ComponentDrill
T6C0.0394
; #@! TA.AperFunction,Plated,PTH,ComponentDrill
T7C0.0402
; #@! TA.AperFunction,Plated,PTH,ComponentDrill
T8C0.0591
; #@! TA.AperFunction,Plated,PTH,ComponentDrill
T9C0.0787
%
G90
G05
T1
X2.6701Y-1.8669
X2.6898Y-1.8657
X2.7193Y-1.9272
T2
X2.5591Y-1.9685
X3.0807Y-1.6732
X3.5827Y-1.6929
X3.6142Y-1.7953
X3.6969Y-1.7953
X3.7008Y-1.8602
X3.7205Y-2.0472
X3.7205Y-2.1161
X3.7402Y-1.8602
X3.75Y-1.5453
X3.7697Y-2.0472
X3.7697Y-2.1161
X3.7795Y-1.8996
X3.8189Y-1.9291
X3.8287Y-1.7717
X3.8583Y-1.437
X3.8583Y-1.9291
X3.8976Y-1.9291
X3.9272Y-1.5748
X3.937Y-1.9291
X3.9547Y-1.6496
X3.9764Y-1.9291
X3.9961Y-1.6043
X4.0157Y-1.9291
X4.0354Y-1.6831
X4.0551Y-1.9291
X4.2421Y-1.7618
X4.4464Y-1.4247
X4.8425Y-1.6929
X4.8819Y-1.6929
X4.9213Y-1.6929
X4.9606Y-1.6929
X5.0098Y-2.372
X5.064Y-3.2333
X5.1969Y-3.9075
X5.2264Y-4.6654
X8.1791Y-2.2933
T4
X4.5736Y-1.4862
X4.7736Y-1.4862
T5
X2.6476Y-2.1334
X2.6476Y-2.2834
X2.6476Y-2.8815
X2.6476Y-3.0315
X2.6476Y-3.6516
X2.6476Y-3.8016
X2.6476Y-4.4169
X2.6476Y-4.5669
X2.6476Y-5.1846
X2.6476Y-5.3346
X3.6024Y-2.0866
X3.6024Y-2.2366
X3.6024Y-3.622
X3.6024Y-3.772
X3.6024Y-4.3996
X3.6024Y-4.5496
X3.6024Y-5.1476
X3.6024Y-5.2976
X3.6059Y-2.8551
X3.6059Y-3.0051
X4.3701Y-1.7224
X4.3701Y-1.8724
X4.3701Y-2.5394
X4.3701Y-2.6894
X4.3701Y-3.3071
X4.3701Y-3.4571
X4.3701Y-4.065
X4.3701Y-4.215
X4.3701Y-4.8425
X4.3701Y-4.9925
X5.1378Y-3.1594
X5.1378Y-3.3094
X5.1378Y-3.9075
X5.1378Y-4.0575
X5.1378Y-4.6654
X5.1378Y-4.8154
X5.1476Y-1.6043
X5.1476Y-1.7543
X5.1476Y-2.372
X5.1476Y-2.522
X5.9055Y-3.435
X5.9055Y-3.585
X5.9055Y-4.1929
X5.9055Y-4.3429
X5.9055Y-4.9606
X5.9055Y-5.1106
X5.9154Y-1.8701
X5.9154Y-2.0201
X5.9154Y-2.6575
X5.9154Y-2.8075
X6.6732Y-3.6122
X6.6732Y-3.7622
X6.6732Y-4.3996
X6.6732Y-4.5496
X6.6732Y-5.1476
X6.6732Y-5.2976
X6.6831Y-2.0768
X6.6831Y-2.2268
X6.6831Y-2.8346
X6.6831Y-2.9846
X7.4508Y-2.2145
X7.4508Y-2.3645
X7.4508Y-2.9724
X7.4508Y-3.1224
X7.5433Y-3.7594
X7.5433Y-3.9094
X7.628Y-4.5177
X7.628Y-4.6677
X7.7264Y-5.2756
X7.7264Y-5.4256
T6
X7.6969Y-1.9675
X7.7953Y-1.9675
X7.8937Y-1.9675
T7
X3.2461Y-1.5917
X3.2461Y-1.6917
X3.2461Y-1.7917
X3.2461Y-1.8917
T8
X2.8299Y-2.2524
X2.8323Y-3.0201
X2.8323Y-3.7894
X2.8354Y-4.5571
X2.8354Y-5.3248
X3.0799Y-2.1524
X3.0823Y-2.9201
X3.0823Y-3.6894
X3.0854Y-4.4571
X3.0854Y-5.2248
X3.7894Y-2.2539
X3.7894Y-3.7894
X3.7894Y-4.5571
X3.7894Y-5.3248
X3.7925Y-3.0217
X4.0394Y-2.1539
X4.0394Y-3.6894
X4.0394Y-4.4571
X4.0394Y-5.2248
X4.0425Y-2.9217
X4.5571Y-1.939
X4.5571Y-2.7067
X4.5571Y-3.4744
X4.5571Y-4.2421
X4.5571Y-5.0098
X4.8071Y-1.839
X4.8071Y-2.6067
X4.8071Y-3.3744
X4.8071Y-4.1421
X4.8071Y-4.9098
X5.328Y-3.3169
X5.3291Y-4.0634
X5.3291Y-4.8311
X5.3307Y-2.5295
X5.3323Y-1.7602
X5.578Y-3.2169
X5.5791Y-3.9634
X5.5791Y-4.7311
X5.5807Y-2.4295
X5.5823Y-1.6602
X6.0925Y-3.5925
X6.0925Y-4.3602
X6.0925Y-5.128
X6.0988Y-2.0571
X6.0988Y-2.8248
X6.3425Y-3.4925
X6.3425Y-4.2602
X6.3425Y-5.028
X6.3488Y-1.9571
X6.3488Y-2.7248
X6.8602Y-3.7713
X6.8602Y-4.539
X6.8602Y-5.3067
X6.8665Y-2.2358
X6.8665Y-3.0035
X7.1102Y-3.6713
X7.1102Y-4.439
X7.1102Y-5.2067
X7.1165Y-2.1358
X7.1165Y-2.9035
X7.6343Y-2.3539
X7.6343Y-3.1217
X7.7307Y-3.8894
X7.8193Y-4.6571
X7.8843Y-2.2539
X7.8843Y-3.0217
X7.911Y-5.4217
X7.9807Y-3.7894
X8.0693Y-4.5571
X8.161Y-5.3217
T9
X7.6083Y-1.6722
X7.9823Y-1.6722
T3
G00X2.5295Y-1.7028
M15
G01X2.5295Y-1.6437
M16
G05
G00X2.5295Y-1.9039
M15
G01X2.5295Y-1.8646
M16
G05
G00X2.8697Y-1.7028
M15
G01X2.8697Y-1.6437
M16
G05
G00X2.8697Y-1.9039
M15
G01X2.8697Y-1.8646
M16
G05
M30
